<?xml version="1.0" standalone="no"?>
 <!DOCTYPE svg PUBLIC "-//W3C//DTD SVG 1.1//EN" 
 "http://www.w3.org/Graphics/SVG/1.1/DTD/svg11.dtd"> 
<svg xmlns="http://www.w3.org/2000/svg" version="1.1" 
    width="29.7002cm" height="21.0007cm" viewBox="0 0 116930 82680 ">
<title>SVG Picture created as hvac-v2-brd.svg date 2018/07/21 19:11:59 </title>
  <desc>Picture generated by PCBNEW </desc>
<g style="fill:#000000; fill-opacity:1;stroke:#000000; stroke-opacity:1;
stroke-linecap:round; stroke-linejoin:round; "
 transform="translate(0 0) scale(1 1)">
</g>
<g style="fill:#000000; fill-opacity:0.0; 
stroke:#000000; stroke-width:-0.000393701; stroke-opacity:1; 
stroke-linecap:round; stroke-linejoin:round;">
</g>
<g style="fill:#C2C200; fill-opacity:0.0; 
stroke:#C2C200; stroke-width:-0.000393701; stroke-opacity:1; 
stroke-linecap:round; stroke-linejoin:round;">
</g>
<g style="fill:#C2C200; fill-opacity:0.0; 
stroke:#C2C200; stroke-width:59.0551; stroke-opacity:1; 
stroke-linecap:round; stroke-linejoin:round;">
<circle cx="60236.2" cy="20472.4" r="1771.65" /> 
<circle cx="20866.1" cy="20472.4" r="1771.65" /> 
<circle cx="20866.1" cy="38189" r="1771.65" /> 
<circle cx="60236.2" cy="38287.4" r="1771.65" /> 
</g>
<g style="fill:#000000; fill-opacity:0.0; 
stroke:#000000; stroke-width:59.0551; stroke-opacity:1; 
stroke-linecap:round; stroke-linejoin:round;">
</g>
<g style="fill:#848484; fill-opacity:0.0; 
stroke:#848484; stroke-width:59.0551; stroke-opacity:1; 
stroke-linecap:round; stroke-linejoin:round;">
</g>
<g style="fill:#848484; fill-opacity:0.0; 
stroke:#848484; stroke-width:19.685; stroke-opacity:1; 
stroke-linecap:round; stroke-linejoin:round;">
<path d="M55196 31929
L55196 30511
" />
<path d="M55984 31929
L55984 30511
" />
<path d="M55196 31929
L55984 31929
" />
<path d="M55196 30511
L55984 30511
" />
<path d="M54271 31811
L54271 30669
" />
<path d="M54862 31811
L54862 30669
" />
<path d="M54271 31811
L54862 31811
" />
<path d="M54271 30669
L54862 30669
" />
<path d="M53484 31811
L53484 30669
" />
<path d="M54074 31811
L54074 30669
" />
<path d="M53484 31811
L54074 31811
" />
<path d="M53484 30669
L54074 30669
" />
</g>
<g style="fill:#848484; fill-opacity:0.0; 
stroke:#848484; stroke-width:59.0551; stroke-opacity:1; 
stroke-linecap:round; stroke-linejoin:round;">
<circle cx="60236.2" cy="20472.4" r="1771.65" /> 
<circle cx="20866.1" cy="20472.4" r="1771.65" /> 
<circle cx="20866.1" cy="38189" r="1771.65" /> 
<circle cx="60236.2" cy="38287.4" r="1771.65" /> 
</g>
<g style="fill:#848484; fill-opacity:0.0; 
stroke:#848484; stroke-width:19.685; stroke-opacity:1; 
stroke-linecap:round; stroke-linejoin:round;">
<path d="M31023 29370
L30000 29370
" />
<path d="M31023 28740
L30000 28740
" />
<path d="M31023 29370
L31023 28740
" />
<path d="M30000 29370
L30000 28740
" />
<path d="M31043 28307
L30019 28307
" />
<path d="M31043 27677
L30019 27677
" />
<path d="M31043 28307
L31043 27677
" />
<path d="M30019 28307
L30019 27677
" />
<path d="M37283 27874
L37283 28897
" />
<path d="M36653 27874
L36653 28897
" />
<path d="M37283 27874
L36653 27874
" />
<path d="M37283 28897
L36653 28897
" />
<path d="M52440 32874
L52440 33897
" />
<path d="M51811 32874
L51811 33897
" />
<path d="M52440 32874
L51811 32874
" />
<path d="M52440 33897
L51811 33897
" />
<path d="M52637 33917
L52637 32893
" />
<path d="M53267 33917
L53267 32893
" />
<path d="M52637 33917
L53267 33917
" />
<path d="M52637 32893
L53267 32893
" />
<path d="M37519 27381
L37519 26358
" />
<path d="M38149 27381
L38149 26358
" />
<path d="M37519 27381
L38149 27381
" />
<path d="M37519 26358
L38149 26358
" />
<path d="M51456 29606
L52874 29606
" />
<path d="M52874 29606
L52874 30866
" />
<path d="M52874 30866
L51456 30866
" />
<path d="M51456 30866
L51456 29606
" />
<path d="M44822 39389
L40433 39389
" />
<path d="M44822 40767
L40433 40767
" />
<path d="M44822 39389
L44822 40767
" />
<path d="M40433 39389
L40433 40767
" />
<path d="M24153 32041
L24153 33812
" />
<path d="M24153 33812
L23326 33812
" />
<path d="M23326 33812
L23326 32041
" />
<path d="M24153 32041
L23326 32041
" />
</g>
<g style="fill:#000000; fill-opacity:0.0; 
stroke:#000000; stroke-width:19.685; stroke-opacity:1; 
stroke-linecap:round; stroke-linejoin:round;">
</g>
<g style="fill:#C2C200; fill-opacity:0.0; 
stroke:#C2C200; stroke-width:19.685; stroke-opacity:1; 
stroke-linecap:round; stroke-linejoin:round;">
</g>
<g style="fill:#C2C200; fill-opacity:0.0; 
stroke:#C2C200; stroke-width:118.11; stroke-opacity:1; 
stroke-linecap:round; stroke-linejoin:round;">
<path d="M48436 32376
L48408 32404
L48323 32432
L48267 32432
L48183 32404
L48127 32348
L48098 32291
L48070 32179
L48070 32095
L48098 31982
L48127 31926
L48183 31870
L48267 31841
L48323 31841
L48408 31870
L48436 31898
" />
<path d="M48689 32432
L48689 31841
L48914 31841
L48970 31870
L48998 31898
L49026 31954
L49026 32038
L48998 32095
L48970 32123
L48914 32151
L48689 32151
" />
<path d="M49280 31841
L49280 32320
L49308 32376
L49336 32404
L49392 32432
L49505 32432
L49561 32404
L49589 32376
L49617 32320
L49617 31841
" />
<path d="M21690 32668
L22027 32668
" />
<path d="M21858 33259
L21858 32668
" />
<path d="M22224 33259
L22224 32668
" />
<path d="M22505 33259
L22505 32668
L22843 33259
L22843 32668
" />
<path d="M23236 32978
L23236 33259
" />
<path d="M23039 32668
L23236 32978
L23433 32668
" />
<path d="M24080 33259
L24080 32668
L24221 32668
L24305 32696
L24361 32753
L24389 32809
L24417 32921
L24417 33006
L24389 33118
L24361 33174
L24305 33231
L24221 33259
L24080 33259
" />
<path d="M24670 33259
L24670 32668
" />
<path d="M25064 32668
L25177 32668
L25233 32696
L25289 32753
L25317 32865
L25317 33062
L25289 33174
L25233 33231
L25177 33259
L25064 33259
L25008 33231
L24952 33174
L24924 33062
L24924 32865
L24952 32753
L25008 32696
L25064 32668
" />
<path d="M25570 33259
L25570 32668
L25711 32668
L25795 32696
L25852 32753
L25880 32809
L25908 32921
L25908 33006
L25880 33118
L25852 33174
L25795 33231
L25711 33259
L25570 33259
" />
<path d="M26161 32949
L26358 32949
" />
<path d="M26442 33259
L26161 33259
L26161 32668
L26442 32668
" />
<path d="M41026 29721
L41110 29749
L41138 29777
L41167 29834
L41167 29918
L41138 29974
L41110 30002
L41054 30030
L40829 30030
L40829 29440
L41026 29440
L41082 29468
L41110 29496
L41138 29552
L41138 29609
L41110 29665
L41082 29693
L41026 29721
L40829 29721
" />
<path d="M41420 29440
L41420 29918
L41448 29974
L41476 30002
L41532 30030
L41645 30030
L41701 30002
L41729 29974
L41757 29918
L41757 29440
" />
<path d="M41954 29440
L42291 29440
" />
<path d="M42123 30030
L42123 29440
" />
<path d="M42404 29440
L42741 29440
" />
<path d="M42573 30030
L42573 29440
" />
<path d="M43051 29440
L43163 29440
L43219 29468
L43276 29524
L43304 29637
L43304 29834
L43276 29946
L43219 30002
L43163 30030
L43051 30030
L42994 30002
L42938 29946
L42910 29834
L42910 29637
L42938 29524
L42994 29468
L43051 29440
" />
<path d="M43557 30030
L43557 29440
L43894 30030
L43894 29440
" />
<path d="M32246 30784
L32331 30812
L32359 30840
L32387 30897
L32387 30981
L32359 31037
L32331 31065
L32275 31093
L32050 31093
L32050 30503
L32246 30503
L32303 30531
L32331 30559
L32359 30615
L32359 30672
L32331 30728
L32303 30756
L32246 30784
L32050 30784
" />
<path d="M32640 31093
L32640 30503
" />
<path d="M33231 30531
L33174 30503
L33090 30503
L33006 30531
L32949 30587
L32921 30643
L32893 30756
L32893 30840
L32921 30953
L32949 31009
L33006 31065
L33090 31093
L33146 31093
L33231 31065
L33259 31037
L33259 30840
L33146 30840
" />
<path d="M33962 31093
L33962 30503
L34102 30503
L34187 30531
L34243 30587
L34271 30643
L34299 30756
L34299 30840
L34271 30953
L34243 31009
L34187 31065
L34102 31093
L33962 31093
" />
<path d="M34552 31093
L34552 30503
" />
<path d="M34946 30503
L35059 30503
L35115 30531
L35171 30587
L35199 30700
L35199 30897
L35171 31009
L35115 31065
L35059 31093
L34946 31093
L34890 31065
L34834 31009
L34805 30897
L34805 30700
L34834 30587
L34890 30531
L34946 30503
" />
<path d="M35452 31093
L35452 30503
L35593 30503
L35677 30531
L35733 30587
L35762 30643
L35790 30756
L35790 30840
L35762 30953
L35733 31009
L35677 31065
L35593 31093
L35452 31093
" />
<path d="M36043 30784
L36240 30784
" />
<path d="M36324 31093
L36043 31093
L36043 30503
L36324 30503
" />
<path d="M26656 28298
L26656 27708
L26853 28129
L27050 27708
L27050 28298
" />
<path d="M27443 27708
L27556 27708
L27612 27736
L27668 27792
L27696 27904
L27696 28101
L27668 28214
L27612 28270
L27556 28298
L27443 28298
L27387 28270
L27331 28214
L27303 28101
L27303 27904
L27331 27792
L27387 27736
L27443 27708
" />
<path d="M27921 28270
L28006 28298
L28146 28298
L28203 28270
L28231 28242
L28259 28186
L28259 28129
L28231 28073
L28203 28045
L28146 28017
L28034 27989
L27978 27961
L27949 27933
L27921 27876
L27921 27820
L27949 27764
L27978 27736
L28034 27708
L28174 27708
L28259 27736
" />
<path d="M28709 27989
L28512 27989
" />
<path d="M28512 28298
L28512 27708
L28793 27708
" />
<path d="M29018 27989
L29215 27989
" />
<path d="M29299 28298
L29018 28298
L29018 27708
L29299 27708
" />
<path d="M29468 27708
L29805 27708
" />
<path d="M29637 28298
L29637 27708
" />
<path d="M35908 24597
L35908 24007
L36105 24429
L36302 24007
L36302 24597
" />
<path d="M36695 24007
L36808 24007
L36864 24035
L36920 24091
L36948 24204
L36948 24401
L36920 24513
L36864 24569
L36808 24597
L36695 24597
L36639 24569
L36583 24513
L36555 24401
L36555 24204
L36583 24091
L36639 24035
L36695 24007
" />
<path d="M37173 24569
L37258 24597
L37398 24597
L37455 24569
L37483 24541
L37511 24485
L37511 24429
L37483 24372
L37455 24344
L37398 24316
L37286 24288
L37230 24260
L37201 24232
L37173 24176
L37173 24119
L37201 24063
L37230 24035
L37286 24007
L37426 24007
L37511 24035
" />
<path d="M37961 24288
L37764 24288
" />
<path d="M37764 24597
L37764 24007
L38045 24007
" />
<path d="M38270 24288
L38467 24288
" />
<path d="M38551 24597
L38270 24597
L38270 24007
L38551 24007
" />
<path d="M38720 24007
L39057 24007
" />
<path d="M38889 24597
L38889 24007
" />
<path d="M40998 18422
L40801 18422
" />
<path d="M40801 18731
L40801 18141
L41082 18141
" />
<path d="M41307 18141
L41307 18619
L41335 18675
L41363 18703
L41420 18731
L41532 18731
L41588 18703
L41616 18675
L41645 18619
L41645 18141
" />
<path d="M41898 18703
L41982 18731
L42123 18731
L42179 18703
L42207 18675
L42235 18619
L42235 18562
L42207 18506
L42179 18478
L42123 18450
L42010 18422
L41954 18394
L41926 18366
L41898 18309
L41898 18253
L41926 18197
L41954 18169
L42010 18141
L42151 18141
L42235 18169
" />
<path d="M42488 18422
L42685 18422
" />
<path d="M42769 18731
L42488 18731
L42488 18141
L42769 18141
" />
<path d="M46881 24057
L46290 24057
L46290 23832
L46318 23776
L46347 23748
L46403 23720
L46487 23720
L46543 23748
L46571 23776
L46600 23832
L46600 24057
" />
<path d="M46290 23354
L46290 23242
L46318 23186
L46375 23129
L46487 23101
L46684 23101
L46796 23129
L46853 23186
L46881 23242
L46881 23354
L46853 23411
L46796 23467
L46684 23495
L46487 23495
L46375 23467
L46318 23411
L46290 23354
" />
<path d="M46290 22904
L46881 22764
L46459 22651
L46881 22539
L46290 22398
" />
<path d="M46571 22173
L46571 21976
" />
<path d="M46881 21892
L46881 22173
L46290 22173
L46290 21892
" />
<path d="M46881 21302
L46600 21498
" />
<path d="M46881 21639
L46290 21639
L46290 21414
L46318 21358
L46347 21330
L46403 21302
L46487 21302
L46543 21330
L46571 21358
L46600 21414
L46600 21639
" />
<path d="M46937 21189
L46937 20739
" />
<path d="M46853 20627
L46881 20542
L46881 20402
L46853 20345
L46825 20317
L46768 20289
L46712 20289
L46656 20317
L46628 20345
L46600 20402
L46571 20514
L46543 20570
L46515 20598
L46459 20627
L46403 20627
L46347 20598
L46318 20570
L46290 20514
L46290 20374
L46318 20289
" />
<path d="M46290 20092
L46881 19952
L46459 19839
L46881 19727
L46290 19586
" />
<path d="M33113 35587
L33197 35615
L33225 35643
L33253 35700
L33253 35784
L33225 35840
L33197 35868
L33141 35897
L32916 35897
L32916 35306
L33113 35306
L33169 35334
L33197 35362
L33225 35419
L33225 35475
L33197 35531
L33169 35559
L33113 35587
L32916 35587
" />
<path d="M33506 35306
L33506 35784
L33534 35840
L33562 35868
L33619 35897
L33731 35897
L33787 35868
L33816 35840
L33844 35784
L33844 35306
" />
<path d="M34041 35306
L34378 35306
" />
<path d="M34209 35897
L34209 35306
" />
<path d="M34491 35306
L34828 35306
" />
<path d="M34659 35897
L34659 35306
" />
<path d="M35137 35306
L35250 35306
L35306 35334
L35362 35390
L35390 35503
L35390 35700
L35362 35812
L35306 35868
L35250 35897
L35137 35897
L35081 35868
L35025 35812
L34997 35700
L34997 35503
L35025 35390
L35081 35334
L35137 35306
" />
<path d="M35643 35897
L35643 35306
L35981 35897
L35981 35306
" />
<path d="M18506 28776
L18591 28804
L18619 28832
L18647 28889
L18647 28973
L18619 29029
L18591 29057
L18534 29086
L18309 29086
L18309 28495
L18506 28495
L18562 28523
L18591 28551
L18619 28607
L18619 28664
L18591 28720
L18562 28748
L18506 28776
L18309 28776
" />
<path d="M18900 28495
L18900 28973
L18928 29029
L18956 29057
L19012 29086
L19125 29086
L19181 29057
L19209 29029
L19237 28973
L19237 28495
" />
<path d="M19434 28495
L19772 28495
" />
<path d="M19603 29086
L19603 28495
" />
<path d="M19884 28495
L20222 28495
" />
<path d="M20053 29086
L20053 28495
" />
<path d="M20531 28495
L20643 28495
L20700 28523
L20756 28579
L20784 28692
L20784 28889
L20756 29001
L20700 29057
L20643 29086
L20531 29086
L20475 29057
L20419 29001
L20390 28889
L20390 28692
L20419 28579
L20475 28523
L20531 28495
" />
<path d="M21037 29086
L21037 28495
L21375 29086
L21375 28495
" />
<path d="M23191 30705
L23276 30733
L23304 30762
L23332 30818
L23332 30902
L23304 30958
L23276 30987
L23219 31015
L22994 31015
L22994 30424
L23191 30424
L23248 30452
L23276 30480
L23304 30537
L23304 30593
L23276 30649
L23248 30677
L23191 30705
L22994 30705
" />
<path d="M23585 31015
L23585 30424
" />
<path d="M24176 30452
L24119 30424
L24035 30424
L23951 30452
L23894 30508
L23866 30565
L23838 30677
L23838 30762
L23866 30874
L23894 30930
L23951 30987
L24035 31015
L24091 31015
L24176 30987
L24204 30958
L24204 30762
L24091 30762
" />
<path d="M24907 31015
L24907 30424
L25047 30424
L25132 30452
L25188 30508
L25216 30565
L25244 30677
L25244 30762
L25216 30874
L25188 30930
L25132 30987
L25047 31015
L24907 31015
" />
<path d="M25497 31015
L25497 30424
" />
<path d="M25891 30424
L26003 30424
L26060 30452
L26116 30508
L26144 30621
L26144 30818
L26116 30930
L26060 30987
L26003 31015
L25891 31015
L25835 30987
L25778 30930
L25750 30818
L25750 30621
L25778 30508
L25835 30452
L25891 30424
" />
<path d="M26397 31015
L26397 30424
L26538 30424
L26622 30452
L26678 30508
L26706 30565
L26735 30677
L26735 30762
L26706 30874
L26678 30930
L26622 30987
L26538 31015
L26397 31015
" />
<path d="M26988 30705
L27185 30705
" />
<path d="M27269 31015
L26988 31015
L26988 30424
L27269 30424
" />
<path d="M47769 26369
L47488 26369
L47488 25778
" />
<path d="M47966 26060
L48163 26060
" />
<path d="M48248 26369
L47966 26369
L47966 25778
L48248 25778
" />
<path d="M48501 26369
L48501 25778
L48641 25778
L48726 25807
L48782 25863
L48810 25919
L48838 26032
L48838 26116
L48810 26228
L48782 26285
L48726 26341
L48641 26369
L48501 26369
" />
<path d="M33951 33652
L33669 33652
L33669 33062
" />
<path d="M34147 33343
L34344 33343
" />
<path d="M34429 33652
L34147 33652
L34147 33062
L34429 33062
" />
<path d="M34682 33652
L34682 33062
L34822 33062
L34907 33090
L34963 33146
L34991 33203
L35019 33315
L35019 33399
L34991 33512
L34963 33568
L34907 33624
L34822 33652
L34682 33652
" />
<path d="M20840 24204
L20559 24204
L20559 23613
" />
<path d="M21037 23894
L21234 23894
" />
<path d="M21318 24204
L21037 24204
L21037 23613
L21318 23613
" />
<path d="M21571 24204
L21571 23613
L21712 23613
L21796 23641
L21853 23697
L21881 23754
L21909 23866
L21909 23951
L21881 24063
L21853 24119
L21796 24176
L21712 24204
L21571 24204
" />
<path d="M52440 38141
L52778 38141
" />
<path d="M52609 38731
L52609 38141
" />
<path d="M52975 38422
L53172 38422
" />
<path d="M53256 38731
L52975 38731
L52975 38141
L53256 38141
" />
<path d="M53509 38731
L53509 38141
L53706 38562
L53903 38141
L53903 38731
" />
<path d="M54184 38731
L54184 38141
L54409 38141
L54465 38169
L54493 38197
L54521 38253
L54521 38338
L54493 38394
L54465 38422
L54409 38450
L54184 38450
" />
<path d="M55224 38731
L55224 38141
L55449 38141
L55506 38169
L55534 38197
L55562 38253
L55562 38338
L55534 38394
L55506 38422
L55449 38450
L55224 38450
" />
<path d="M56152 38731
L55956 38450
" />
<path d="M55815 38731
L55815 38141
L56040 38141
L56096 38169
L56124 38197
L56152 38253
L56152 38338
L56124 38394
L56096 38422
L56040 38450
L55815 38450
" />
<path d="M56518 38141
L56631 38141
L56687 38169
L56743 38225
L56771 38338
L56771 38534
L56743 38647
L56687 38703
L56631 38731
L56518 38731
L56462 38703
L56406 38647
L56377 38534
L56377 38338
L56406 38225
L56462 38169
L56518 38141
" />
<path d="M57221 38422
L57305 38450
L57334 38478
L57362 38534
L57362 38619
L57334 38675
L57305 38703
L57249 38731
L57024 38731
L57024 38141
L57221 38141
L57277 38169
L57305 38197
L57334 38253
L57334 38309
L57305 38366
L57277 38394
L57221 38422
L57024 38422
" />
<path d="M57615 38422
L57812 38422
" />
<path d="M57896 38731
L57615 38731
L57615 38141
L57896 38141
" />
</g>
<g style="fill:#C2C200; fill-opacity:0.0; 
stroke:#C2C200; stroke-width:59.0551; stroke-opacity:1; 
stroke-linecap:round; stroke-linejoin:round;">
<path d="M26325 24293
L26325 24105
" />
<path d="M26437 24330
L26044 24199
L26437 24068
" />
<path d="M26175 23937
L26437 23937
" />
<path d="M26212 23937
L26194 23918
L26175 23880
L26175 23824
L26194 23787
L26231 23768
L26437 23768
" />
<path d="M26437 23412
L26044 23412
" />
<path d="M26419 23412
L26437 23449
L26437 23524
L26419 23562
L26400 23580
L26362 23599
L26250 23599
L26212 23580
L26194 23562
L26175 23524
L26175 23449
L26194 23412
" />
<path d="M26419 23074
L26437 23112
L26437 23187
L26419 23224
L26381 23243
L26231 23243
L26194 23224
L26175 23187
L26175 23112
L26194 23074
L26231 23055
L26269 23055
L26306 23243
" />
<path d="M26437 22887
L26175 22887
" />
<path d="M26250 22887
L26212 22868
L26194 22849
L26175 22812
L26175 22774
" />
<path d="M26419 22662
L26437 22624
L26437 22549
L26419 22512
L26381 22493
L26362 22493
L26325 22512
L26306 22549
L26306 22605
L26287 22643
L26250 22662
L26231 22662
L26194 22643
L26175 22605
L26175 22549
L26194 22512
" />
<path d="M26437 22268
L26419 22305
L26400 22324
L26362 22343
L26250 22343
L26212 22324
L26194 22305
L26175 22268
L26175 22212
L26194 22174
L26212 22155
L26250 22137
L26362 22137
L26400 22155
L26419 22174
L26437 22212
L26437 22268
" />
<path d="M26175 21968
L26437 21968
" />
<path d="M26212 21968
L26194 21949
L26175 21912
L26175 21856
L26194 21818
L26231 21799
L26437 21799
" />
<path d="M26475 21706
L26475 21406
" />
<path d="M26175 21368
L26175 21218
" />
<path d="M26044 21312
L26381 21312
L26419 21293
L26437 21256
L26437 21218
" />
<path d="M26175 21124
L26437 21049
L26250 20974
L26437 20899
L26175 20824
" />
<path d="M26437 20618
L26419 20656
L26400 20674
L26362 20693
L26250 20693
L26212 20674
L26194 20656
L26175 20618
L26175 20562
L26194 20524
L26212 20506
L26250 20487
L26362 20487
L26400 20506
L26419 20524
L26437 20562
L26437 20618
" />
<path d="M26475 20412
L26475 20112
" />
<path d="M26437 20018
L26175 20018
" />
<path d="M26250 20018
L26212 20000
L26194 19981
L26175 19943
L26175 19906
" />
<path d="M26419 19625
L26437 19662
L26437 19737
L26419 19775
L26381 19793
L26231 19793
L26194 19775
L26175 19737
L26175 19662
L26194 19625
L26231 19606
L26269 19606
L26306 19793
" />
<path d="M26437 19268
L26044 19268
" />
<path d="M26419 19268
L26437 19306
L26437 19381
L26419 19418
L26400 19437
L26362 19456
L26250 19456
L26212 19437
L26194 19418
L26175 19381
L26175 19306
L26194 19268
" />
<path d="M26437 19081
L26044 19081
" />
<path d="M26194 19081
L26175 19043
L26175 18968
L26194 18931
L26212 18912
L26250 18893
L26362 18893
L26400 18912
L26419 18931
L26437 18968
L26437 19043
L26419 19081
" />
<path d="M26437 18668
L26419 18706
L26381 18725
L26044 18725
" />
<path d="M26437 18350
L26231 18350
L26194 18368
L26175 18406
L26175 18481
L26194 18518
" />
<path d="M26419 18350
L26437 18387
L26437 18481
L26419 18518
L26381 18537
L26344 18537
L26306 18518
L26287 18481
L26287 18387
L26269 18350
" />
<path d="M26419 17994
L26437 18031
L26437 18106
L26419 18143
L26400 18162
L26362 18181
L26250 18181
L26212 18162
L26194 18143
L26175 18106
L26175 18031
L26194 17994
" />
<path d="M26437 17825
L26044 17825
" />
<path d="M26287 17787
L26437 17675
" />
<path d="M26175 17675
L26325 17825
" />
<path d="M27335 34784
L27335 34390
L27485 34390
L27523 34409
L27542 34428
L27560 34465
L27560 34521
L27542 34559
L27523 34578
L27485 34596
L27335 34596
" />
<path d="M27804 34390
L27879 34390
L27917 34409
L27954 34446
L27973 34521
L27973 34653
L27954 34728
L27917 34765
L27879 34784
L27804 34784
L27767 34765
L27729 34728
L27710 34653
L27710 34521
L27729 34446
L27767 34409
L27804 34390
" />
<path d="M28085 34390
L28310 34390
" />
<path d="M28198 34784
L28198 34390
" />
<path d="M53333 24056
L53333 23869
" />
<path d="M53445 24094
L53052 23963
L53445 23832
" />
<path d="M53183 23700
L53445 23700
" />
<path d="M53220 23700
L53202 23682
L53183 23644
L53183 23588
L53202 23550
L53239 23532
L53445 23532
" />
<path d="M53445 23175
L53052 23175
" />
<path d="M53427 23175
L53445 23213
L53445 23288
L53427 23325
L53408 23344
L53370 23363
L53258 23363
L53220 23344
L53202 23325
L53183 23288
L53183 23213
L53202 23175
" />
<path d="M53427 22838
L53445 22875
L53445 22950
L53427 22988
L53389 23007
L53239 23007
L53202 22988
L53183 22950
L53183 22875
L53202 22838
L53239 22819
L53277 22819
L53314 23007
" />
<path d="M53445 22650
L53183 22650
" />
<path d="M53258 22650
L53220 22632
L53202 22613
L53183 22575
L53183 22538
" />
<path d="M53427 22425
L53445 22388
L53445 22313
L53427 22275
L53389 22257
L53370 22257
L53333 22275
L53314 22313
L53314 22369
L53295 22407
L53258 22425
L53239 22425
L53202 22407
L53183 22369
L53183 22313
L53202 22275
" />
<path d="M53445 22032
L53427 22069
L53408 22088
L53370 22107
L53258 22107
L53220 22088
L53202 22069
L53183 22032
L53183 21976
L53202 21938
L53220 21919
L53258 21901
L53370 21901
L53408 21919
L53427 21938
L53445 21976
L53445 22032
" />
<path d="M53183 21732
L53445 21732
" />
<path d="M53220 21732
L53202 21713
L53183 21676
L53183 21619
L53202 21582
L53239 21563
L53445 21563
" />
<path d="M53483 21469
L53483 21169
" />
<path d="M53183 21132
L53183 20982
" />
<path d="M53052 21076
L53389 21076
L53427 21057
L53445 21019
L53445 20982
" />
<path d="M53183 20888
L53445 20813
L53258 20738
L53445 20663
L53183 20588
" />
<path d="M53445 20382
L53427 20419
L53408 20438
L53370 20457
L53258 20457
L53220 20438
L53202 20419
L53183 20382
L53183 20326
L53202 20288
L53220 20269
L53258 20251
L53370 20251
L53408 20269
L53427 20288
L53445 20326
L53445 20382
" />
<path d="M53483 20176
L53483 19876
" />
<path d="M53445 19782
L53183 19782
" />
<path d="M53258 19782
L53220 19763
L53202 19745
L53183 19707
L53183 19670
" />
<path d="M53427 19388
L53445 19426
L53445 19501
L53427 19538
L53389 19557
L53239 19557
L53202 19538
L53183 19501
L53183 19426
L53202 19388
L53239 19370
L53277 19370
L53314 19557
" />
<path d="M53445 19032
L53052 19032
" />
<path d="M53427 19032
L53445 19070
L53445 19145
L53427 19182
L53408 19201
L53370 19220
L53258 19220
L53220 19201
L53202 19182
L53183 19145
L53183 19070
L53202 19032
" />
<path d="M53445 18845
L53052 18845
" />
<path d="M53202 18845
L53183 18807
L53183 18732
L53202 18695
L53220 18676
L53258 18657
L53370 18657
L53408 18676
L53427 18695
L53445 18732
L53445 18807
L53427 18845
" />
<path d="M53445 18432
L53427 18470
L53389 18488
L53052 18488
" />
<path d="M53445 18113
L53239 18113
L53202 18132
L53183 18170
L53183 18245
L53202 18282
" />
<path d="M53427 18113
L53445 18151
L53445 18245
L53427 18282
L53389 18301
L53352 18301
L53314 18282
L53295 18245
L53295 18151
L53277 18113
" />
<path d="M53427 17757
L53445 17795
L53445 17870
L53427 17907
L53408 17926
L53370 17945
L53258 17945
L53220 17926
L53202 17907
L53183 17870
L53183 17795
L53202 17757
" />
<path d="M53445 17589
L53052 17589
" />
<path d="M53295 17551
L53445 17439
" />
<path d="M53183 17439
L53333 17589
" />
<path d="M55729 30028
L55729 30253
" />
<path d="M55729 30140
L55335 30140
L55391 30178
L55429 30215
L55448 30253
" />
<path d="M55335 29784
L55335 29746
L55354 29709
L55373 29690
L55410 29671
L55485 29653
L55579 29653
L55654 29671
L55691 29690
L55710 29709
L55729 29746
L55729 29784
L55710 29821
L55691 29840
L55654 29859
L55579 29878
L55485 29878
L55410 29859
L55373 29840
L55354 29821
L55335 29784
" />
<path d="M55466 29315
L55729 29315
" />
<path d="M55466 29484
L55673 29484
L55710 29465
L55729 29428
L55729 29371
L55710 29334
L55691 29315
" />
<path d="M55523 28997
L55523 29128
" />
<path d="M55729 29128
L55335 29128
L55335 28940
" />
<path d="M54784 30234
L54784 30459
" />
<path d="M54784 30346
L54390 30346
L54446 30384
L54484 30421
L54503 30459
" />
<path d="M54521 29896
L54784 29896
" />
<path d="M54521 30065
L54728 30065
L54765 30046
L54784 30009
L54784 29953
L54765 29915
L54746 29896
" />
<path d="M54578 29578
L54578 29709
" />
<path d="M54784 29709
L54390 29709
L54390 29521
" />
<path d="M53997 30234
L53997 30459
" />
<path d="M53997 30346
L53603 30346
L53659 30384
L53697 30421
L53715 30459
" />
<path d="M53734 29896
L53997 29896
" />
<path d="M53734 30065
L53940 30065
L53978 30046
L53997 30009
L53997 29953
L53978 29915
L53959 29896
" />
<path d="M53790 29578
L53790 29709
" />
<path d="M53997 29709
L53603 29709
L53603 29521
" />
<path d="M40609 19775
L40665 19793
L40684 19812
L40703 19850
L40703 19906
L40684 19943
L40665 19962
L40628 19981
L40478 19981
L40478 19587
L40609 19587
L40646 19606
L40665 19625
L40684 19662
L40684 19700
L40665 19737
L40646 19756
L40609 19775
L40478 19775
" />
<path d="M40871 19981
L40871 19587
" />
<path d="M41096 19981
L40928 19756
" />
<path d="M41096 19587
L40871 19812
" />
<path d="M41265 19831
L41565 19831
" />
<path d="M41921 19587
L41846 19587
L41809 19606
L41790 19625
L41752 19681
L41734 19756
L41734 19906
L41752 19943
L41771 19962
L41809 19981
L41884 19981
L41921 19962
L41940 19943
L41959 19906
L41959 19812
L41940 19775
L41921 19756
L41884 19737
L41809 19737
L41771 19756
L41752 19775
L41734 19812
" />
<path d="M42202 19587
L42240 19587
L42277 19606
L42296 19625
L42315 19662
L42334 19737
L42334 19831
L42315 19906
L42296 19943
L42277 19962
L42240 19981
L42202 19981
L42165 19962
L42146 19943
L42127 19906
L42109 19831
L42109 19737
L42127 19662
L42146 19625
L42165 19606
L42202 19587
" />
<path d="M42709 19981
L42484 19981
" />
<path d="M42596 19981
L42596 19587
L42559 19643
L42521 19681
L42484 19700
" />
<path d="M42952 19587
L42990 19587
L43027 19606
L43046 19625
L43065 19662
L43083 19737
L43083 19831
L43065 19906
L43046 19943
L43027 19962
L42990 19981
L42952 19981
L42915 19962
L42896 19943
L42877 19906
L42859 19831
L42859 19737
L42877 19662
L42896 19625
L42915 19606
L42952 19587
" />
<path d="M34238 24332
L34238 24145
" />
<path d="M34351 24370
L33957 24238
L34351 24107
" />
<path d="M34088 23976
L34351 23976
" />
<path d="M34126 23976
L34107 23957
L34088 23920
L34088 23863
L34107 23826
L34145 23807
L34351 23807
" />
<path d="M34351 23451
L33957 23451
" />
<path d="M34332 23451
L34351 23488
L34351 23563
L34332 23601
L34313 23620
L34276 23638
L34163 23638
L34126 23620
L34107 23601
L34088 23563
L34088 23488
L34107 23451
" />
<path d="M34332 23113
L34351 23151
L34351 23226
L34332 23263
L34295 23282
L34145 23282
L34107 23263
L34088 23226
L34088 23151
L34107 23113
L34145 23095
L34182 23095
L34220 23282
" />
<path d="M34351 22926
L34088 22926
" />
<path d="M34163 22926
L34126 22907
L34107 22889
L34088 22851
L34088 22814
" />
<path d="M34332 22701
L34351 22664
L34351 22589
L34332 22551
L34295 22532
L34276 22532
L34238 22551
L34220 22589
L34220 22645
L34201 22682
L34163 22701
L34145 22701
L34107 22682
L34088 22645
L34088 22589
L34107 22551
" />
<path d="M34351 22307
L34332 22345
L34313 22364
L34276 22382
L34163 22382
L34126 22364
L34107 22345
L34088 22307
L34088 22251
L34107 22214
L34126 22195
L34163 22176
L34276 22176
L34313 22195
L34332 22214
L34351 22251
L34351 22307
" />
<path d="M34088 22007
L34351 22007
" />
<path d="M34126 22007
L34107 21989
L34088 21951
L34088 21895
L34107 21857
L34145 21839
L34351 21839
" />
<path d="M34388 21745
L34388 21445
" />
<path d="M34088 21407
L34088 21257
" />
<path d="M33957 21351
L34295 21351
L34332 21332
L34351 21295
L34351 21257
" />
<path d="M34088 21164
L34351 21089
L34163 21014
L34351 20939
L34088 20864
" />
<path d="M34351 20658
L34332 20695
L34313 20714
L34276 20733
L34163 20733
L34126 20714
L34107 20695
L34088 20658
L34088 20601
L34107 20564
L34126 20545
L34163 20526
L34276 20526
L34313 20545
L34332 20564
L34351 20601
L34351 20658
" />
<path d="M34388 20451
L34388 20151
" />
<path d="M34351 20058
L34088 20058
" />
<path d="M34163 20058
L34126 20039
L34107 20020
L34088 19983
L34088 19945
" />
<path d="M34332 19664
L34351 19701
L34351 19776
L34332 19814
L34295 19833
L34145 19833
L34107 19814
L34088 19776
L34088 19701
L34107 19664
L34145 19645
L34182 19645
L34220 19833
" />
<path d="M34351 19308
L33957 19308
" />
<path d="M34332 19308
L34351 19345
L34351 19420
L34332 19458
L34313 19476
L34276 19495
L34163 19495
L34126 19476
L34107 19458
L34088 19420
L34088 19345
L34107 19308
" />
<path d="M34351 19120
L33957 19120
" />
<path d="M34107 19120
L34088 19083
L34088 19008
L34107 18970
L34126 18952
L34163 18933
L34276 18933
L34313 18952
L34332 18970
L34351 19008
L34351 19083
L34332 19120
" />
<path d="M34351 18708
L34332 18745
L34295 18764
L33957 18764
" />
<path d="M34351 18389
L34145 18389
L34107 18408
L34088 18445
L34088 18520
L34107 18558
" />
<path d="M34332 18389
L34351 18427
L34351 18520
L34332 18558
L34295 18577
L34257 18577
L34220 18558
L34201 18520
L34201 18427
L34182 18389
" />
<path d="M34332 18033
L34351 18070
L34351 18145
L34332 18183
L34313 18202
L34276 18220
L34163 18220
L34126 18202
L34107 18183
L34088 18145
L34088 18070
L34107 18033
" />
<path d="M34351 17864
L33957 17864
" />
<path d="M34201 17827
L34351 17714
" />
<path d="M34088 17714
L34238 17864
" />
<path d="M62424 31466
L62442 31484
L62461 31541
L62461 31578
L62442 31634
L62405 31672
L62367 31691
L62292 31709
L62236 31709
L62161 31691
L62124 31672
L62086 31634
L62067 31578
L62067 31541
L62086 31484
L62105 31466
" />
<path d="M62067 31222
L62067 31147
L62086 31109
L62124 31072
L62199 31053
L62330 31053
L62405 31072
L62442 31109
L62461 31147
L62461 31222
L62442 31259
L62405 31297
L62330 31316
L62199 31316
L62124 31297
L62086 31259
L62067 31222
" />
<path d="M62461 30884
L62067 30884
L62461 30659
L62067 30659
" />
<path d="M62461 30472
L62067 30472
L62461 30247
L62067 30247
" />
<path d="M62499 30153
L62499 29853
" />
<path d="M62067 29685
L62067 29647
L62086 29610
L62105 29591
L62142 29572
L62217 29553
L62311 29553
L62386 29572
L62424 29591
L62442 29610
L62461 29647
L62461 29685
L62442 29722
L62424 29741
L62386 29760
L62311 29778
L62217 29778
L62142 29760
L62105 29741
L62086 29722
L62067 29685
" />
<path d="M62461 29178
L62461 29403
" />
<path d="M62461 29291
L62067 29291
L62124 29328
L62161 29366
L62180 29403
" />
<path d="M62067 29047
L62461 28785
" />
<path d="M62067 28785
L62461 29047
" />
<path d="M62067 28560
L62067 28522
L62086 28485
L62105 28466
L62142 28447
L62217 28428
L62311 28428
L62386 28447
L62424 28466
L62442 28485
L62461 28522
L62461 28560
L62442 28597
L62424 28616
L62386 28635
L62311 28653
L62217 28653
L62142 28635
L62105 28616
L62086 28597
L62067 28560
" />
<path d="M62236 28203
L62217 28241
L62199 28260
L62161 28278
L62142 28278
L62105 28260
L62086 28241
L62067 28203
L62067 28128
L62086 28091
L62105 28072
L62142 28053
L62161 28053
L62199 28072
L62217 28091
L62236 28128
L62236 28203
L62255 28241
L62274 28260
L62311 28278
L62386 28278
L62424 28260
L62442 28241
L62461 28203
L62461 28128
L62442 28091
L62424 28072
L62386 28053
L62311 28053
L62274 28072
L62255 28091
L62236 28128
" />
<path d="M30172 29758
L30172 30020
" />
<path d="M30078 29608
L29985 29889
L30228 29889
" />
<path d="M30341 29626
L30603 29626
L30434 30020
" />
<path d="M30828 29626
L30866 29626
L30903 29645
L30922 29664
L30941 29701
L30959 29776
L30959 29870
L30941 29945
L30922 29983
L30903 30001
L30866 30020
L30828 30020
L30791 30001
L30772 29983
L30753 29945
L30734 29870
L30734 29776
L30753 29701
L30772 29664
L30791 29645
L30828 29626
" />
<path d="M30297 27422
L30072 27422
" />
<path d="M30184 27422
L30184 27028
L30147 27084
L30109 27122
L30072 27140
" />
<path d="M30540 27028
L30578 27028
L30615 27047
L30634 27065
L30653 27103
L30672 27178
L30672 27272
L30653 27347
L30634 27384
L30615 27403
L30578 27422
L30540 27422
L30503 27403
L30484 27384
L30465 27347
L30447 27272
L30447 27178
L30465 27103
L30484 27065
L30503 27047
L30540 27028
" />
<path d="M30840 27422
L30840 27028
" />
<path d="M30878 27272
L30990 27422
" />
<path d="M30990 27159
L30840 27309
" />
<path d="M37632 28685
L37894 28685
" />
<path d="M37482 28779
L37763 28873
L37763 28629
" />
<path d="M37500 28517
L37500 28254
L37894 28423
" />
<path d="M37500 28029
L37500 27992
L37519 27954
L37538 27935
L37575 27917
L37650 27898
L37744 27898
L37819 27917
L37857 27935
L37875 27954
L37894 27992
L37894 28029
L37875 28067
L37857 28085
L37819 28104
L37744 28123
L37650 28123
L37575 28104
L37538 28085
L37519 28067
L37500 28029
" />
<path d="M51162 33863
L51162 33620
L51312 33751
L51312 33695
L51331 33657
L51349 33638
L51387 33620
L51481 33620
L51518 33638
L51537 33657
L51556 33695
L51556 33807
L51537 33845
L51518 33863
" />
<path d="M51162 33488
L51162 33245
L51312 33376
L51312 33320
L51331 33282
L51349 33263
L51387 33245
L51481 33245
L51518 33263
L51537 33282
L51556 33320
L51556 33432
L51537 33470
L51518 33488
" />
<path d="M51556 33076
L51162 33076
" />
<path d="M51406 33038
L51556 32926
" />
<path d="M51293 32926
L51443 33076
" />
<path d="M53878 33639
L53878 33864
" />
<path d="M53878 33752
L53485 33752
L53541 33789
L53578 33827
L53597 33864
" />
<path d="M53485 33396
L53485 33358
L53503 33321
L53522 33302
L53560 33283
L53635 33264
L53728 33264
L53803 33283
L53841 33302
L53860 33321
L53878 33358
L53878 33396
L53860 33433
L53841 33452
L53803 33471
L53728 33489
L53635 33489
L53560 33471
L53522 33452
L53503 33433
L53485 33396
" />
<path d="M53878 33096
L53485 33096
" />
<path d="M53728 33058
L53878 32946
" />
<path d="M53616 32946
L53766 33096
" />
<path d="M38760 27104
L38760 27329
" />
<path d="M38760 27216
L38367 27216
L38423 27254
L38460 27291
L38479 27329
" />
<path d="M38367 26860
L38367 26823
L38385 26785
L38404 26766
L38442 26748
L38517 26729
L38610 26729
L38685 26748
L38723 26766
L38742 26785
L38760 26823
L38760 26860
L38742 26898
L38723 26916
L38685 26935
L38610 26954
L38517 26954
L38442 26935
L38404 26916
L38385 26898
L38367 26860
" />
<path d="M38760 26560
L38367 26560
" />
<path d="M38610 26523
L38760 26410
" />
<path d="M38498 26410
L38648 26560
" />
<path d="M41942 24626
L41942 24233
L42092 24233
L42129 24251
L42148 24270
L42167 24308
L42167 24364
L42148 24401
L42129 24420
L42092 24439
L41942 24439
" />
<path d="M42410 24233
L42485 24233
L42523 24251
L42560 24289
L42579 24364
L42579 24495
L42560 24570
L42523 24608
L42485 24626
L42410 24626
L42373 24608
L42335 24570
L42317 24495
L42317 24364
L42335 24289
L42373 24251
L42410 24233
" />
<path d="M42692 24233
L42917 24233
" />
<path d="M42804 24626
L42804 24233
" />
<path d="M32793 38012
L32793 37619
" />
<path d="M33018 38012
L32849 37787
" />
<path d="M33018 37619
L32793 37844
" />
<path d="M33168 37994
L33224 38012
L33318 38012
L33355 37994
L33374 37975
L33393 37937
L33393 37900
L33374 37862
L33355 37844
L33318 37825
L33243 37806
L33205 37787
L33187 37769
L33168 37731
L33168 37694
L33187 37656
L33205 37637
L33243 37619
L33337 37619
L33393 37637
" />
<path d="M33562 37862
L33862 37862
" />
<path d="M34124 37619
L34161 37619
L34199 37637
L34218 37656
L34236 37694
L34255 37769
L34255 37862
L34236 37937
L34218 37975
L34199 37994
L34161 38012
L34124 38012
L34086 37994
L34068 37975
L34049 37937
L34030 37862
L34030 37769
L34049 37694
L34068 37656
L34086 37637
L34124 37619
" />
<path d="M34630 38012
L34405 38012
" />
<path d="M34518 38012
L34518 37619
L34480 37675
L34443 37712
L34405 37731
" />
<path d="M35061 38050
L35024 38031
L34986 37994
L34930 37937
L34893 37919
L34855 37919
" />
<path d="M34874 38012
L34836 37994
L34799 37956
L34780 37881
L34780 37750
L34799 37675
L34836 37637
L34874 37619
L34949 37619
L34986 37637
L35024 37675
L35043 37750
L35043 37881
L35024 37956
L34986 37994
L34949 38012
L34874 38012
" />
<path d="M35211 37862
L35511 37862
" />
<path d="M35774 37619
L35811 37619
L35849 37637
L35868 37656
L35886 37694
L35905 37769
L35905 37862
L35886 37937
L35868 37975
L35849 37994
L35811 38012
L35774 38012
L35736 37994
L35718 37975
L35699 37937
L35680 37862
L35680 37769
L35699 37694
L35718 37656
L35736 37637
L35774 37619
" />
<path d="M36280 38012
L36055 38012
" />
<path d="M36167 38012
L36167 37619
L36130 37675
L36092 37712
L36055 37731
" />
<path d="M40746 31831
L40746 31437
" />
<path d="M40971 31831
L40802 31606
" />
<path d="M40971 31437
L40746 31662
" />
<path d="M41121 31812
L41177 31831
L41271 31831
L41308 31812
L41327 31794
L41346 31756
L41346 31719
L41327 31681
L41308 31662
L41271 31644
L41196 31625
L41158 31606
L41139 31587
L41121 31550
L41121 31512
L41139 31475
L41158 31456
L41196 31437
L41289 31437
L41346 31456
" />
<path d="M41514 31681
L41814 31681
" />
<path d="M42077 31437
L42114 31437
L42152 31456
L42170 31475
L42189 31512
L42208 31587
L42208 31681
L42189 31756
L42170 31794
L42152 31812
L42114 31831
L42077 31831
L42039 31812
L42020 31794
L42002 31756
L41983 31681
L41983 31587
L42002 31512
L42020 31475
L42039 31456
L42077 31437
" />
<path d="M42583 31831
L42358 31831
" />
<path d="M42470 31831
L42470 31437
L42433 31494
L42395 31531
L42358 31550
" />
<path d="M43014 31869
L42977 31850
L42939 31812
L42883 31756
L42845 31737
L42808 31737
" />
<path d="M42827 31831
L42789 31812
L42752 31775
L42733 31700
L42733 31569
L42752 31494
L42789 31456
L42827 31437
L42902 31437
L42939 31456
L42977 31494
L42995 31569
L42995 31700
L42977 31775
L42939 31812
L42902 31831
L42827 31831
" />
<path d="M43164 31681
L43464 31681
" />
<path d="M43727 31437
L43764 31437
L43802 31456
L43820 31475
L43839 31512
L43858 31587
L43858 31681
L43839 31756
L43820 31794
L43802 31812
L43764 31831
L43727 31831
L43689 31812
L43670 31794
L43652 31756
L43633 31681
L43633 31587
L43652 31512
L43670 31475
L43689 31456
L43727 31437
" />
<path d="M44233 31831
L44008 31831
" />
<path d="M44120 31831
L44120 31437
L44083 31494
L44045 31531
L44008 31550
" />
<path d="M48820 22615
L48839 22559
L48839 22465
L48820 22427
L48802 22409
L48764 22390
L48727 22390
L48689 22409
L48670 22427
L48652 22465
L48633 22540
L48614 22577
L48595 22596
L48558 22615
L48520 22615
L48483 22596
L48464 22577
L48445 22540
L48445 22446
L48464 22390
" />
<path d="M48839 22221
L48445 22221
L48445 22071
L48464 22034
L48483 22015
L48520 21996
L48577 21996
L48614 22015
L48633 22034
L48652 22071
L48652 22221
" />
<path d="M48820 21846
L48839 21790
L48839 21696
L48820 21659
L48802 21640
L48764 21621
L48727 21621
L48689 21640
L48670 21659
L48652 21696
L48633 21771
L48614 21809
L48595 21827
L48558 21846
L48520 21846
L48483 21827
L48464 21809
L48445 21771
L48445 21677
L48464 21621
" />
<path d="M48445 21509
L48445 21284
" />
<path d="M48839 21396
L48445 21396
" />
<path d="M50973 31339
L50973 30945
L51105 31227
L51236 30945
L51236 31339
" />
<path d="M51423 31339
L51423 30945
" />
<path d="M51836 31302
L51817 31320
L51761 31339
L51723 31339
L51667 31320
L51630 31283
L51611 31245
L51592 31170
L51592 31114
L51611 31039
L51630 31002
L51667 30964
L51723 30945
L51761 30945
L51817 30964
L51836 30983
" />
<path d="M52192 30945
L52005 30945
L51986 31133
L52005 31114
L52042 31095
L52136 31095
L52173 31114
L52192 31133
L52211 31170
L52211 31264
L52192 31302
L52173 31320
L52136 31339
L52042 31339
L52005 31320
L51986 31302
" />
<path d="M52361 30983
L52380 30964
L52417 30945
L52511 30945
L52548 30964
L52567 30983
L52586 31020
L52586 31058
L52567 31114
L52342 31339
L52586 31339
" />
<path d="M52829 30945
L52867 30945
L52904 30964
L52923 30983
L52942 31020
L52961 31095
L52961 31189
L52942 31264
L52923 31302
L52904 31320
L52867 31339
L52829 31339
L52792 31320
L52773 31302
L52754 31264
L52736 31189
L52736 31095
L52754 31020
L52773 30983
L52792 30964
L52829 30945
" />
<path d="M53092 30945
L53336 30945
L53204 31095
L53261 31095
L53298 31114
L53317 31133
L53336 31170
L53336 31264
L53317 31302
L53298 31320
L53261 31339
L53148 31339
L53111 31320
L53092 31302
" />
</g>
<g style="fill:#000000; fill-opacity:0.0; 
stroke:#000000; stroke-width:59.0551; stroke-opacity:1; 
stroke-linecap:round; stroke-linejoin:round;">
</g>
<g style="fill:#C2C2C2; fill-opacity:0.0; 
stroke:#C2C2C2; stroke-width:59.0551; stroke-opacity:1; 
stroke-linecap:round; stroke-linejoin:round;">
</g>
<g style="fill:#C2C2C2; fill-opacity:0.0; 
stroke:#C2C2C2; stroke-width:50; stroke-opacity:1; 
stroke-linecap:round; stroke-linejoin:round;">
<path d="M19822 32677
L19822 35433
" />
<path d="M20157 33070
L20157 35551
" />
<path d="M20157 35551
L19173 35551
" />
<path d="M19173 35551
L19173 35905
" />
<path d="M19173 35905
L18228 35905
" />
<path d="M18228 35905
L18228 35748
" />
<path d="M18228 35748
L17440 35748
" />
<path d="M17440 35748
L17440 32362
" />
<path d="M17440 32362
L18228 32362
" />
<path d="M18228 32362
L18228 32204
" />
<path d="M18228 32204
L19173 32204
" />
<path d="M19173 32204
L19173 32559
" />
<path d="M19173 32559
L20157 32559
" />
<path d="M20157 32559
L20157 33346
" />
</g>
<g style="fill:#C2C2C2; fill-opacity:0.0; 
stroke:#C2C2C2; stroke-width:59.0551; stroke-opacity:1; 
stroke-linecap:round; stroke-linejoin:round;">
<path d="M26322 15255
L26125 15059
" />
<path d="M26519 15059
L26322 15255
" />
<path d="M26322 15255
L26519 15059
" />
<path d="M26322 13976
L26322 15255
" />
<path d="M53362 15255
L53165 15059
" />
<path d="M53559 15059
L53362 15255
" />
<path d="M53362 15255
L53559 15059
" />
<path d="M53362 13976
L53362 15255
" />
<path d="M34248 15255
L34051 15059
" />
<path d="M34444 15059
L34248 15255
" />
<path d="M34248 15255
L34444 15059
" />
<path d="M34248 13976
L34248 15255
" />
</g>
<g style="fill:#C2C2C2; fill-opacity:0.0; 
stroke:#C2C2C2; stroke-width:26; stroke-opacity:1; 
stroke-linecap:round; stroke-linejoin:round;">
<path d="M18996 29647
L19075 29647
" />
<path d="M19075 29647
L19075 29410
" />
<path d="M18996 29410
L19075 29410
" />
<path d="M18996 29647
L18996 29410
" />
<path d="M18996 30276
L19075 30276
" />
<path d="M19075 30276
L19075 30039
" />
<path d="M18996 30039
L19075 30039
" />
<path d="M18996 30276
L18996 30039
" />
<path d="M20727 30276
L20806 30276
" />
<path d="M20806 30276
L20806 30039
" />
<path d="M20727 30039
L20806 30039
" />
<path d="M20727 30276
L20727 30039
" />
<path d="M20727 29647
L20806 29647
" />
<path d="M20806 29647
L20806 29410
" />
<path d="M20727 29410
L20806 29410
" />
<path d="M20727 29647
L20727 29410
" />
</g>
<g style="fill:#C2C2C2; fill-opacity:0.0; 
stroke:#C2C2C2; stroke-width:50; stroke-opacity:1; 
stroke-linecap:round; stroke-linejoin:round;">
<path d="M19075 29292
L19075 30394
" />
<path d="M20727 30394
L20727 29292
" />
<path d="M19075 29292
L20727 29292
" />
<path d="M19075 30394
L20727 30394
" />
<path d="M37834 24763
L38622 24763
" />
<path d="M38622 24763
L38622 25551
" />
<path d="M38622 25551
L37834 25551
" />
<path d="M37834 25551
L37834 24763
" />
<path d="M28090 28454
L28877 28454
" />
<path d="M28877 28454
L28877 29242
" />
<path d="M28877 29242
L28090 29242
" />
<path d="M28090 29242
L28090 28454
" />
</g>
<g style="fill:#000000; fill-opacity:0.0; 
stroke:#000000; stroke-width:50; stroke-opacity:1; 
stroke-linecap:round; stroke-linejoin:round;">
</g>
<g style="fill:#C2C200; fill-opacity:0.0; 
stroke:#C2C200; stroke-width:50; stroke-opacity:1; 
stroke-linecap:round; stroke-linejoin:round;">
</g>
<g style="fill:#C2C200; fill-opacity:0.0; 
stroke:#C2C200; stroke-width:59.0551; stroke-opacity:1; 
stroke-linecap:round; stroke-linejoin:round;">
<path d="M18110 40944
L18110 17322
" />
<path d="M62992 40944
L18110 40944
" />
<path d="M62992 17322
L62992 40944
" />
<path d="M18110 17322
L62992 17322
" />
</g> 
</svg>
