%TF.GenerationSoftware,KiCad,Pcbnew,6.0.4-6f826c9f35~116~ubuntu20.04.1*%
%TF.CreationDate,2022-04-23T21:57:52-06:00*%
%TF.ProjectId,hvac-v2,68766163-2d76-4322-9e6b-696361645f70,rev?*%
%TF.SameCoordinates,Original*%
%TF.FileFunction,Soldermask,Bot*%
%TF.FilePolarity,Negative*%
%FSLAX46Y46*%
G04 Gerber Fmt 4.6, Leading zero omitted, Abs format (unit mm)*
G04 Created by KiCad (PCBNEW 6.0.4-6f826c9f35~116~ubuntu20.04.1) date 2022-04-23 21:57:52*
%MOMM*%
%LPD*%
G01*
G04 APERTURE LIST*
%ADD10R,1.700000X1.700000*%
%ADD11O,1.700000X1.700000*%
%ADD12C,1.700000*%
%ADD13R,2.000000X2.000000*%
%ADD14C,2.000000*%
%ADD15R,3.200000X3.200000*%
%ADD16O,3.200000X3.200000*%
%ADD17C,2.625000*%
%ADD18C,3.706000*%
%ADD19C,4.500000*%
%ADD20O,6.030000X2.070000*%
%ADD21O,3.000000X3.500000*%
%ADD22R,1.050000X1.500000*%
%ADD23O,1.050000X1.500000*%
%ADD24O,2.000000X8.000000*%
G04 APERTURE END LIST*
D10*
%TO.C,J2*%
X143600000Y-65200000D03*
D11*
X143600000Y-67740000D03*
X143600000Y-70280000D03*
X143600000Y-72820000D03*
%TD*%
D10*
%TO.C,J14*%
X119300000Y-68200000D03*
D11*
X121840000Y-68200000D03*
X124380000Y-68200000D03*
X126920000Y-68200000D03*
%TD*%
D12*
%TO.C,BZ1*%
X97300000Y-102300000D03*
X97300000Y-107300000D03*
%TD*%
D13*
%TO.C,C19*%
X54400000Y-113000000D03*
D14*
X49400000Y-113000000D03*
%TD*%
D13*
%TO.C,C39*%
X81100000Y-107800000D03*
D14*
X81100000Y-112800000D03*
%TD*%
D15*
%TO.C,D8*%
X55500000Y-122400000D03*
D16*
X42800000Y-122400000D03*
%TD*%
D15*
%TO.C,D9*%
X55500000Y-128700000D03*
D16*
X42800000Y-128700000D03*
%TD*%
D15*
%TO.C,D16*%
X61200000Y-120600000D03*
D16*
X61200000Y-107900000D03*
%TD*%
D15*
%TO.C,D17*%
X119300000Y-129100000D03*
D16*
X106600000Y-129100000D03*
%TD*%
D15*
%TO.C,D18*%
X139300000Y-129100000D03*
D16*
X126600000Y-129100000D03*
%TD*%
D17*
%TO.C,F1*%
X67250000Y-139650000D03*
D18*
X67250000Y-149950000D03*
X76150000Y-149950000D03*
D17*
X76150000Y-139650000D03*
%TD*%
D19*
%TO.C,H1*%
X35000000Y-147000000D03*
%TD*%
%TO.C,H2*%
X150000000Y-64000000D03*
%TD*%
%TO.C,H3*%
X150000000Y-147000000D03*
%TD*%
%TO.C,H4*%
X35000000Y-104000000D03*
%TD*%
D10*
%TO.C,J3*%
X150900000Y-133800000D03*
D11*
X150900000Y-136340000D03*
%TD*%
D20*
%TO.C,J4*%
X53150000Y-134500000D03*
X45250000Y-134500000D03*
%TD*%
D10*
%TO.C,J5*%
X150900000Y-114600000D03*
D11*
X150900000Y-117140000D03*
X150900000Y-119680000D03*
%TD*%
D10*
%TO.C,J6*%
X150900000Y-124200000D03*
D11*
X150900000Y-126740000D03*
X150900000Y-129280000D03*
%TD*%
D20*
%TO.C,J7*%
X116850000Y-133900000D03*
X108950000Y-133900000D03*
%TD*%
%TO.C,J8*%
X136850000Y-133900000D03*
X128950000Y-133900000D03*
%TD*%
D10*
%TO.C,J9*%
X150900000Y-100400000D03*
D11*
X150900000Y-102940000D03*
%TD*%
D10*
%TO.C,J10*%
X150900000Y-107500000D03*
D11*
X150900000Y-110040000D03*
%TD*%
D10*
%TO.C,J12*%
X150900000Y-81100000D03*
D11*
X150900000Y-83640000D03*
X150900000Y-86180000D03*
%TD*%
D10*
%TO.C,J13*%
X150900000Y-90800000D03*
D11*
X150900000Y-93340000D03*
X150900000Y-95880000D03*
%TD*%
D14*
%TO.C,SW2*%
X125500000Y-86500000D03*
X130500000Y-86500000D03*
X128000000Y-86500000D03*
X125500000Y-72000000D03*
X130500000Y-72000000D03*
D21*
X133600000Y-79000000D03*
X122400000Y-79000000D03*
%TD*%
D22*
%TO.C,U5*%
X144900000Y-138900000D03*
D23*
X146170000Y-138900000D03*
X147440000Y-138900000D03*
%TD*%
D20*
%TO.C,J1*%
X97050000Y-133900000D03*
X89150000Y-133900000D03*
%TD*%
D15*
%TO.C,D3*%
X99500000Y-129100000D03*
D16*
X86800000Y-129100000D03*
%TD*%
D10*
%TO.C,J11*%
X150900000Y-71500000D03*
D11*
X150900000Y-74040000D03*
X150900000Y-76580000D03*
%TD*%
D19*
%TO.C,H5*%
X117400000Y-93900000D03*
%TD*%
D24*
%TO.C,H6*%
X142100000Y-138800000D03*
%TD*%
D15*
%TO.C,D25*%
X34700000Y-124350000D03*
D16*
X34700000Y-111650000D03*
%TD*%
M02*
