G04 #@! TF.FileFunction,Legend,Top*
%FSLAX46Y46*%
G04 Gerber Fmt 4.6, Leading zero omitted, Abs format (unit mm)*
G04 Created by KiCad (PCBNEW 4.0.7-e2-6376~61~ubuntu18.04.1) date Tue Jul 31 18:43:04 2018*
%MOMM*%
%LPD*%
G01*
G04 APERTURE LIST*
%ADD10C,0.100000*%
%ADD11C,0.300000*%
%ADD12C,0.200000*%
%ADD13C,0.127000*%
%ADD14C,0.203200*%
%ADD15C,0.150000*%
%ADD16C,0.066040*%
%ADD17C,0.101600*%
G04 APERTURE END LIST*
D10*
D11*
X119035714Y-71678571D02*
X119035714Y-70178571D01*
X119607142Y-70178571D01*
X119750000Y-70250000D01*
X119821428Y-70321429D01*
X119892857Y-70464286D01*
X119892857Y-70678571D01*
X119821428Y-70821429D01*
X119750000Y-70892857D01*
X119607142Y-70964286D01*
X119035714Y-70964286D01*
X120821428Y-70178571D02*
X121107142Y-70178571D01*
X121250000Y-70250000D01*
X121392857Y-70392857D01*
X121464285Y-70678571D01*
X121464285Y-71178571D01*
X121392857Y-71464286D01*
X121250000Y-71607143D01*
X121107142Y-71678571D01*
X120821428Y-71678571D01*
X120678571Y-71607143D01*
X120535714Y-71464286D01*
X120464285Y-71178571D01*
X120464285Y-70678571D01*
X120535714Y-70392857D01*
X120678571Y-70250000D01*
X120821428Y-70178571D01*
X121964286Y-70178571D02*
X122321429Y-71678571D01*
X122607143Y-70607143D01*
X122892857Y-71678571D01*
X123250000Y-70178571D01*
X123821429Y-70892857D02*
X124321429Y-70892857D01*
X124535715Y-71678571D02*
X123821429Y-71678571D01*
X123821429Y-70178571D01*
X124535715Y-70178571D01*
X126035715Y-71678571D02*
X125535715Y-70964286D01*
X125178572Y-71678571D02*
X125178572Y-70178571D01*
X125750000Y-70178571D01*
X125892858Y-70250000D01*
X125964286Y-70321429D01*
X126035715Y-70464286D01*
X126035715Y-70678571D01*
X125964286Y-70821429D01*
X125892858Y-70892857D01*
X125750000Y-70964286D01*
X125178572Y-70964286D01*
X51214286Y-64678571D02*
X51571429Y-66178571D01*
X51857143Y-65107143D01*
X52142857Y-66178571D01*
X52500000Y-64678571D01*
X53000000Y-65750000D02*
X53714286Y-65750000D01*
X52857143Y-66178571D02*
X53357143Y-64678571D01*
X53857143Y-66178571D01*
X54142857Y-64678571D02*
X55000000Y-64678571D01*
X54571429Y-66178571D02*
X54571429Y-64678571D01*
X55500000Y-65392857D02*
X56000000Y-65392857D01*
X56214286Y-66178571D02*
X55500000Y-66178571D01*
X55500000Y-64678571D01*
X56214286Y-64678571D01*
X57714286Y-66178571D02*
X57214286Y-65464286D01*
X56857143Y-66178571D02*
X56857143Y-64678571D01*
X57428571Y-64678571D01*
X57571429Y-64750000D01*
X57642857Y-64821429D01*
X57714286Y-64964286D01*
X57714286Y-65178571D01*
X57642857Y-65321429D01*
X57571429Y-65392857D01*
X57428571Y-65464286D01*
X56857143Y-65464286D01*
X113214286Y-74607143D02*
X113428572Y-74678571D01*
X113785715Y-74678571D01*
X113928572Y-74607143D01*
X114000001Y-74535714D01*
X114071429Y-74392857D01*
X114071429Y-74250000D01*
X114000001Y-74107143D01*
X113928572Y-74035714D01*
X113785715Y-73964286D01*
X113500001Y-73892857D01*
X113357143Y-73821429D01*
X113285715Y-73750000D01*
X113214286Y-73607143D01*
X113214286Y-73464286D01*
X113285715Y-73321429D01*
X113357143Y-73250000D01*
X113500001Y-73178571D01*
X113857143Y-73178571D01*
X114071429Y-73250000D01*
X114714286Y-74678571D02*
X114714286Y-73178571D01*
X115285714Y-73178571D01*
X115428572Y-73250000D01*
X115500000Y-73321429D01*
X115571429Y-73464286D01*
X115571429Y-73678571D01*
X115500000Y-73821429D01*
X115428572Y-73892857D01*
X115285714Y-73964286D01*
X114714286Y-73964286D01*
X116214286Y-73892857D02*
X116714286Y-73892857D01*
X116928572Y-74678571D02*
X116214286Y-74678571D01*
X116214286Y-73178571D01*
X116928572Y-73178571D01*
X117571429Y-73892857D02*
X118071429Y-73892857D01*
X118285715Y-74678571D02*
X117571429Y-74678571D01*
X117571429Y-73178571D01*
X118285715Y-73178571D01*
X118928572Y-74678571D02*
X118928572Y-73178571D01*
X119285715Y-73178571D01*
X119500000Y-73250000D01*
X119642858Y-73392857D01*
X119714286Y-73535714D01*
X119785715Y-73821429D01*
X119785715Y-74035714D01*
X119714286Y-74321429D01*
X119642858Y-74464286D01*
X119500000Y-74607143D01*
X119285715Y-74678571D01*
X118928572Y-74678571D01*
X105642857Y-87250000D02*
X106357143Y-87250000D01*
X105500000Y-87678571D02*
X106000000Y-86178571D01*
X106500000Y-87678571D01*
X107000000Y-86178571D02*
X107000000Y-87392857D01*
X107071428Y-87535714D01*
X107142857Y-87607143D01*
X107285714Y-87678571D01*
X107571428Y-87678571D01*
X107714286Y-87607143D01*
X107785714Y-87535714D01*
X107857143Y-87392857D01*
X107857143Y-86178571D01*
X108428572Y-86178571D02*
X109428572Y-87678571D01*
X109428572Y-86178571D02*
X108428572Y-87678571D01*
X67785714Y-103178571D02*
X67785714Y-101678571D01*
X68285714Y-102750000D01*
X68785714Y-101678571D01*
X68785714Y-103178571D01*
X69785714Y-101678571D02*
X70071428Y-101678571D01*
X70214286Y-101750000D01*
X70357143Y-101892857D01*
X70428571Y-102178571D01*
X70428571Y-102678571D01*
X70357143Y-102964286D01*
X70214286Y-103107143D01*
X70071428Y-103178571D01*
X69785714Y-103178571D01*
X69642857Y-103107143D01*
X69500000Y-102964286D01*
X69428571Y-102678571D01*
X69428571Y-102178571D01*
X69500000Y-101892857D01*
X69642857Y-101750000D01*
X69785714Y-101678571D01*
X71071429Y-103178571D02*
X71071429Y-101678571D01*
X71428572Y-101678571D01*
X71642857Y-101750000D01*
X71785715Y-101892857D01*
X71857143Y-102035714D01*
X71928572Y-102321429D01*
X71928572Y-102535714D01*
X71857143Y-102821429D01*
X71785715Y-102964286D01*
X71642857Y-103107143D01*
X71428572Y-103178571D01*
X71071429Y-103178571D01*
X72571429Y-102392857D02*
X73071429Y-102392857D01*
X73285715Y-103178571D02*
X72571429Y-103178571D01*
X72571429Y-101678571D01*
X73285715Y-101678571D01*
X85678572Y-103178571D02*
X85678572Y-101678571D01*
X86535715Y-103178571D01*
X86535715Y-101678571D01*
X87178572Y-102750000D02*
X87892858Y-102750000D01*
X87035715Y-103178571D02*
X87535715Y-101678571D01*
X88035715Y-103178571D01*
X88535715Y-103178571D02*
X88535715Y-101678571D01*
X89107143Y-101678571D01*
X89250001Y-101750000D01*
X89321429Y-101821429D01*
X89392858Y-101964286D01*
X89392858Y-102178571D01*
X89321429Y-102321429D01*
X89250001Y-102392857D01*
X89107143Y-102464286D01*
X88535715Y-102464286D01*
X157678571Y-84542857D02*
X159178571Y-84185714D01*
X158107143Y-83900000D01*
X159178571Y-83614286D01*
X157678571Y-83257143D01*
X157750000Y-87007143D02*
X157678571Y-87150000D01*
X157678571Y-87364286D01*
X157750000Y-87578571D01*
X157892857Y-87721429D01*
X158035714Y-87792857D01*
X158321429Y-87864286D01*
X158535714Y-87864286D01*
X158821429Y-87792857D01*
X158964286Y-87721429D01*
X159107143Y-87578571D01*
X159178571Y-87364286D01*
X159178571Y-87221429D01*
X159107143Y-87007143D01*
X159035714Y-86935714D01*
X158535714Y-86935714D01*
X158535714Y-87221429D01*
X158292857Y-73285714D02*
X158292857Y-73785714D01*
X159078571Y-73785714D02*
X157578571Y-73785714D01*
X157578571Y-73071428D01*
X157650000Y-69307143D02*
X157578571Y-69450000D01*
X157578571Y-69664286D01*
X157650000Y-69878571D01*
X157792857Y-70021429D01*
X157935714Y-70092857D01*
X158221429Y-70164286D01*
X158435714Y-70164286D01*
X158721429Y-70092857D01*
X158864286Y-70021429D01*
X159007143Y-69878571D01*
X159078571Y-69664286D01*
X159078571Y-69521429D01*
X159007143Y-69307143D01*
X158935714Y-69235714D01*
X158435714Y-69235714D01*
X158435714Y-69521429D01*
X157578571Y-66828571D02*
X157578571Y-65971428D01*
X159078571Y-66399999D02*
X157578571Y-66399999D01*
X157578571Y-63400000D02*
X159078571Y-62900000D01*
X157578571Y-62400000D01*
X57214285Y-46207143D02*
X57714285Y-46207143D01*
X57714285Y-45421429D02*
X57714285Y-46921429D01*
X56999999Y-46921429D01*
X56500000Y-45850000D02*
X55785714Y-45850000D01*
X56642857Y-45421429D02*
X56142857Y-46921429D01*
X55642857Y-45421429D01*
X55142857Y-45421429D02*
X55142857Y-46921429D01*
X54285714Y-45421429D01*
X54285714Y-46921429D01*
X100785714Y-45421429D02*
X100785714Y-46921429D01*
X100214286Y-46921429D01*
X100071428Y-46850000D01*
X100000000Y-46778571D01*
X99928571Y-46635714D01*
X99928571Y-46421429D01*
X100000000Y-46278571D01*
X100071428Y-46207143D01*
X100214286Y-46135714D01*
X100785714Y-46135714D01*
X99285714Y-46921429D02*
X99285714Y-45707143D01*
X99214286Y-45564286D01*
X99142857Y-45492857D01*
X99000000Y-45421429D01*
X98714286Y-45421429D01*
X98571428Y-45492857D01*
X98500000Y-45564286D01*
X98428571Y-45707143D01*
X98428571Y-46921429D01*
X97714285Y-45421429D02*
X97714285Y-46921429D01*
X97214285Y-45850000D01*
X96714285Y-46921429D01*
X96714285Y-45421429D01*
X95999999Y-45421429D02*
X95999999Y-46921429D01*
X95428571Y-46921429D01*
X95285713Y-46850000D01*
X95214285Y-46778571D01*
X95142856Y-46635714D01*
X95142856Y-46421429D01*
X95214285Y-46278571D01*
X95285713Y-46207143D01*
X95428571Y-46135714D01*
X95999999Y-46135714D01*
X147585714Y-46121429D02*
X147585714Y-47621429D01*
X146871428Y-46121429D02*
X146871428Y-47621429D01*
X146014285Y-46121429D01*
X146014285Y-47621429D01*
X103825000Y-98457143D02*
X103753571Y-98600000D01*
X103753571Y-98814286D01*
X103825000Y-99028571D01*
X103967857Y-99171429D01*
X104110714Y-99242857D01*
X104396429Y-99314286D01*
X104610714Y-99314286D01*
X104896429Y-99242857D01*
X105039286Y-99171429D01*
X105182143Y-99028571D01*
X105253571Y-98814286D01*
X105253571Y-98671429D01*
X105182143Y-98457143D01*
X105110714Y-98385714D01*
X104610714Y-98385714D01*
X104610714Y-98671429D01*
X105253571Y-97742857D02*
X103753571Y-97742857D01*
X105253571Y-96885714D01*
X103753571Y-96885714D01*
X105253571Y-96171428D02*
X103753571Y-96171428D01*
X103753571Y-95814285D01*
X103825000Y-95600000D01*
X103967857Y-95457142D01*
X104110714Y-95385714D01*
X104396429Y-95314285D01*
X104610714Y-95314285D01*
X104896429Y-95385714D01*
X105039286Y-95457142D01*
X105182143Y-95600000D01*
X105253571Y-95814285D01*
X105253571Y-96171428D01*
X107660714Y-98385714D02*
X107732143Y-98457143D01*
X107803571Y-98671429D01*
X107803571Y-98814286D01*
X107732143Y-99028571D01*
X107589286Y-99171429D01*
X107446429Y-99242857D01*
X107160714Y-99314286D01*
X106946429Y-99314286D01*
X106660714Y-99242857D01*
X106517857Y-99171429D01*
X106375000Y-99028571D01*
X106303571Y-98814286D01*
X106303571Y-98671429D01*
X106375000Y-98457143D01*
X106446429Y-98385714D01*
X107803571Y-97028571D02*
X107803571Y-97742857D01*
X106303571Y-97742857D01*
X107803571Y-96528571D02*
X106303571Y-96528571D01*
X107803571Y-95671428D02*
X106946429Y-96314285D01*
X106303571Y-95671428D02*
X107160714Y-96528571D01*
X110353571Y-99242857D02*
X108853571Y-99242857D01*
X108853571Y-98242857D02*
X108853571Y-97957143D01*
X108925000Y-97814285D01*
X109067857Y-97671428D01*
X109353571Y-97600000D01*
X109853571Y-97600000D01*
X110139286Y-97671428D01*
X110282143Y-97814285D01*
X110353571Y-97957143D01*
X110353571Y-98242857D01*
X110282143Y-98385714D01*
X110139286Y-98528571D01*
X109853571Y-98600000D01*
X109353571Y-98600000D01*
X109067857Y-98528571D01*
X108925000Y-98385714D01*
X108853571Y-98242857D01*
X111403571Y-99457143D02*
X112903571Y-98957143D01*
X111403571Y-98457143D01*
X112760714Y-97100000D02*
X112832143Y-97171429D01*
X112903571Y-97385715D01*
X112903571Y-97528572D01*
X112832143Y-97742857D01*
X112689286Y-97885715D01*
X112546429Y-97957143D01*
X112260714Y-98028572D01*
X112046429Y-98028572D01*
X111760714Y-97957143D01*
X111617857Y-97885715D01*
X111475000Y-97742857D01*
X111403571Y-97528572D01*
X111403571Y-97385715D01*
X111475000Y-97171429D01*
X111546429Y-97100000D01*
X112760714Y-95600000D02*
X112832143Y-95671429D01*
X112903571Y-95885715D01*
X112903571Y-96028572D01*
X112832143Y-96242857D01*
X112689286Y-96385715D01*
X112546429Y-96457143D01*
X112260714Y-96528572D01*
X112046429Y-96528572D01*
X111760714Y-96457143D01*
X111617857Y-96385715D01*
X111475000Y-96242857D01*
X111403571Y-96028572D01*
X111403571Y-95885715D01*
X111475000Y-95671429D01*
X111546429Y-95600000D01*
D12*
X127400000Y-101600000D02*
X127800000Y-101600000D01*
X127800000Y-101600000D02*
X127800000Y-101500000D01*
X127900000Y-101700000D02*
X127900000Y-101400000D01*
X127900000Y-101400000D02*
X127400000Y-101400000D01*
X127800000Y-101500000D02*
X127500000Y-101500000D01*
X127400000Y-101400000D02*
X127400000Y-101600000D01*
X128000000Y-101800000D02*
X128000000Y-101300000D01*
X127200000Y-101700000D02*
X127900000Y-101700000D01*
X127200000Y-101300000D02*
X127200000Y-101700000D01*
X127100000Y-101200000D02*
X127100000Y-101800000D01*
X128000000Y-101300000D02*
X127200000Y-101300000D01*
X128100000Y-101200000D02*
X127100000Y-101200000D01*
X127100000Y-101800000D02*
X128000000Y-101800000D01*
X128400000Y-100800000D02*
X126800000Y-100800000D01*
X127000000Y-101100000D02*
X127000000Y-101900000D01*
X126900000Y-101000000D02*
X126900000Y-102000000D01*
X126800000Y-102100000D02*
X128400000Y-102100000D01*
X126800000Y-100800000D02*
X126800000Y-102100000D01*
X126900000Y-102000000D02*
X128200000Y-102000000D01*
X128200000Y-102000000D02*
X128200000Y-101100000D01*
X128100000Y-101900000D02*
X128100000Y-101200000D01*
X127000000Y-101900000D02*
X128100000Y-101900000D01*
X128400000Y-102100000D02*
X128400000Y-101000000D01*
X128400000Y-100800000D02*
X128400000Y-101000000D01*
X128200000Y-101100000D02*
X127000000Y-101100000D01*
X128400000Y-101000000D02*
X126900000Y-101000000D01*
X127400000Y-98800000D02*
X127400000Y-99000000D01*
X127200000Y-98700000D02*
X127200000Y-99100000D01*
X128000000Y-98700000D02*
X127200000Y-98700000D01*
X128100000Y-98600000D02*
X127100000Y-98600000D01*
X127800000Y-98900000D02*
X127500000Y-98900000D01*
X127800000Y-99000000D02*
X127800000Y-98900000D01*
X127400000Y-99000000D02*
X127800000Y-99000000D01*
X127900000Y-98800000D02*
X127400000Y-98800000D01*
X127900000Y-99100000D02*
X127900000Y-98800000D01*
X127200000Y-99100000D02*
X127900000Y-99100000D01*
X127100000Y-99200000D02*
X128000000Y-99200000D01*
X127100000Y-98600000D02*
X127100000Y-99200000D01*
X128000000Y-99200000D02*
X128000000Y-98700000D01*
X128100000Y-99300000D02*
X128100000Y-98600000D01*
X128200000Y-98500000D02*
X127000000Y-98500000D01*
X127000000Y-99300000D02*
X128100000Y-99300000D01*
X128400000Y-98400000D02*
X126900000Y-98400000D01*
X126900000Y-99400000D02*
X128200000Y-99400000D01*
X128400000Y-99500000D02*
X128400000Y-98400000D01*
X128400000Y-98200000D02*
X128400000Y-98400000D01*
X128200000Y-99400000D02*
X128200000Y-98500000D01*
X127000000Y-98500000D02*
X127000000Y-99300000D01*
X126900000Y-98400000D02*
X126900000Y-99400000D01*
X126800000Y-99500000D02*
X128400000Y-99500000D01*
X126800000Y-98200000D02*
X126800000Y-99500000D01*
X128400000Y-98200000D02*
X126800000Y-98200000D01*
D11*
X130214286Y-99435714D02*
X130142857Y-99507143D01*
X129928571Y-99578571D01*
X129785714Y-99578571D01*
X129571429Y-99507143D01*
X129428571Y-99364286D01*
X129357143Y-99221429D01*
X129285714Y-98935714D01*
X129285714Y-98721429D01*
X129357143Y-98435714D01*
X129428571Y-98292857D01*
X129571429Y-98150000D01*
X129785714Y-98078571D01*
X129928571Y-98078571D01*
X130142857Y-98150000D01*
X130214286Y-98221429D01*
X130785714Y-99150000D02*
X131500000Y-99150000D01*
X130642857Y-99578571D02*
X131142857Y-98078571D01*
X131642857Y-99578571D01*
X132857143Y-99578571D02*
X132142857Y-99578571D01*
X132142857Y-98078571D01*
X129207143Y-100678571D02*
X130064286Y-100678571D01*
X129635715Y-102178571D02*
X129635715Y-100678571D01*
X130564286Y-101392857D02*
X131064286Y-101392857D01*
X131278572Y-102178571D02*
X130564286Y-102178571D01*
X130564286Y-100678571D01*
X131278572Y-100678571D01*
X131850000Y-102107143D02*
X132064286Y-102178571D01*
X132421429Y-102178571D01*
X132564286Y-102107143D01*
X132635715Y-102035714D01*
X132707143Y-101892857D01*
X132707143Y-101750000D01*
X132635715Y-101607143D01*
X132564286Y-101535714D01*
X132421429Y-101464286D01*
X132135715Y-101392857D01*
X131992857Y-101321429D01*
X131921429Y-101250000D01*
X131850000Y-101107143D01*
X131850000Y-100964286D01*
X131921429Y-100821429D01*
X131992857Y-100750000D01*
X132135715Y-100678571D01*
X132492857Y-100678571D01*
X132707143Y-100750000D01*
X133135714Y-100678571D02*
X133992857Y-100678571D01*
X133564286Y-102178571D02*
X133564286Y-100678571D01*
X101107144Y-91403571D02*
X101107144Y-89903571D01*
X101107144Y-90617857D02*
X101964287Y-90617857D01*
X101964287Y-91403571D02*
X101964287Y-89903571D01*
X102464287Y-89903571D02*
X102964287Y-91403571D01*
X103464287Y-89903571D01*
X103892858Y-90975000D02*
X104607144Y-90975000D01*
X103750001Y-91403571D02*
X104250001Y-89903571D01*
X104750001Y-91403571D01*
X106107144Y-91260714D02*
X106035715Y-91332143D01*
X105821429Y-91403571D01*
X105678572Y-91403571D01*
X105464287Y-91332143D01*
X105321429Y-91189286D01*
X105250001Y-91046429D01*
X105178572Y-90760714D01*
X105178572Y-90546429D01*
X105250001Y-90260714D01*
X105321429Y-90117857D01*
X105464287Y-89975000D01*
X105678572Y-89903571D01*
X105821429Y-89903571D01*
X106035715Y-89975000D01*
X106107144Y-90046429D01*
X107750001Y-90403571D02*
X108107144Y-91403571D01*
X108464286Y-90403571D01*
X108964286Y-90046429D02*
X109035715Y-89975000D01*
X109178572Y-89903571D01*
X109535715Y-89903571D01*
X109678572Y-89975000D01*
X109750001Y-90046429D01*
X109821429Y-90189286D01*
X109821429Y-90332143D01*
X109750001Y-90546429D01*
X108892858Y-91403571D01*
X109821429Y-91403571D01*
X110464286Y-91260714D02*
X110535714Y-91332143D01*
X110464286Y-91403571D01*
X110392857Y-91332143D01*
X110464286Y-91260714D01*
X110464286Y-91403571D01*
X111964286Y-91403571D02*
X111107143Y-91403571D01*
X111535715Y-91403571D02*
X111535715Y-89903571D01*
X111392858Y-90117857D01*
X111250000Y-90260714D01*
X111107143Y-90332143D01*
X96928571Y-93167857D02*
X97142857Y-93239286D01*
X97214285Y-93310714D01*
X97285714Y-93453571D01*
X97285714Y-93667857D01*
X97214285Y-93810714D01*
X97142857Y-93882143D01*
X96999999Y-93953571D01*
X96428571Y-93953571D01*
X96428571Y-92453571D01*
X96928571Y-92453571D01*
X97071428Y-92525000D01*
X97142857Y-92596429D01*
X97214285Y-92739286D01*
X97214285Y-92882143D01*
X97142857Y-93025000D01*
X97071428Y-93096429D01*
X96928571Y-93167857D01*
X96428571Y-93167857D01*
X97785714Y-92953571D02*
X98142857Y-93953571D01*
X98499999Y-92953571D02*
X98142857Y-93953571D01*
X97999999Y-94310714D01*
X97928571Y-94382143D01*
X97785714Y-94453571D01*
X99071428Y-93810714D02*
X99142856Y-93882143D01*
X99071428Y-93953571D01*
X98999999Y-93882143D01*
X99071428Y-93810714D01*
X99071428Y-93953571D01*
X99071428Y-93025000D02*
X99142856Y-93096429D01*
X99071428Y-93167857D01*
X98999999Y-93096429D01*
X99071428Y-93025000D01*
X99071428Y-93167857D01*
X101785714Y-93810714D02*
X101714285Y-93882143D01*
X101499999Y-93953571D01*
X101357142Y-93953571D01*
X101142857Y-93882143D01*
X100999999Y-93739286D01*
X100928571Y-93596429D01*
X100857142Y-93310714D01*
X100857142Y-93096429D01*
X100928571Y-92810714D01*
X100999999Y-92667857D01*
X101142857Y-92525000D01*
X101357142Y-92453571D01*
X101499999Y-92453571D01*
X101714285Y-92525000D01*
X101785714Y-92596429D01*
X103071428Y-93953571D02*
X103071428Y-93167857D01*
X102999999Y-93025000D01*
X102857142Y-92953571D01*
X102571428Y-92953571D01*
X102428571Y-93025000D01*
X103071428Y-93882143D02*
X102928571Y-93953571D01*
X102571428Y-93953571D01*
X102428571Y-93882143D01*
X102357142Y-93739286D01*
X102357142Y-93596429D01*
X102428571Y-93453571D01*
X102571428Y-93382143D01*
X102928571Y-93382143D01*
X103071428Y-93310714D01*
X103785714Y-92953571D02*
X103785714Y-93953571D01*
X103785714Y-93096429D02*
X103857142Y-93025000D01*
X104000000Y-92953571D01*
X104214285Y-92953571D01*
X104357142Y-93025000D01*
X104428571Y-93167857D01*
X104428571Y-93953571D01*
X105785714Y-93953571D02*
X105785714Y-92453571D01*
X105785714Y-93882143D02*
X105642857Y-93953571D01*
X105357143Y-93953571D01*
X105214285Y-93882143D01*
X105142857Y-93810714D01*
X105071428Y-93667857D01*
X105071428Y-93239286D01*
X105142857Y-93096429D01*
X105214285Y-93025000D01*
X105357143Y-92953571D01*
X105642857Y-92953571D01*
X105785714Y-93025000D01*
X106357143Y-92953571D02*
X106714286Y-93953571D01*
X107071428Y-92953571D02*
X106714286Y-93953571D01*
X106571428Y-94310714D01*
X106500000Y-94382143D01*
X106357143Y-94453571D01*
X107642857Y-93953571D02*
X107642857Y-92453571D01*
X108500000Y-93953571D02*
X107857143Y-93096429D01*
X108500000Y-92453571D02*
X107642857Y-93310714D01*
X109142857Y-93953571D02*
X109142857Y-92953571D01*
X109142857Y-92453571D02*
X109071428Y-92525000D01*
X109142857Y-92596429D01*
X109214285Y-92525000D01*
X109142857Y-92453571D01*
X109142857Y-92596429D01*
X109857143Y-92953571D02*
X109857143Y-93953571D01*
X109857143Y-93096429D02*
X109928571Y-93025000D01*
X110071429Y-92953571D01*
X110285714Y-92953571D01*
X110428571Y-93025000D01*
X110500000Y-93167857D01*
X110500000Y-93953571D01*
X111857143Y-92953571D02*
X111857143Y-94167857D01*
X111785714Y-94310714D01*
X111714286Y-94382143D01*
X111571429Y-94453571D01*
X111357143Y-94453571D01*
X111214286Y-94382143D01*
X111857143Y-93882143D02*
X111714286Y-93953571D01*
X111428572Y-93953571D01*
X111285714Y-93882143D01*
X111214286Y-93810714D01*
X111142857Y-93667857D01*
X111142857Y-93239286D01*
X111214286Y-93096429D01*
X111285714Y-93025000D01*
X111428572Y-92953571D01*
X111714286Y-92953571D01*
X111857143Y-93025000D01*
X113214286Y-93953571D02*
X113214286Y-92453571D01*
X113214286Y-93882143D02*
X113071429Y-93953571D01*
X112785715Y-93953571D01*
X112642857Y-93882143D01*
X112571429Y-93810714D01*
X112500000Y-93667857D01*
X112500000Y-93239286D01*
X112571429Y-93096429D01*
X112642857Y-93025000D01*
X112785715Y-92953571D01*
X113071429Y-92953571D01*
X113214286Y-93025000D01*
X114142858Y-93953571D02*
X114000000Y-93882143D01*
X113928572Y-93810714D01*
X113857143Y-93667857D01*
X113857143Y-93239286D01*
X113928572Y-93096429D01*
X114000000Y-93025000D01*
X114142858Y-92953571D01*
X114357143Y-92953571D01*
X114500000Y-93025000D01*
X114571429Y-93096429D01*
X114642858Y-93239286D01*
X114642858Y-93667857D01*
X114571429Y-93810714D01*
X114500000Y-93882143D01*
X114357143Y-93953571D01*
X114142858Y-93953571D01*
X115285715Y-93953571D02*
X115285715Y-92953571D01*
X115285715Y-93096429D02*
X115357143Y-93025000D01*
X115500001Y-92953571D01*
X115714286Y-92953571D01*
X115857143Y-93025000D01*
X115928572Y-93167857D01*
X115928572Y-93953571D01*
X115928572Y-93167857D02*
X116000001Y-93025000D01*
X116142858Y-92953571D01*
X116357143Y-92953571D01*
X116500001Y-93025000D01*
X116571429Y-93167857D01*
X116571429Y-93953571D01*
D13*
X46250000Y-83000000D02*
X45400000Y-83000000D01*
X45400000Y-83000000D02*
X45350000Y-83000000D01*
X46250000Y-90000000D02*
X45350000Y-90000000D01*
X46050000Y-81250000D02*
X46050000Y-91000000D01*
X45400000Y-83000000D02*
G75*
G02X44900000Y-82500000I0J500000D01*
G01*
X44600000Y-82600000D02*
G75*
G03X45400000Y-83400000I800000J0D01*
G01*
X45400000Y-83400000D02*
X45700000Y-83400000D01*
X45700000Y-83400000D02*
X45700000Y-83700000D01*
X45700000Y-83700000D02*
G75*
G03X45300000Y-84100000I0J-400000D01*
G01*
X46250000Y-90000000D02*
X45400000Y-90000000D01*
X45400000Y-90000000D02*
X45350000Y-90000000D01*
X45400000Y-90000000D02*
G75*
G03X44900000Y-90500000I0J-500000D01*
G01*
X44600000Y-90400000D02*
G75*
G02X45400000Y-89600000I800000J0D01*
G01*
X45400000Y-89600000D02*
X45700000Y-89600000D01*
X45700000Y-89600000D02*
X45700000Y-89300000D01*
X45700000Y-89300000D02*
G75*
G02X45300000Y-88900000I0J400000D01*
G01*
X45300000Y-84100000D02*
X45300000Y-88800000D01*
X51576200Y-58302980D02*
X51576200Y-63301700D01*
X51576200Y-63301700D02*
X56574920Y-63301700D01*
X56574920Y-63301700D02*
X56574920Y-58302980D01*
X56574920Y-58302980D02*
X51576200Y-58302980D01*
D14*
X56575560Y-60802340D02*
X54075560Y-63302340D01*
D15*
X74360000Y-69750000D02*
X74360000Y-63000000D01*
X59360000Y-69750000D02*
X74360000Y-69750000D01*
X59360000Y-63000000D02*
X59360000Y-69750000D01*
X74360000Y-48750000D02*
X74360000Y-39750000D01*
X59360000Y-50750000D02*
X59360000Y-63000000D01*
X66860000Y-40000000D02*
X66860000Y-63000000D01*
X74360000Y-63000000D02*
X74360000Y-50750000D01*
X59360000Y-63000000D02*
X74360000Y-63000000D01*
X59360000Y-39750000D02*
X59360000Y-48750000D01*
X59470000Y-39860000D02*
X74250000Y-39860000D01*
X60610000Y-49750000D02*
X73110000Y-49750000D01*
D16*
X119353400Y-78929520D02*
X120344000Y-78929520D01*
X120344000Y-78929520D02*
X120344000Y-78472320D01*
X119353400Y-78472320D02*
X120344000Y-78472320D01*
X119353400Y-78929520D02*
X119353400Y-78472320D01*
X119353400Y-79729620D02*
X120344000Y-79729620D01*
X120344000Y-79729620D02*
X120344000Y-79272420D01*
X119353400Y-79272420D02*
X120344000Y-79272420D01*
X119353400Y-79729620D02*
X119353400Y-79272420D01*
X119353400Y-80529720D02*
X120344000Y-80529720D01*
X120344000Y-80529720D02*
X120344000Y-80072520D01*
X119353400Y-80072520D02*
X120344000Y-80072520D01*
X119353400Y-80529720D02*
X119353400Y-80072520D01*
X119353400Y-81329820D02*
X120344000Y-81329820D01*
X120344000Y-81329820D02*
X120344000Y-80872620D01*
X119353400Y-80872620D02*
X120344000Y-80872620D01*
X119353400Y-81329820D02*
X119353400Y-80872620D01*
X119353400Y-82127380D02*
X120344000Y-82127380D01*
X120344000Y-82127380D02*
X120344000Y-81670180D01*
X119353400Y-81670180D02*
X120344000Y-81670180D01*
X119353400Y-82127380D02*
X119353400Y-81670180D01*
X119353400Y-82927480D02*
X120344000Y-82927480D01*
X120344000Y-82927480D02*
X120344000Y-82470280D01*
X119353400Y-82470280D02*
X120344000Y-82470280D01*
X119353400Y-82927480D02*
X119353400Y-82470280D01*
X119353400Y-83727580D02*
X120344000Y-83727580D01*
X120344000Y-83727580D02*
X120344000Y-83270380D01*
X119353400Y-83270380D02*
X120344000Y-83270380D01*
X119353400Y-83727580D02*
X119353400Y-83270380D01*
X119353400Y-84527680D02*
X120344000Y-84527680D01*
X120344000Y-84527680D02*
X120344000Y-84070480D01*
X119353400Y-84070480D02*
X120344000Y-84070480D01*
X119353400Y-84527680D02*
X119353400Y-84070480D01*
X120872320Y-86046600D02*
X121329520Y-86046600D01*
X121329520Y-86046600D02*
X121329520Y-85056000D01*
X120872320Y-85056000D02*
X121329520Y-85056000D01*
X120872320Y-86046600D02*
X120872320Y-85056000D01*
X121672420Y-86046600D02*
X122129620Y-86046600D01*
X122129620Y-86046600D02*
X122129620Y-85056000D01*
X121672420Y-85056000D02*
X122129620Y-85056000D01*
X121672420Y-86046600D02*
X121672420Y-85056000D01*
X122472520Y-86046600D02*
X122929720Y-86046600D01*
X122929720Y-86046600D02*
X122929720Y-85056000D01*
X122472520Y-85056000D02*
X122929720Y-85056000D01*
X122472520Y-86046600D02*
X122472520Y-85056000D01*
X123272620Y-86046600D02*
X123729820Y-86046600D01*
X123729820Y-86046600D02*
X123729820Y-85056000D01*
X123272620Y-85056000D02*
X123729820Y-85056000D01*
X123272620Y-86046600D02*
X123272620Y-85056000D01*
X124070180Y-86046600D02*
X124527380Y-86046600D01*
X124527380Y-86046600D02*
X124527380Y-85056000D01*
X124070180Y-85056000D02*
X124527380Y-85056000D01*
X124070180Y-86046600D02*
X124070180Y-85056000D01*
X124870280Y-86046600D02*
X125327480Y-86046600D01*
X125327480Y-86046600D02*
X125327480Y-85056000D01*
X124870280Y-85056000D02*
X125327480Y-85056000D01*
X124870280Y-86046600D02*
X124870280Y-85056000D01*
X125670380Y-86046600D02*
X126127580Y-86046600D01*
X126127580Y-86046600D02*
X126127580Y-85056000D01*
X125670380Y-85056000D02*
X126127580Y-85056000D01*
X125670380Y-86046600D02*
X125670380Y-85056000D01*
X126470480Y-86046600D02*
X126927680Y-86046600D01*
X126927680Y-86046600D02*
X126927680Y-85056000D01*
X126470480Y-85056000D02*
X126927680Y-85056000D01*
X126470480Y-86046600D02*
X126470480Y-85056000D01*
X127456000Y-84527680D02*
X128446600Y-84527680D01*
X128446600Y-84527680D02*
X128446600Y-84070480D01*
X127456000Y-84070480D02*
X128446600Y-84070480D01*
X127456000Y-84527680D02*
X127456000Y-84070480D01*
X127456000Y-83727580D02*
X128446600Y-83727580D01*
X128446600Y-83727580D02*
X128446600Y-83270380D01*
X127456000Y-83270380D02*
X128446600Y-83270380D01*
X127456000Y-83727580D02*
X127456000Y-83270380D01*
X127456000Y-82927480D02*
X128446600Y-82927480D01*
X128446600Y-82927480D02*
X128446600Y-82470280D01*
X127456000Y-82470280D02*
X128446600Y-82470280D01*
X127456000Y-82927480D02*
X127456000Y-82470280D01*
X127456000Y-82127380D02*
X128446600Y-82127380D01*
X128446600Y-82127380D02*
X128446600Y-81670180D01*
X127456000Y-81670180D02*
X128446600Y-81670180D01*
X127456000Y-82127380D02*
X127456000Y-81670180D01*
X127456000Y-81329820D02*
X128446600Y-81329820D01*
X128446600Y-81329820D02*
X128446600Y-80872620D01*
X127456000Y-80872620D02*
X128446600Y-80872620D01*
X127456000Y-81329820D02*
X127456000Y-80872620D01*
X127456000Y-80529720D02*
X128446600Y-80529720D01*
X128446600Y-80529720D02*
X128446600Y-80072520D01*
X127456000Y-80072520D02*
X128446600Y-80072520D01*
X127456000Y-80529720D02*
X127456000Y-80072520D01*
X127456000Y-79729620D02*
X128446600Y-79729620D01*
X128446600Y-79729620D02*
X128446600Y-79272420D01*
X127456000Y-79272420D02*
X128446600Y-79272420D01*
X127456000Y-79729620D02*
X127456000Y-79272420D01*
X127456000Y-78929520D02*
X128446600Y-78929520D01*
X128446600Y-78929520D02*
X128446600Y-78472320D01*
X127456000Y-78472320D02*
X128446600Y-78472320D01*
X127456000Y-78929520D02*
X127456000Y-78472320D01*
X126470480Y-77944000D02*
X126927680Y-77944000D01*
X126927680Y-77944000D02*
X126927680Y-76953400D01*
X126470480Y-76953400D02*
X126927680Y-76953400D01*
X126470480Y-77944000D02*
X126470480Y-76953400D01*
X125670380Y-77944000D02*
X126127580Y-77944000D01*
X126127580Y-77944000D02*
X126127580Y-76953400D01*
X125670380Y-76953400D02*
X126127580Y-76953400D01*
X125670380Y-77944000D02*
X125670380Y-76953400D01*
X124870280Y-77944000D02*
X125327480Y-77944000D01*
X125327480Y-77944000D02*
X125327480Y-76953400D01*
X124870280Y-76953400D02*
X125327480Y-76953400D01*
X124870280Y-77944000D02*
X124870280Y-76953400D01*
X124070180Y-77944000D02*
X124527380Y-77944000D01*
X124527380Y-77944000D02*
X124527380Y-76953400D01*
X124070180Y-76953400D02*
X124527380Y-76953400D01*
X124070180Y-77944000D02*
X124070180Y-76953400D01*
X123272620Y-77944000D02*
X123729820Y-77944000D01*
X123729820Y-77944000D02*
X123729820Y-76953400D01*
X123272620Y-76953400D02*
X123729820Y-76953400D01*
X123272620Y-77944000D02*
X123272620Y-76953400D01*
X122472520Y-77944000D02*
X122929720Y-77944000D01*
X122929720Y-77944000D02*
X122929720Y-76953400D01*
X122472520Y-76953400D02*
X122929720Y-76953400D01*
X122472520Y-77944000D02*
X122472520Y-76953400D01*
X121672420Y-77944000D02*
X122129620Y-77944000D01*
X122129620Y-77944000D02*
X122129620Y-76953400D01*
X121672420Y-76953400D02*
X122129620Y-76953400D01*
X121672420Y-77944000D02*
X121672420Y-76953400D01*
X120872320Y-77944000D02*
X121329520Y-77944000D01*
X121329520Y-77944000D02*
X121329520Y-76953400D01*
X120872320Y-76953400D02*
X121329520Y-76953400D01*
X120872320Y-77944000D02*
X120872320Y-76953400D01*
D14*
X127402660Y-77997340D02*
X127402660Y-85002660D01*
X127402660Y-85002660D02*
X120397340Y-85002660D01*
X120397340Y-85002660D02*
X120397340Y-78350400D01*
X120750400Y-77997340D02*
X127402660Y-77997340D01*
X120750400Y-77997340D02*
X120397340Y-78350400D01*
D17*
X120350163Y-77817000D02*
G75*
G03X120350163Y-77817000I-107763J0D01*
G01*
D15*
X73500000Y-87400000D02*
G75*
G03X73500000Y-87400000I-3000000J0D01*
G01*
X62500000Y-81000000D02*
X70500000Y-81000000D01*
X62500000Y-98400000D02*
X62500000Y-81000000D01*
X78500000Y-98400000D02*
X62500000Y-98400000D01*
X78500000Y-81000000D02*
X78500000Y-98400000D01*
X70500000Y-81000000D02*
X78500000Y-81000000D01*
X143040000Y-69750000D02*
X143040000Y-63000000D01*
X128040000Y-69750000D02*
X143040000Y-69750000D01*
X128040000Y-63000000D02*
X128040000Y-69750000D01*
X143040000Y-48750000D02*
X143040000Y-39750000D01*
X128040000Y-50750000D02*
X128040000Y-63000000D01*
X135540000Y-40000000D02*
X135540000Y-63000000D01*
X143040000Y-63000000D02*
X143040000Y-50750000D01*
X128040000Y-63000000D02*
X143040000Y-63000000D01*
X128040000Y-39750000D02*
X128040000Y-48750000D01*
X128150000Y-39860000D02*
X142930000Y-39860000D01*
X129290000Y-49750000D02*
X141790000Y-49750000D01*
X140350000Y-78800000D02*
X140350000Y-79800000D01*
X142050000Y-79800000D02*
X142050000Y-78800000D01*
X138000000Y-79700000D02*
X138000000Y-79000000D01*
X139200000Y-79000000D02*
X139200000Y-79700000D01*
X136000000Y-79700000D02*
X136000000Y-79000000D01*
X137200000Y-79000000D02*
X137200000Y-79700000D01*
X61950000Y-72100000D02*
X62200000Y-72100000D01*
X62200000Y-78100000D02*
X62200000Y-72100000D01*
X61950000Y-78100000D02*
X62200000Y-78100000D01*
X61950000Y-72100000D02*
X61950000Y-78100000D01*
D12*
X60000000Y-73100000D02*
X60000000Y-72150000D01*
X60000000Y-72150000D02*
X67900000Y-72150000D01*
X67900000Y-72150000D02*
X67900000Y-73100000D01*
X60000000Y-77100000D02*
X60000000Y-78050000D01*
X60000000Y-78050000D02*
X67900000Y-78050000D01*
X67900000Y-78050000D02*
X67900000Y-77100000D01*
D15*
X84600000Y-71700000D02*
X84850000Y-71700000D01*
X84850000Y-77700000D02*
X84850000Y-71700000D01*
X84600000Y-77700000D02*
X84850000Y-77700000D01*
X84600000Y-71700000D02*
X84600000Y-77700000D01*
D12*
X82650000Y-72700000D02*
X82650000Y-71750000D01*
X82650000Y-71750000D02*
X90550000Y-71750000D01*
X90550000Y-71750000D02*
X90550000Y-72700000D01*
X82650000Y-76700000D02*
X82650000Y-77650000D01*
X82650000Y-77650000D02*
X90550000Y-77650000D01*
X90550000Y-77650000D02*
X90550000Y-76700000D01*
D15*
X96250000Y-53250000D02*
X96250000Y-48000000D01*
X115750000Y-53250000D02*
X96250000Y-53250000D01*
X115750000Y-48000000D02*
X115750000Y-53250000D01*
X115750000Y-48000000D02*
X96250000Y-48000000D01*
D12*
X155462214Y-52000000D02*
G75*
G03X155462214Y-52000000I-2462214J0D01*
G01*
X55462214Y-52000000D02*
G75*
G03X55462214Y-52000000I-2462214J0D01*
G01*
X55462214Y-97000000D02*
G75*
G03X55462214Y-97000000I-2462214J0D01*
G01*
X155462214Y-97250000D02*
G75*
G03X155462214Y-97250000I-2462214J0D01*
G01*
D15*
X94490000Y-69750000D02*
X94490000Y-63000000D01*
X79490000Y-69750000D02*
X94490000Y-69750000D01*
X79490000Y-63000000D02*
X79490000Y-69750000D01*
X94490000Y-48750000D02*
X94490000Y-39750000D01*
X79490000Y-50750000D02*
X79490000Y-63000000D01*
X86990000Y-40000000D02*
X86990000Y-63000000D01*
X94490000Y-63000000D02*
X94490000Y-50750000D01*
X79490000Y-63000000D02*
X94490000Y-63000000D01*
X79490000Y-39750000D02*
X79490000Y-48750000D01*
X79600000Y-39860000D02*
X94380000Y-39860000D01*
X80740000Y-49750000D02*
X93240000Y-49750000D01*
X155950000Y-87400000D02*
X156950000Y-87400000D01*
X155950000Y-66400000D02*
X156950000Y-66400000D01*
X156950000Y-73400000D02*
X155950000Y-73400000D01*
X156950000Y-80400000D02*
X155950000Y-80400000D01*
X156950000Y-83900000D02*
X155950000Y-83900000D01*
X156950000Y-76900000D02*
X155950000Y-76900000D01*
X156950000Y-69900000D02*
X155950000Y-69900000D01*
X156950000Y-62900000D02*
X155950000Y-62900000D01*
X144700000Y-90650000D02*
X156950000Y-90650000D01*
X144700000Y-60900000D02*
X156950000Y-60900000D01*
X156950000Y-90650000D02*
X156950000Y-60900000D01*
X144700000Y-60900000D02*
X144700000Y-90650000D01*
X154700000Y-62900000D02*
G75*
G03X154700000Y-62900000I-750000J0D01*
G01*
X154700000Y-66400000D02*
G75*
G03X154700000Y-66400000I-750000J0D01*
G01*
X154700000Y-69900000D02*
G75*
G03X154700000Y-69900000I-750000J0D01*
G01*
X154700000Y-73400000D02*
G75*
G03X154700000Y-73400000I-750000J0D01*
G01*
X154700000Y-76900000D02*
G75*
G03X154700000Y-76900000I-750000J0D01*
G01*
X154700000Y-80400000D02*
G75*
G03X154700000Y-80400000I-750000J0D01*
G01*
X154700000Y-83900000D02*
G75*
G03X154700000Y-83900000I-750000J0D01*
G01*
X154700000Y-87400000D02*
G75*
G03X154700000Y-87400000I-750000J0D01*
G01*
X77000000Y-73125000D02*
X78000000Y-73125000D01*
X78000000Y-74475000D02*
X77000000Y-74475000D01*
X77050000Y-70425000D02*
X78050000Y-70425000D01*
X78050000Y-71775000D02*
X77050000Y-71775000D01*
X93225000Y-72600000D02*
X93225000Y-71600000D01*
X94575000Y-71600000D02*
X94575000Y-72600000D01*
X131725000Y-85300000D02*
X131725000Y-84300000D01*
X133075000Y-84300000D02*
X133075000Y-85300000D01*
X135175000Y-84350000D02*
X135175000Y-85350000D01*
X133825000Y-85350000D02*
X133825000Y-84350000D01*
X96775000Y-67750000D02*
X96775000Y-68750000D01*
X95425000Y-68750000D02*
X95425000Y-67750000D01*
X110600000Y-61500000D02*
G75*
G03X110600000Y-61500000I-3000000J0D01*
G01*
X99600000Y-55100000D02*
X107600000Y-55100000D01*
X99600000Y-72500000D02*
X99600000Y-55100000D01*
X115600000Y-72500000D02*
X99600000Y-72500000D01*
X115600000Y-55100000D02*
X115600000Y-72500000D01*
X107600000Y-55100000D02*
X115600000Y-55100000D01*
D14*
X51885820Y-77201980D02*
X49213740Y-77201980D01*
X49213740Y-74402900D02*
X51885820Y-74402900D01*
X48451740Y-75672900D02*
X48451740Y-75931980D01*
X52647820Y-75931980D02*
X52647820Y-75672900D01*
D13*
X51352420Y-75802440D02*
G75*
G03X51352420Y-75802440I-802640J0D01*
G01*
D15*
X84800000Y-96500000D02*
X84800000Y-94200000D01*
X89900000Y-96600000D02*
X89900000Y-94200000D01*
X83882562Y-100588221D02*
G75*
G02X90900000Y-100600000I3517438J5188221D01*
G01*
X83900000Y-100600000D02*
X90900000Y-100600000D01*
X105000000Y-80800000D02*
X105000000Y-78500000D01*
X110100000Y-80900000D02*
X110100000Y-78500000D01*
X104082562Y-84888221D02*
G75*
G02X111100000Y-84900000I3517438J5188221D01*
G01*
X104100000Y-84900000D02*
X111100000Y-84900000D01*
X117600000Y-48800000D02*
X124600000Y-48800000D01*
X117600000Y-61800000D02*
X117600000Y-48800000D01*
X124600000Y-61800000D02*
X117600000Y-61800000D01*
X124600000Y-48800000D02*
X124600000Y-61800000D01*
X132300000Y-75100000D02*
G75*
G03X132300000Y-75100000I-100000J0D01*
G01*
X132750000Y-75350000D02*
X132250000Y-75350000D01*
X132750000Y-78250000D02*
X132750000Y-75350000D01*
X132250000Y-78250000D02*
X132750000Y-78250000D01*
X132250000Y-75350000D02*
X132250000Y-78250000D01*
D13*
X120000640Y-63900640D02*
X120000640Y-68899360D01*
X120000640Y-68899360D02*
X124999360Y-68899360D01*
X124999360Y-68899360D02*
X124999360Y-63900640D01*
X124999360Y-63900640D02*
X120000640Y-63900640D01*
D14*
X125000000Y-66400000D02*
X122500000Y-68900000D01*
D13*
X84700640Y-82200640D02*
X84700640Y-87199360D01*
X84700640Y-87199360D02*
X89699360Y-87199360D01*
X89699360Y-87199360D02*
X89699360Y-82200640D01*
X89699360Y-82200640D02*
X84700640Y-82200640D01*
D14*
X89700000Y-84700000D02*
X87200000Y-87200000D01*
X139662551Y-101847378D02*
G75*
G02X140973700Y-97651500I2097448J1647375D01*
G01*
X142546299Y-97651600D02*
G75*
G02X143854500Y-101851000I-786287J-2548411D01*
G01*
X139665500Y-101851000D02*
X143854500Y-101851000D01*
X141127873Y-97659363D02*
G75*
G02X142395000Y-97660000I632127J-2858139D01*
G01*
X142398615Y-97660806D02*
G75*
G02X143665000Y-98295000I-638614J-2856693D01*
G01*
X139856168Y-98294000D02*
G75*
G02X142395000Y-97660000I1903832J-2223500D01*
G01*
D13*
X96100000Y-62900000D02*
X98100000Y-62900000D01*
X96100000Y-64900000D02*
X98100000Y-64900000D01*
X95500000Y-63200000D02*
G75*
G03X95500000Y-63200000I-100000J0D01*
G01*
X71350000Y-72275000D02*
X73350000Y-72275000D01*
X71350000Y-74275000D02*
X73350000Y-74275000D01*
X70750000Y-72575000D02*
G75*
G03X70750000Y-72575000I-100000J0D01*
G01*
D15*
X110830000Y-100530000D02*
X103210000Y-100530000D01*
X110830000Y-103070000D02*
X103210000Y-103070000D01*
X113650000Y-103350000D02*
X112100000Y-103350000D01*
X103210000Y-100530000D02*
X103210000Y-103070000D01*
X110830000Y-103070000D02*
X110830000Y-100530000D01*
X112100000Y-100250000D02*
X113650000Y-100250000D01*
X113650000Y-100250000D02*
X113650000Y-103350000D01*
X60300000Y-83952500D02*
X60300000Y-84333500D01*
X60300000Y-82936500D02*
X60300000Y-83317500D01*
X60300000Y-83317500D02*
X60681000Y-83952500D01*
X60681000Y-83952500D02*
X59919000Y-83952500D01*
X59919000Y-83952500D02*
X60300000Y-83317500D01*
X60808000Y-83317500D02*
X59792000Y-83317500D01*
X59400000Y-81635000D02*
X59400000Y-85175000D01*
X61200000Y-81635000D02*
X61200000Y-85175000D01*
X70681429Y-64428571D02*
X70824286Y-64476190D01*
X70871905Y-64523810D01*
X70919524Y-64619048D01*
X70919524Y-64761905D01*
X70871905Y-64857143D01*
X70824286Y-64904762D01*
X70729048Y-64952381D01*
X70348095Y-64952381D01*
X70348095Y-63952381D01*
X70681429Y-63952381D01*
X70776667Y-64000000D01*
X70824286Y-64047619D01*
X70871905Y-64142857D01*
X70871905Y-64238095D01*
X70824286Y-64333333D01*
X70776667Y-64380952D01*
X70681429Y-64428571D01*
X70348095Y-64428571D01*
X63419524Y-64952381D02*
X63086190Y-64476190D01*
X62848095Y-64952381D02*
X62848095Y-63952381D01*
X63229048Y-63952381D01*
X63324286Y-64000000D01*
X63371905Y-64047619D01*
X63419524Y-64142857D01*
X63419524Y-64285714D01*
X63371905Y-64380952D01*
X63324286Y-64428571D01*
X63229048Y-64476190D01*
X62848095Y-64476190D01*
X139361429Y-64428571D02*
X139504286Y-64476190D01*
X139551905Y-64523810D01*
X139599524Y-64619048D01*
X139599524Y-64761905D01*
X139551905Y-64857143D01*
X139504286Y-64904762D01*
X139409048Y-64952381D01*
X139028095Y-64952381D01*
X139028095Y-63952381D01*
X139361429Y-63952381D01*
X139456667Y-64000000D01*
X139504286Y-64047619D01*
X139551905Y-64142857D01*
X139551905Y-64238095D01*
X139504286Y-64333333D01*
X139456667Y-64380952D01*
X139361429Y-64428571D01*
X139028095Y-64428571D01*
X132099524Y-64952381D02*
X131766190Y-64476190D01*
X131528095Y-64952381D02*
X131528095Y-63952381D01*
X131909048Y-63952381D01*
X132004286Y-64000000D01*
X132051905Y-64047619D01*
X132099524Y-64142857D01*
X132099524Y-64285714D01*
X132051905Y-64380952D01*
X132004286Y-64428571D01*
X131909048Y-64476190D01*
X131528095Y-64476190D01*
X90811429Y-64428571D02*
X90954286Y-64476190D01*
X91001905Y-64523810D01*
X91049524Y-64619048D01*
X91049524Y-64761905D01*
X91001905Y-64857143D01*
X90954286Y-64904762D01*
X90859048Y-64952381D01*
X90478095Y-64952381D01*
X90478095Y-63952381D01*
X90811429Y-63952381D01*
X90906667Y-64000000D01*
X90954286Y-64047619D01*
X91001905Y-64142857D01*
X91001905Y-64238095D01*
X90954286Y-64333333D01*
X90906667Y-64380952D01*
X90811429Y-64428571D01*
X90478095Y-64428571D01*
X83549524Y-64952381D02*
X83216190Y-64476190D01*
X82978095Y-64952381D02*
X82978095Y-63952381D01*
X83359048Y-63952381D01*
X83454286Y-64000000D01*
X83501905Y-64047619D01*
X83549524Y-64142857D01*
X83549524Y-64285714D01*
X83501905Y-64380952D01*
X83454286Y-64428571D01*
X83359048Y-64476190D01*
X82978095Y-64476190D01*
M02*
