%FSLAX45Y45*%
G04 Gerber Fmt 4.5, Leading zero omitted, Abs format (unit mm)*
G04 Created by KiCad (PCBNEW 6.0.4-6f826c9f35~116~ubuntu20.04.1) date 2022-04-23 21:58:44*
%MOMM*%
%LPD*%
G01*
G04 APERTURE LIST*
%TA.AperFunction,Profile*%
%ADD10C,0.150000*%
%TD*%
%ADD11C,0.200000*%
%ADD12C,0.040000*%
%ADD13C,0.060000*%
%ADD14C,0.075000*%
%ADD15C,0.080000*%
%ADD16C,0.100000*%
%ADD17C,0.110000*%
%ADD18C,0.127000*%
%ADD19C,0.160000*%
%ADD20C,0.175000*%
%ADD21C,0.269000*%
G04 APERTURE END LIST*
D10*
X3000000Y-10000000D02*
X3000000Y-15000000D01*
X15300000Y-5900000D02*
X11400000Y-5900000D01*
X11200000Y-6100000D02*
X11200000Y-9800000D01*
X3000000Y-15000000D02*
G75*
G03*
X3200000Y-15200000I200000J0D01*
G01*
X15500000Y-6100000D02*
G75*
G03*
X15300000Y-5900000I-200000J0D01*
G01*
X15500000Y-15000000D02*
X15500000Y-6100000D01*
X3200000Y-15200000D02*
X15300000Y-15200000D01*
X3200000Y-9800000D02*
G75*
G03*
X3000000Y-10000000I0J-200000D01*
G01*
X11400000Y-5900000D02*
G75*
G03*
X11200000Y-6100000I0J-200000D01*
G01*
X11200000Y-9800000D02*
X3200000Y-9800000D01*
X15300000Y-15200000D02*
G75*
G03*
X15500000Y-15000000I0J200000D01*
G01*
D11*
D12*
X3070000Y-11980000D02*
X3110000Y-12020000D01*
X3110000Y-11980000D02*
X3070000Y-12020000D01*
X3100000Y-11050000D02*
X3140000Y-11090000D01*
X3140000Y-11050000D02*
X3100000Y-11090000D01*
X3100000Y-14290000D02*
X3140000Y-14330000D01*
X3140000Y-14290000D02*
X3100000Y-14330000D01*
X3130000Y-13180000D02*
X3170000Y-13220000D01*
X3170000Y-13180000D02*
X3130000Y-13220000D01*
X3170000Y-9920000D02*
X3210000Y-9960000D01*
X3210000Y-9920000D02*
X3170000Y-9960000D01*
X3740000Y-11240000D02*
X3780000Y-11280000D01*
X3780000Y-11240000D02*
X3740000Y-11280000D01*
X3760000Y-13580000D02*
X3800000Y-13620000D01*
X3800000Y-13580000D02*
X3760000Y-13620000D01*
X3830000Y-11960000D02*
X3870000Y-12000000D01*
X3870000Y-11960000D02*
X3830000Y-12000000D01*
X3940000Y-15060000D02*
X3980000Y-15100000D01*
X3980000Y-15060000D02*
X3940000Y-15100000D01*
X4070000Y-9910000D02*
X4110000Y-9950000D01*
X4110000Y-9910000D02*
X4070000Y-9950000D01*
X4510000Y-9990000D02*
X4550000Y-10030000D01*
X4550000Y-9990000D02*
X4510000Y-10030000D01*
X4520000Y-10540000D02*
X4560000Y-10580000D01*
X4560000Y-10540000D02*
X4520000Y-10580000D01*
X4620000Y-11070000D02*
X4660000Y-11110000D01*
X4660000Y-11070000D02*
X4620000Y-11110000D01*
X4800000Y-14460000D02*
X4840000Y-14500000D01*
X4840000Y-14460000D02*
X4800000Y-14500000D01*
X4930000Y-13670000D02*
X4970000Y-13710000D01*
X4970000Y-13670000D02*
X4930000Y-13710000D01*
X5110000Y-12060000D02*
X5150000Y-12100000D01*
X5150000Y-12060000D02*
X5110000Y-12100000D01*
X5180000Y-15050000D02*
X5220000Y-15090000D01*
X5220000Y-15050000D02*
X5180000Y-15090000D01*
X5360000Y-11650000D02*
X5400000Y-11690000D01*
X5400000Y-11650000D02*
X5360000Y-11690000D01*
X5880000Y-13450000D02*
X5920000Y-13490000D01*
X5920000Y-13450000D02*
X5880000Y-13490000D01*
X5940000Y-13040000D02*
X5980000Y-13080000D01*
X5980000Y-13040000D02*
X5940000Y-13080000D01*
X6260000Y-9860000D02*
X6300000Y-9900000D01*
X6300000Y-9860000D02*
X6260000Y-9900000D01*
X6280000Y-10080000D02*
X6320000Y-10120000D01*
X6320000Y-10080000D02*
X6280000Y-10120000D01*
X6280000Y-15060000D02*
X6320000Y-15100000D01*
X6320000Y-15060000D02*
X6280000Y-15100000D01*
X6300000Y-14300000D02*
X6340000Y-14340000D01*
X6340000Y-14300000D02*
X6300000Y-14340000D01*
X6370000Y-11000000D02*
X6410000Y-11040000D01*
X6410000Y-11000000D02*
X6370000Y-11040000D01*
X6400000Y-12970000D02*
X6440000Y-13010000D01*
X6440000Y-12970000D02*
X6400000Y-13010000D01*
X6664000Y-12544000D02*
X6704000Y-12584000D01*
X6704000Y-12544000D02*
X6664000Y-12584000D01*
X6690000Y-13550000D02*
X6730000Y-13590000D01*
X6730000Y-13550000D02*
X6690000Y-13590000D01*
X6841428Y-11154950D02*
X6881428Y-11194950D01*
X6881428Y-11154950D02*
X6841428Y-11194950D01*
X6850000Y-11560000D02*
X6890000Y-11600000D01*
X6890000Y-11560000D02*
X6850000Y-11600000D01*
X7130000Y-11410000D02*
X7170000Y-11450000D01*
X7170000Y-11410000D02*
X7130000Y-11450000D01*
X7200000Y-11230000D02*
X7240000Y-11270000D01*
X7240000Y-11230000D02*
X7200000Y-11270000D01*
X7210000Y-11790000D02*
X7250000Y-11830000D01*
X7250000Y-11790000D02*
X7210000Y-11830000D01*
X7215000Y-10275000D02*
X7255000Y-10315000D01*
X7255000Y-10275000D02*
X7215000Y-10315000D01*
X7215000Y-10485000D02*
X7255000Y-10525000D01*
X7255000Y-10485000D02*
X7215000Y-10525000D01*
X7310000Y-11540000D02*
X7350000Y-11580000D01*
X7350000Y-11540000D02*
X7310000Y-11580000D01*
X7340000Y-11820000D02*
X7380000Y-11860000D01*
X7380000Y-11820000D02*
X7340000Y-11860000D01*
X7460000Y-10750000D02*
X7500000Y-10790000D01*
X7500000Y-10750000D02*
X7460000Y-10790000D01*
X7500000Y-11820000D02*
X7540000Y-11860000D01*
X7540000Y-11820000D02*
X7500000Y-11860000D01*
X7500000Y-12100000D02*
X7540000Y-12140000D01*
X7540000Y-12100000D02*
X7500000Y-12140000D01*
X7650000Y-10290000D02*
X7690000Y-10330000D01*
X7690000Y-10290000D02*
X7650000Y-10330000D01*
X7650000Y-10560000D02*
X7690000Y-10600000D01*
X7690000Y-10560000D02*
X7650000Y-10600000D01*
X7700000Y-10760000D02*
X7740000Y-10800000D01*
X7740000Y-10760000D02*
X7700000Y-10800000D01*
X7890000Y-10090000D02*
X7930000Y-10130000D01*
X7930000Y-10090000D02*
X7890000Y-10130000D01*
X7940000Y-11980000D02*
X7980000Y-12020000D01*
X7980000Y-11980000D02*
X7940000Y-12020000D01*
X8030000Y-13470000D02*
X8070000Y-13510000D01*
X8070000Y-13470000D02*
X8030000Y-13510000D01*
X8090000Y-12990000D02*
X8130000Y-13030000D01*
X8130000Y-12990000D02*
X8090000Y-13030000D01*
X8260000Y-12060000D02*
X8300000Y-12100000D01*
X8300000Y-12060000D02*
X8260000Y-12100000D01*
X8320000Y-11840000D02*
X8360000Y-11880000D01*
X8360000Y-11840000D02*
X8320000Y-11880000D01*
X8340000Y-10320000D02*
X8380000Y-10360000D01*
X8380000Y-10320000D02*
X8340000Y-10360000D01*
X8370000Y-10940000D02*
X8410000Y-10980000D01*
X8410000Y-10940000D02*
X8370000Y-10980000D01*
X8535048Y-9864952D02*
X8575048Y-9904952D01*
X8575048Y-9864952D02*
X8535048Y-9904952D01*
X8580000Y-13860000D02*
X8620000Y-13900000D01*
X8620000Y-13860000D02*
X8580000Y-13900000D01*
X8810000Y-11380000D02*
X8850000Y-11420000D01*
X8850000Y-11380000D02*
X8810000Y-11420000D01*
X9110000Y-11400000D02*
X9150000Y-11440000D01*
X9150000Y-11400000D02*
X9110000Y-11440000D01*
X9163620Y-12076375D02*
X9203620Y-12116375D01*
X9203620Y-12076375D02*
X9163620Y-12116375D01*
X9210000Y-10760000D02*
X9250000Y-10800000D01*
X9250000Y-10760000D02*
X9210000Y-10800000D01*
X9240000Y-12100000D02*
X9280000Y-12140000D01*
X9280000Y-12100000D02*
X9240000Y-12140000D01*
X9350000Y-10750000D02*
X9390000Y-10790000D01*
X9390000Y-10750000D02*
X9350000Y-10790000D01*
X9380000Y-11500000D02*
X9420000Y-11540000D01*
X9420000Y-11500000D02*
X9380000Y-11540000D01*
X9400000Y-11800000D02*
X9440000Y-11840000D01*
X9440000Y-11800000D02*
X9400000Y-11840000D01*
X9420000Y-12080000D02*
X9460000Y-12120000D01*
X9460000Y-12080000D02*
X9420000Y-12120000D01*
X9450000Y-10930000D02*
X9490000Y-10970000D01*
X9490000Y-10930000D02*
X9450000Y-10970000D01*
X9530000Y-10340000D02*
X9570000Y-10380000D01*
X9570000Y-10340000D02*
X9530000Y-10380000D01*
X9800000Y-11660000D02*
X9840000Y-11700000D01*
X9840000Y-11660000D02*
X9800000Y-11700000D01*
X10160000Y-11500000D02*
X10200000Y-11540000D01*
X10200000Y-11500000D02*
X10160000Y-11540000D01*
X10160000Y-11800000D02*
X10200000Y-11840000D01*
X10200000Y-11800000D02*
X10160000Y-11840000D01*
X10220000Y-12080000D02*
X10260000Y-12120000D01*
X10260000Y-12080000D02*
X10220000Y-12120000D01*
X10300000Y-10320000D02*
X10340000Y-10360000D01*
X10340000Y-10320000D02*
X10300000Y-10360000D01*
X10426250Y-12266250D02*
X10466250Y-12306250D01*
X10466250Y-12266250D02*
X10426250Y-12306250D01*
X10470000Y-10710000D02*
X10510000Y-10750000D01*
X10510000Y-10710000D02*
X10470000Y-10750000D01*
X10520000Y-10910000D02*
X10560000Y-10950000D01*
X10560000Y-10910000D02*
X10520000Y-10950000D01*
X10590000Y-13650000D02*
X10630000Y-13690000D01*
X10630000Y-13650000D02*
X10590000Y-13690000D01*
X10640000Y-14440000D02*
X10680000Y-14480000D01*
X10680000Y-14440000D02*
X10640000Y-14480000D01*
X10760000Y-11230000D02*
X10800000Y-11270000D01*
X10800000Y-11230000D02*
X10760000Y-11270000D01*
X10850000Y-11170000D02*
X10890000Y-11210000D01*
X10890000Y-11170000D02*
X10850000Y-11210000D01*
X10920050Y-10980056D02*
X10960050Y-11020056D01*
X10960050Y-10980056D02*
X10920050Y-11020056D01*
X10960000Y-12410000D02*
X11000000Y-12450000D01*
X11000000Y-12410000D02*
X10960000Y-12450000D01*
X11040000Y-11780000D02*
X11080000Y-11820000D01*
X11080000Y-11780000D02*
X11040000Y-11820000D01*
X11050000Y-12970000D02*
X11090000Y-13010000D01*
X11090000Y-12970000D02*
X11050000Y-13010000D01*
X11070000Y-10270000D02*
X11110000Y-10310000D01*
X11110000Y-10270000D02*
X11070000Y-10310000D01*
X11070000Y-11140000D02*
X11110000Y-11180000D01*
X11110000Y-11140000D02*
X11070000Y-11180000D01*
X11080000Y-10970000D02*
X11120000Y-11010000D01*
X11120000Y-10970000D02*
X11080000Y-11010000D01*
X11092391Y-10647609D02*
X11132391Y-10687609D01*
X11132391Y-10647609D02*
X11092391Y-10687609D01*
X11145048Y-9864952D02*
X11185048Y-9904952D01*
X11185048Y-9864952D02*
X11145048Y-9904952D01*
X11150000Y-12080000D02*
X11190000Y-12120000D01*
X11190000Y-12080000D02*
X11150000Y-12120000D01*
X11180000Y-10810000D02*
X11220000Y-10850000D01*
X11220000Y-10810000D02*
X11180000Y-10850000D01*
X11200000Y-13180000D02*
X11240000Y-13220000D01*
X11240000Y-13180000D02*
X11200000Y-13220000D01*
X11260000Y-13600000D02*
X11300000Y-13640000D01*
X11300000Y-13600000D02*
X11260000Y-13640000D01*
X11310000Y-7460000D02*
X11350000Y-7500000D01*
X11350000Y-7460000D02*
X11310000Y-7500000D01*
X11310000Y-10810000D02*
X11350000Y-10850000D01*
X11350000Y-10810000D02*
X11310000Y-10850000D01*
X11340000Y-12970000D02*
X11380000Y-13010000D01*
X11380000Y-12970000D02*
X11340000Y-13010000D01*
X11370000Y-6030000D02*
X11410000Y-6070000D01*
X11410000Y-6030000D02*
X11370000Y-6070000D01*
X11420000Y-7790000D02*
X11460000Y-7830000D01*
X11460000Y-7790000D02*
X11420000Y-7830000D01*
X11450000Y-11740000D02*
X11490000Y-11780000D01*
X11490000Y-11740000D02*
X11450000Y-11780000D01*
X11480000Y-10320000D02*
X11520000Y-10360000D01*
X11520000Y-10320000D02*
X11480000Y-10360000D01*
X11515000Y-12245000D02*
X11555000Y-12285000D01*
X11555000Y-12245000D02*
X11515000Y-12285000D01*
X11560000Y-11530000D02*
X11600000Y-11570000D01*
X11600000Y-11530000D02*
X11560000Y-11570000D01*
X11700000Y-10370000D02*
X11740000Y-10410000D01*
X11740000Y-10370000D02*
X11700000Y-10410000D01*
X11700000Y-11360000D02*
X11740000Y-11400000D01*
X11740000Y-11360000D02*
X11700000Y-11400000D01*
X11710000Y-8340000D02*
X11750000Y-8380000D01*
X11750000Y-8340000D02*
X11710000Y-8380000D01*
X11720000Y-11230000D02*
X11760000Y-11270000D01*
X11760000Y-11230000D02*
X11720000Y-11270000D01*
X11775821Y-11010050D02*
X11815821Y-11050050D01*
X11815821Y-11010050D02*
X11775821Y-11050050D01*
X11797071Y-10890150D02*
X11837071Y-10930150D01*
X11837071Y-10890150D02*
X11797071Y-10930150D01*
X11810000Y-14400000D02*
X11850000Y-14440000D01*
X11850000Y-14400000D02*
X11810000Y-14440000D01*
X11847017Y-10952579D02*
X11887017Y-10992579D01*
X11887017Y-10952579D02*
X11847017Y-10992579D01*
X11866637Y-10790151D02*
X11906637Y-10830151D01*
X11906637Y-10790151D02*
X11866637Y-10830151D01*
X11869016Y-10430050D02*
X11909016Y-10470050D01*
X11909016Y-10430050D02*
X11869016Y-10470050D01*
X11960000Y-11350000D02*
X12000000Y-11390000D01*
X12000000Y-11350000D02*
X11960000Y-11390000D01*
X12040000Y-10570000D02*
X12080000Y-10610000D01*
X12080000Y-10570000D02*
X12040000Y-10610000D01*
X12060000Y-11940000D02*
X12100000Y-11980000D01*
X12100000Y-11940000D02*
X12060000Y-11980000D01*
X12080000Y-12600000D02*
X12120000Y-12640000D01*
X12120000Y-12600000D02*
X12080000Y-12640000D01*
X12120000Y-8480000D02*
X12160000Y-8520000D01*
X12160000Y-8480000D02*
X12120000Y-8520000D01*
X12140000Y-10980000D02*
X12180000Y-11020000D01*
X12180000Y-10980000D02*
X12140000Y-11020000D01*
X12140000Y-13100000D02*
X12180000Y-13140000D01*
X12180000Y-13100000D02*
X12140000Y-13140000D01*
X12150000Y-11680000D02*
X12190000Y-11720000D01*
X12190000Y-11680000D02*
X12150000Y-11720000D01*
X12170000Y-8240000D02*
X12210000Y-8280000D01*
X12210000Y-8240000D02*
X12170000Y-8280000D01*
X12170000Y-10390000D02*
X12210000Y-10430000D01*
X12210000Y-10390000D02*
X12170000Y-10430000D01*
X12173215Y-11052724D02*
X12213215Y-11092724D01*
X12213215Y-11052724D02*
X12173215Y-11092724D01*
X12226176Y-11213434D02*
X12266176Y-11253434D01*
X12266176Y-11213434D02*
X12226176Y-11253434D01*
X12240000Y-11620000D02*
X12280000Y-11660000D01*
X12280000Y-11620000D02*
X12240000Y-11660000D01*
X12280000Y-8480000D02*
X12320000Y-8520000D01*
X12320000Y-8480000D02*
X12280000Y-8520000D01*
X12280000Y-9730000D02*
X12320000Y-9770000D01*
X12320000Y-9730000D02*
X12280000Y-9770000D01*
X12280000Y-10110000D02*
X12320000Y-10150000D01*
X12320000Y-10110000D02*
X12280000Y-10150000D01*
X12322609Y-11102609D02*
X12362609Y-11142609D01*
X12362609Y-11102609D02*
X12322609Y-11142609D01*
X12340000Y-9000000D02*
X12380000Y-9040000D01*
X12380000Y-9000000D02*
X12340000Y-9040000D01*
X12365048Y-9864952D02*
X12405048Y-9904952D01*
X12405048Y-9864952D02*
X12365048Y-9904952D01*
X12370000Y-9490000D02*
X12410000Y-9530000D01*
X12410000Y-9490000D02*
X12370000Y-9530000D01*
X12380000Y-11720000D02*
X12420000Y-11760000D01*
X12420000Y-11720000D02*
X12380000Y-11760000D01*
X12440000Y-11070000D02*
X12480000Y-11110000D01*
X12480000Y-11070000D02*
X12440000Y-11110000D01*
X12470000Y-11540000D02*
X12510000Y-11580000D01*
X12510000Y-11540000D02*
X12470000Y-11580000D01*
X12530000Y-9500000D02*
X12570000Y-9540000D01*
X12570000Y-9500000D02*
X12530000Y-9540000D01*
X12540000Y-8010000D02*
X12580000Y-8050000D01*
X12580000Y-8010000D02*
X12540000Y-8050000D01*
X12546052Y-11228730D02*
X12586052Y-11268730D01*
X12586052Y-11228730D02*
X12546052Y-11268730D01*
X12550000Y-7380000D02*
X12590000Y-7420000D01*
X12590000Y-7380000D02*
X12550000Y-7420000D01*
X12560000Y-13600000D02*
X12600000Y-13640000D01*
X12600000Y-13600000D02*
X12560000Y-13640000D01*
X12580000Y-10680000D02*
X12620000Y-10720000D01*
X12620000Y-10680000D02*
X12580000Y-10720000D01*
X12630000Y-9620000D02*
X12670000Y-9660000D01*
X12670000Y-9620000D02*
X12630000Y-9660000D01*
X12640000Y-9390000D02*
X12680000Y-9430000D01*
X12680000Y-9390000D02*
X12640000Y-9430000D01*
X12690000Y-9110000D02*
X12730000Y-9150000D01*
X12730000Y-9110000D02*
X12690000Y-9150000D01*
X12690000Y-10860000D02*
X12730000Y-10900000D01*
X12730000Y-10860000D02*
X12690000Y-10900000D01*
X12695048Y-9864952D02*
X12735048Y-9904952D01*
X12735048Y-9864952D02*
X12695048Y-9904952D01*
X12780000Y-7950000D02*
X12820000Y-7990000D01*
X12820000Y-7950000D02*
X12780000Y-7990000D01*
X12890000Y-10500000D02*
X12930000Y-10540000D01*
X12930000Y-10500000D02*
X12890000Y-10540000D01*
X12900000Y-9110000D02*
X12940000Y-9150000D01*
X12940000Y-9110000D02*
X12900000Y-9150000D01*
X12900000Y-9390000D02*
X12940000Y-9430000D01*
X12940000Y-9390000D02*
X12900000Y-9430000D01*
X12920000Y-10220000D02*
X12960000Y-10260000D01*
X12960000Y-10220000D02*
X12920000Y-10260000D01*
X12920000Y-11940000D02*
X12960000Y-11980000D01*
X12960000Y-11940000D02*
X12920000Y-11980000D01*
X12930000Y-11380000D02*
X12970000Y-11420000D01*
X12970000Y-11380000D02*
X12930000Y-11420000D01*
X12950000Y-12600000D02*
X12990000Y-12640000D01*
X12990000Y-12600000D02*
X12950000Y-12640000D01*
X12972371Y-10939901D02*
X13012371Y-10979901D01*
X13012371Y-10939901D02*
X12972371Y-10979901D01*
X12994032Y-11059801D02*
X13034032Y-11099801D01*
X13034032Y-11059801D02*
X12994032Y-11099801D01*
X13028346Y-10876437D02*
X13068346Y-10916437D01*
X13068346Y-10876437D02*
X13028346Y-10916437D01*
X13080000Y-5970000D02*
X13120000Y-6010000D01*
X13120000Y-5970000D02*
X13080000Y-6010000D01*
X13090000Y-7930000D02*
X13130000Y-7970000D01*
X13130000Y-7930000D02*
X13090000Y-7970000D01*
X13090000Y-11530000D02*
X13130000Y-11570000D01*
X13130000Y-11530000D02*
X13090000Y-11570000D01*
X13092945Y-11161830D02*
X13132945Y-11201830D01*
X13132945Y-11161830D02*
X13092945Y-11201830D01*
X13094610Y-10979715D02*
X13134610Y-11019715D01*
X13134610Y-10979715D02*
X13094610Y-11019715D01*
X13100000Y-9590000D02*
X13140000Y-9630000D01*
X13140000Y-9590000D02*
X13100000Y-9630000D01*
X13140000Y-10120000D02*
X13180000Y-10160000D01*
X13180000Y-10120000D02*
X13140000Y-10160000D01*
X13150000Y-6510000D02*
X13190000Y-6550000D01*
X13190000Y-6510000D02*
X13150000Y-6550000D01*
X13160000Y-7570000D02*
X13200000Y-7610000D01*
X13200000Y-7570000D02*
X13160000Y-7610000D01*
X13160000Y-9400000D02*
X13200000Y-9440000D01*
X13200000Y-9400000D02*
X13160000Y-9440000D01*
X13200000Y-9000000D02*
X13240000Y-9040000D01*
X13240000Y-9000000D02*
X13200000Y-9040000D01*
X13270000Y-14380000D02*
X13310000Y-14420000D01*
X13310000Y-14380000D02*
X13270000Y-14420000D01*
X13275048Y-9864952D02*
X13315048Y-9904952D01*
X13315048Y-9864952D02*
X13275048Y-9904952D01*
X13300000Y-13560000D02*
X13340000Y-13600000D01*
X13340000Y-13560000D02*
X13300000Y-13600000D01*
X13310000Y-10250000D02*
X13350000Y-10290000D01*
X13350000Y-10250000D02*
X13310000Y-10290000D01*
X13330000Y-10590000D02*
X13370000Y-10630000D01*
X13370000Y-10590000D02*
X13330000Y-10630000D01*
X13360000Y-9710000D02*
X13400000Y-9750000D01*
X13400000Y-9710000D02*
X13360000Y-9750000D01*
X13460000Y-8350000D02*
X13500000Y-8390000D01*
X13500000Y-8350000D02*
X13460000Y-8390000D01*
X13460000Y-11210000D02*
X13500000Y-11250000D01*
X13500000Y-11210000D02*
X13460000Y-11250000D01*
X13520000Y-8220000D02*
X13560000Y-8260000D01*
X13560000Y-8220000D02*
X13520000Y-8260000D01*
X13520000Y-11120000D02*
X13560000Y-11160000D01*
X13560000Y-11120000D02*
X13520000Y-11160000D01*
X13580000Y-9390000D02*
X13620000Y-9430000D01*
X13620000Y-9390000D02*
X13580000Y-9430000D01*
X13580000Y-9490000D02*
X13620000Y-9530000D01*
X13620000Y-9490000D02*
X13580000Y-9530000D01*
X13590584Y-11009901D02*
X13630584Y-11049901D01*
X13630584Y-11009901D02*
X13590584Y-11049901D01*
X13639541Y-11073109D02*
X13679541Y-11113109D01*
X13679541Y-11073109D02*
X13639541Y-11113109D01*
X13750000Y-10240000D02*
X13790000Y-10280000D01*
X13790000Y-10240000D02*
X13750000Y-10280000D01*
X13760000Y-10600000D02*
X13800000Y-10640000D01*
X13800000Y-10600000D02*
X13760000Y-10640000D01*
X13830000Y-11100000D02*
X13870000Y-11140000D01*
X13870000Y-11100000D02*
X13830000Y-11140000D01*
X13860000Y-9330000D02*
X13900000Y-9370000D01*
X13900000Y-9330000D02*
X13860000Y-9370000D01*
X13890000Y-10800000D02*
X13930000Y-10840000D01*
X13930000Y-10800000D02*
X13890000Y-10840000D01*
X13900000Y-12530000D02*
X13940000Y-12570000D01*
X13940000Y-12530000D02*
X13900000Y-12570000D01*
X13932267Y-10931640D02*
X13972267Y-10971640D01*
X13972267Y-10931640D02*
X13932267Y-10971640D01*
X14007550Y-10904724D02*
X14047550Y-10944724D01*
X14047550Y-10904724D02*
X14007550Y-10944724D01*
X14007550Y-11010000D02*
X14047550Y-11050000D01*
X14047550Y-11010000D02*
X14007550Y-11050000D01*
X14030000Y-8360000D02*
X14070000Y-8400000D01*
X14070000Y-8360000D02*
X14030000Y-8400000D01*
X14050000Y-7430000D02*
X14090000Y-7470000D01*
X14090000Y-7430000D02*
X14050000Y-7470000D01*
X14070000Y-12450000D02*
X14110000Y-12490000D01*
X14110000Y-12450000D02*
X14070000Y-12490000D01*
X14142450Y-11742471D02*
X14182450Y-11782471D01*
X14182450Y-11742471D02*
X14142450Y-11782471D01*
X14152450Y-11590267D02*
X14192450Y-11630267D01*
X14192450Y-11590267D02*
X14152450Y-11630267D01*
X14192450Y-10940474D02*
X14232450Y-10980474D01*
X14232450Y-10940474D02*
X14192450Y-10980474D01*
X14195134Y-11662416D02*
X14235134Y-11702416D01*
X14235134Y-11662416D02*
X14195134Y-11702416D01*
X14240000Y-9810000D02*
X14280000Y-9850000D01*
X14280000Y-9810000D02*
X14240000Y-9850000D01*
X14300000Y-10810000D02*
X14340000Y-10850000D01*
X14340000Y-10810000D02*
X14300000Y-10850000D01*
X14330000Y-9920000D02*
X14370000Y-9960000D01*
X14370000Y-9920000D02*
X14330000Y-9960000D01*
X14330000Y-9920000D02*
X14370000Y-9960000D01*
X14370000Y-9920000D02*
X14330000Y-9960000D01*
X14650000Y-5950000D02*
X14690000Y-5990000D01*
X14690000Y-5950000D02*
X14650000Y-5990000D01*
X15360000Y-6830000D02*
X15400000Y-6870000D01*
X15400000Y-6830000D02*
X15360000Y-6870000D01*
D13*
X6480000Y-11450000D02*
G75*
G03*
X6480000Y-11450000I-30000J0D01*
G01*
X6649000Y-11929000D02*
G75*
G03*
X6649000Y-11929000I-30000J0D01*
G01*
X7750000Y-13470000D02*
G75*
G03*
X7750000Y-13470000I-30000J0D01*
G01*
X8570000Y-11560000D02*
G75*
G03*
X8570000Y-11560000I-30000J0D01*
G01*
X12390000Y-12140000D02*
G75*
G03*
X12390000Y-12140000I-30000J0D01*
G01*
D14*
X14490000Y-13852500D02*
X14490000Y-13927500D01*
X14452500Y-13890000D02*
X14527500Y-13890000D01*
X14617000Y-13852500D02*
X14617000Y-13927500D01*
X14579500Y-13890000D02*
X14654500Y-13890000D01*
X14744000Y-13852500D02*
X14744000Y-13927500D01*
X14706500Y-13890000D02*
X14781500Y-13890000D01*
D15*
X9758285Y-10258285D02*
X9758285Y-10201716D01*
X9701716Y-10201716D01*
X9701716Y-10258285D01*
X9758285Y-10258285D01*
X9758285Y-10758285D02*
X9758285Y-10701716D01*
X9701716Y-10701716D01*
X9701716Y-10758285D01*
X9758285Y-10758285D01*
D16*
X4940000Y-11350000D02*
X4990000Y-11300000D01*
X4940000Y-11250000D01*
X4890000Y-11300000D01*
X4940000Y-11350000D01*
X5440000Y-11350000D02*
X5490000Y-11300000D01*
X5440000Y-11250000D01*
X5390000Y-11300000D01*
X5440000Y-11350000D01*
X8110000Y-10830000D02*
X8160000Y-10780000D01*
X8110000Y-10730000D01*
X8060000Y-10780000D01*
X8110000Y-10830000D01*
X8110000Y-11330000D02*
X8160000Y-11280000D01*
X8110000Y-11230000D01*
X8060000Y-11280000D01*
X8110000Y-11330000D01*
X11930000Y-6870000D02*
X11980000Y-6820000D01*
X11930000Y-6770000D01*
X11880000Y-6820000D01*
X11930000Y-6870000D01*
X12184000Y-6870000D02*
X12234000Y-6820000D01*
X12184000Y-6770000D01*
X12134000Y-6820000D01*
X12184000Y-6870000D01*
X12438000Y-6870000D02*
X12488000Y-6820000D01*
X12438000Y-6770000D01*
X12388000Y-6820000D01*
X12438000Y-6870000D01*
X12692000Y-6870000D02*
X12742000Y-6820000D01*
X12692000Y-6770000D01*
X12642000Y-6820000D01*
X12692000Y-6870000D01*
X14360000Y-6570000D02*
X14410000Y-6520000D01*
X14360000Y-6470000D01*
X14310000Y-6520000D01*
X14360000Y-6570000D01*
X14360000Y-6824000D02*
X14410000Y-6774000D01*
X14360000Y-6724000D01*
X14310000Y-6774000D01*
X14360000Y-6824000D01*
X14360000Y-7078000D02*
X14410000Y-7028000D01*
X14360000Y-6978000D01*
X14310000Y-7028000D01*
X14360000Y-7078000D01*
X14360000Y-7332000D02*
X14410000Y-7282000D01*
X14360000Y-7232000D01*
X14310000Y-7282000D01*
X14360000Y-7332000D01*
X15090000Y-7200000D02*
X15140000Y-7150000D01*
X15090000Y-7100000D01*
X15040000Y-7150000D01*
X15090000Y-7200000D01*
X15090000Y-7454000D02*
X15140000Y-7404000D01*
X15090000Y-7354000D01*
X15040000Y-7404000D01*
X15090000Y-7454000D01*
X15090000Y-7708000D02*
X15140000Y-7658000D01*
X15090000Y-7608000D01*
X15040000Y-7658000D01*
X15090000Y-7708000D01*
X15090000Y-8160000D02*
X15140000Y-8110000D01*
X15090000Y-8060000D01*
X15040000Y-8110000D01*
X15090000Y-8160000D01*
X15090000Y-8414000D02*
X15140000Y-8364000D01*
X15090000Y-8314000D01*
X15040000Y-8364000D01*
X15090000Y-8414000D01*
X15090000Y-8668000D02*
X15140000Y-8618000D01*
X15090000Y-8568000D01*
X15040000Y-8618000D01*
X15090000Y-8668000D01*
X15090000Y-9130000D02*
X15140000Y-9080000D01*
X15090000Y-9030000D01*
X15040000Y-9080000D01*
X15090000Y-9130000D01*
X15090000Y-9384000D02*
X15140000Y-9334000D01*
X15090000Y-9284000D01*
X15040000Y-9334000D01*
X15090000Y-9384000D01*
X15090000Y-9638000D02*
X15140000Y-9588000D01*
X15090000Y-9538000D01*
X15040000Y-9588000D01*
X15090000Y-9638000D01*
X15090000Y-10090000D02*
X15140000Y-10040000D01*
X15090000Y-9990000D01*
X15040000Y-10040000D01*
X15090000Y-10090000D01*
X15090000Y-10344000D02*
X15140000Y-10294000D01*
X15090000Y-10244000D01*
X15040000Y-10294000D01*
X15090000Y-10344000D01*
X15090000Y-10800000D02*
X15140000Y-10750000D01*
X15090000Y-10700000D01*
X15040000Y-10750000D01*
X15090000Y-10800000D01*
X15090000Y-11054000D02*
X15140000Y-11004000D01*
X15090000Y-10954000D01*
X15040000Y-11004000D01*
X15090000Y-11054000D01*
X15090000Y-11510000D02*
X15140000Y-11460000D01*
X15090000Y-11410000D01*
X15040000Y-11460000D01*
X15090000Y-11510000D01*
X15090000Y-11764000D02*
X15140000Y-11714000D01*
X15090000Y-11664000D01*
X15040000Y-11714000D01*
X15090000Y-11764000D01*
X15090000Y-12018000D02*
X15140000Y-11968000D01*
X15090000Y-11918000D01*
X15040000Y-11968000D01*
X15090000Y-12018000D01*
X15090000Y-12470000D02*
X15140000Y-12420000D01*
X15090000Y-12370000D01*
X15040000Y-12420000D01*
X15090000Y-12470000D01*
X15090000Y-12724000D02*
X15140000Y-12674000D01*
X15090000Y-12624000D01*
X15040000Y-12674000D01*
X15090000Y-12724000D01*
X15090000Y-12978000D02*
X15140000Y-12928000D01*
X15090000Y-12878000D01*
X15040000Y-12928000D01*
X15090000Y-12978000D01*
X15090000Y-13430000D02*
X15140000Y-13380000D01*
X15090000Y-13330000D01*
X15040000Y-13380000D01*
X15090000Y-13430000D01*
X15090000Y-13684000D02*
X15140000Y-13634000D01*
X15090000Y-13584000D01*
X15040000Y-13634000D01*
X15090000Y-13684000D01*
D17*
X12495000Y-7145000D02*
X12605000Y-7255000D01*
X12605000Y-7145000D02*
X12495000Y-7255000D01*
X12605000Y-7200000D02*
G75*
G03*
X12605000Y-7200000I-55000J0D01*
G01*
X12495000Y-8595000D02*
X12605000Y-8705000D01*
X12605000Y-8595000D02*
X12495000Y-8705000D01*
X12605000Y-8650000D02*
G75*
G03*
X12605000Y-8650000I-55000J0D01*
G01*
X12745000Y-8595000D02*
X12855000Y-8705000D01*
X12855000Y-8595000D02*
X12745000Y-8705000D01*
X12855000Y-8650000D02*
G75*
G03*
X12855000Y-8650000I-55000J0D01*
G01*
X12995000Y-7145000D02*
X13105000Y-7255000D01*
X13105000Y-7145000D02*
X12995000Y-7255000D01*
X13105000Y-7200000D02*
G75*
G03*
X13105000Y-7200000I-55000J0D01*
G01*
X12995000Y-8595000D02*
X13105000Y-8705000D01*
X13105000Y-8595000D02*
X12995000Y-8705000D01*
X13105000Y-8650000D02*
G75*
G03*
X13105000Y-8650000I-55000J0D01*
G01*
D18*
X4461500Y-13386500D02*
X4588500Y-13513500D01*
X4588500Y-13386500D02*
X4461500Y-13513500D01*
X4525000Y-13386500D02*
X4525000Y-13513500D01*
X4461500Y-13450000D02*
X4588500Y-13450000D01*
D11*
X4723000Y-13396500D02*
X4327000Y-13396500D01*
X4723000Y-13503500D02*
X4327000Y-13503500D01*
X4327000Y-13396500D02*
G75*
G03*
X4327000Y-13503500I0J-53500D01*
G01*
X4723000Y-13503500D02*
G75*
G03*
X4723000Y-13396500I0J53500D01*
G01*
D18*
X5251500Y-13386500D02*
X5378500Y-13513500D01*
X5378500Y-13386500D02*
X5251500Y-13513500D01*
X5315000Y-13386500D02*
X5315000Y-13513500D01*
X5251500Y-13450000D02*
X5378500Y-13450000D01*
D11*
X5513000Y-13396500D02*
X5117000Y-13396500D01*
X5513000Y-13503500D02*
X5117000Y-13503500D01*
X5117000Y-13396500D02*
G75*
G03*
X5117000Y-13503500I0J-53500D01*
G01*
X5513000Y-13503500D02*
G75*
G03*
X5513000Y-13396500I0J53500D01*
G01*
D18*
X8851500Y-13326500D02*
X8978500Y-13453500D01*
X8978500Y-13326500D02*
X8851500Y-13453500D01*
X8915000Y-13326500D02*
X8915000Y-13453500D01*
X8851500Y-13390000D02*
X8978500Y-13390000D01*
D11*
X9113000Y-13336500D02*
X8717000Y-13336500D01*
X9113000Y-13443500D02*
X8717000Y-13443500D01*
X8717000Y-13336500D02*
G75*
G03*
X8717000Y-13443500I0J-53500D01*
G01*
X9113000Y-13443500D02*
G75*
G03*
X9113000Y-13336500I0J53500D01*
G01*
D18*
X9641500Y-13326500D02*
X9768500Y-13453500D01*
X9768500Y-13326500D02*
X9641500Y-13453500D01*
X9705000Y-13326500D02*
X9705000Y-13453500D01*
X9641500Y-13390000D02*
X9768500Y-13390000D01*
D11*
X9903000Y-13336500D02*
X9507000Y-13336500D01*
X9903000Y-13443500D02*
X9507000Y-13443500D01*
X9507000Y-13336500D02*
G75*
G03*
X9507000Y-13443500I0J-53500D01*
G01*
X9903000Y-13443500D02*
G75*
G03*
X9903000Y-13336500I0J53500D01*
G01*
D18*
X10831500Y-13326500D02*
X10958500Y-13453500D01*
X10958500Y-13326500D02*
X10831500Y-13453500D01*
X10895000Y-13326500D02*
X10895000Y-13453500D01*
X10831500Y-13390000D02*
X10958500Y-13390000D01*
D11*
X11093000Y-13336500D02*
X10697000Y-13336500D01*
X11093000Y-13443500D02*
X10697000Y-13443500D01*
X10697000Y-13336500D02*
G75*
G03*
X10697000Y-13443500I0J-53500D01*
G01*
X11093000Y-13443500D02*
G75*
G03*
X11093000Y-13336500I0J53500D01*
G01*
D18*
X11621500Y-13326500D02*
X11748500Y-13453500D01*
X11748500Y-13326500D02*
X11621500Y-13453500D01*
X11685000Y-13326500D02*
X11685000Y-13453500D01*
X11621500Y-13390000D02*
X11748500Y-13390000D01*
D11*
X11883000Y-13336500D02*
X11487000Y-13336500D01*
X11883000Y-13443500D02*
X11487000Y-13443500D01*
X11487000Y-13336500D02*
G75*
G03*
X11487000Y-13443500I0J-53500D01*
G01*
X11883000Y-13443500D02*
G75*
G03*
X11883000Y-13336500I0J53500D01*
G01*
D18*
X12831500Y-13326500D02*
X12958500Y-13453500D01*
X12958500Y-13326500D02*
X12831500Y-13453500D01*
X12895000Y-13326500D02*
X12895000Y-13453500D01*
X12831500Y-13390000D02*
X12958500Y-13390000D01*
D11*
X13093000Y-13336500D02*
X12697000Y-13336500D01*
X13093000Y-13443500D02*
X12697000Y-13443500D01*
X12697000Y-13336500D02*
G75*
G03*
X12697000Y-13443500I0J-53500D01*
G01*
X13093000Y-13443500D02*
G75*
G03*
X13093000Y-13336500I0J53500D01*
G01*
D18*
X13621500Y-13326500D02*
X13748500Y-13453500D01*
X13748500Y-13326500D02*
X13621500Y-13453500D01*
X13685000Y-13326500D02*
X13685000Y-13453500D01*
X13621500Y-13390000D02*
X13748500Y-13390000D01*
D11*
X13883000Y-13336500D02*
X13487000Y-13336500D01*
X13883000Y-13443500D02*
X13487000Y-13443500D01*
X13487000Y-13336500D02*
G75*
G03*
X13487000Y-13443500I0J-53500D01*
G01*
X13883000Y-13443500D02*
G75*
G03*
X13883000Y-13336500I0J53500D01*
G01*
D19*
X3390000Y-11085000D02*
X3550000Y-11245000D01*
X3550000Y-11085000D02*
X3390000Y-11245000D01*
X3526569Y-11221569D02*
X3526569Y-11108431D01*
X3413431Y-11108431D01*
X3413431Y-11221569D01*
X3526569Y-11221569D01*
X3390000Y-12355000D02*
X3550000Y-12515000D01*
X3550000Y-12355000D02*
X3390000Y-12515000D01*
X3526569Y-12491569D02*
X3526569Y-12378431D01*
X3413431Y-12378431D01*
X3413431Y-12491569D01*
X3526569Y-12491569D01*
X4200000Y-12160000D02*
X4360000Y-12320000D01*
X4360000Y-12160000D02*
X4200000Y-12320000D01*
X4336569Y-12296569D02*
X4336569Y-12183431D01*
X4223431Y-12183431D01*
X4223431Y-12296569D01*
X4336569Y-12296569D01*
X4200000Y-12790000D02*
X4360000Y-12950000D01*
X4360000Y-12790000D02*
X4200000Y-12950000D01*
X4336569Y-12926569D02*
X4336569Y-12813431D01*
X4223431Y-12813431D01*
X4223431Y-12926569D01*
X4336569Y-12926569D01*
X5470000Y-12160000D02*
X5630000Y-12320000D01*
X5630000Y-12160000D02*
X5470000Y-12320000D01*
X5606569Y-12296569D02*
X5606569Y-12183431D01*
X5493431Y-12183431D01*
X5493431Y-12296569D01*
X5606569Y-12296569D01*
X5470000Y-12790000D02*
X5630000Y-12950000D01*
X5630000Y-12790000D02*
X5470000Y-12950000D01*
X5606569Y-12926569D02*
X5606569Y-12813431D01*
X5493431Y-12813431D01*
X5493431Y-12926569D01*
X5606569Y-12926569D01*
X6040000Y-10710000D02*
X6200000Y-10870000D01*
X6200000Y-10710000D02*
X6040000Y-10870000D01*
X6176569Y-10846569D02*
X6176569Y-10733431D01*
X6063431Y-10733431D01*
X6063431Y-10846569D01*
X6176569Y-10846569D01*
X6040000Y-11980000D02*
X6200000Y-12140000D01*
X6200000Y-11980000D02*
X6040000Y-12140000D01*
X6176569Y-12116569D02*
X6176569Y-12003431D01*
X6063431Y-12003431D01*
X6063431Y-12116569D01*
X6176569Y-12116569D01*
X8600000Y-12830000D02*
X8760000Y-12990000D01*
X8760000Y-12830000D02*
X8600000Y-12990000D01*
X8736569Y-12966569D02*
X8736569Y-12853431D01*
X8623431Y-12853431D01*
X8623431Y-12966569D01*
X8736569Y-12966569D01*
X9870000Y-12830000D02*
X10030000Y-12990000D01*
X10030000Y-12830000D02*
X9870000Y-12990000D01*
X10006569Y-12966569D02*
X10006569Y-12853431D01*
X9893431Y-12853431D01*
X9893431Y-12966569D01*
X10006569Y-12966569D01*
X10580000Y-12830000D02*
X10740000Y-12990000D01*
X10740000Y-12830000D02*
X10580000Y-12990000D01*
X10716569Y-12966569D02*
X10716569Y-12853431D01*
X10603431Y-12853431D01*
X10603431Y-12966569D01*
X10716569Y-12966569D01*
X11850000Y-12830000D02*
X12010000Y-12990000D01*
X12010000Y-12830000D02*
X11850000Y-12990000D01*
X11986569Y-12966569D02*
X11986569Y-12853431D01*
X11873431Y-12853431D01*
X11873431Y-12966569D01*
X11986569Y-12966569D01*
X12580000Y-12830000D02*
X12740000Y-12990000D01*
X12740000Y-12830000D02*
X12580000Y-12990000D01*
X12716569Y-12966569D02*
X12716569Y-12853431D01*
X12603431Y-12853431D01*
X12603431Y-12966569D01*
X12716569Y-12966569D01*
X13850000Y-12830000D02*
X14010000Y-12990000D01*
X14010000Y-12830000D02*
X13850000Y-12990000D01*
X13986569Y-12966569D02*
X13986569Y-12853431D01*
X13873431Y-12853431D01*
X13873431Y-12966569D01*
X13986569Y-12966569D01*
D20*
X6637500Y-13877500D02*
X6812500Y-14052500D01*
X6812500Y-13877500D02*
X6637500Y-14052500D01*
X6725000Y-14052500D02*
X6812500Y-13965000D01*
X6725000Y-13877500D01*
X6637500Y-13965000D01*
X6725000Y-14052500D01*
X7527500Y-13877500D02*
X7702500Y-14052500D01*
X7702500Y-13877500D02*
X7527500Y-14052500D01*
X7615000Y-14052500D02*
X7702500Y-13965000D01*
X7615000Y-13877500D01*
X7527500Y-13965000D01*
X7615000Y-14052500D01*
D11*
X12240000Y-7800000D02*
X12240000Y-8000000D01*
X12140000Y-7900000D02*
X12340000Y-7900000D01*
X12340000Y-7900000D02*
G75*
G03*
X12340000Y-7900000I-100000J0D01*
G01*
X12150000Y-7875000D02*
X12150000Y-7925000D01*
X12330000Y-7875000D02*
X12330000Y-7925000D01*
X12150000Y-7925000D02*
G75*
G03*
X12330000Y-7925000I90000J0D01*
G01*
X12330000Y-7875000D02*
G75*
G03*
X12150000Y-7875000I-90000J0D01*
G01*
X13360000Y-7800000D02*
X13360000Y-8000000D01*
X13260000Y-7900000D02*
X13460000Y-7900000D01*
X13460000Y-7900000D02*
G75*
G03*
X13460000Y-7900000I-100000J0D01*
G01*
X13270000Y-7875000D02*
X13270000Y-7925000D01*
X13450000Y-7875000D02*
X13450000Y-7925000D01*
X13270000Y-7925000D02*
G75*
G03*
X13450000Y-7925000I90000J0D01*
G01*
X13450000Y-7875000D02*
G75*
G03*
X13270000Y-7875000I-90000J0D01*
G01*
D21*
X6820107Y-15090107D02*
X6820107Y-14899893D01*
X6629893Y-14899893D01*
X6629893Y-15090107D01*
X6820107Y-15090107D01*
X6859500Y-14995000D02*
G75*
G03*
X6859500Y-14995000I-134500J0D01*
G01*
X7710107Y-15090107D02*
X7710107Y-14899893D01*
X7519893Y-14899893D01*
X7519893Y-15090107D01*
X7710107Y-15090107D01*
X7749500Y-14995000D02*
G75*
G03*
X7749500Y-14995000I-134500J0D01*
G01*
D11*
X3250119Y-15517976D02*
X3250119Y-15317976D01*
X3297738Y-15317976D01*
X3326309Y-15327500D01*
X3345357Y-15346548D01*
X3354881Y-15365595D01*
X3364405Y-15403690D01*
X3364405Y-15432262D01*
X3354881Y-15470357D01*
X3345357Y-15489405D01*
X3326309Y-15508452D01*
X3297738Y-15517976D01*
X3250119Y-15517976D01*
X3450119Y-15517976D02*
X3450119Y-15384643D01*
X3450119Y-15422738D02*
X3459643Y-15403690D01*
X3469167Y-15394167D01*
X3488214Y-15384643D01*
X3507262Y-15384643D01*
X3573928Y-15517976D02*
X3573928Y-15384643D01*
X3573928Y-15317976D02*
X3564405Y-15327500D01*
X3573928Y-15337024D01*
X3583452Y-15327500D01*
X3573928Y-15317976D01*
X3573928Y-15337024D01*
X3697738Y-15517976D02*
X3678690Y-15508452D01*
X3669167Y-15489405D01*
X3669167Y-15317976D01*
X3802500Y-15517976D02*
X3783452Y-15508452D01*
X3773928Y-15489405D01*
X3773928Y-15317976D01*
X4031071Y-15517976D02*
X4031071Y-15317976D01*
X4097738Y-15460833D01*
X4164405Y-15317976D01*
X4164405Y-15517976D01*
X4345357Y-15517976D02*
X4345357Y-15413214D01*
X4335833Y-15394167D01*
X4316786Y-15384643D01*
X4278690Y-15384643D01*
X4259643Y-15394167D01*
X4345357Y-15508452D02*
X4326310Y-15517976D01*
X4278690Y-15517976D01*
X4259643Y-15508452D01*
X4250119Y-15489405D01*
X4250119Y-15470357D01*
X4259643Y-15451309D01*
X4278690Y-15441786D01*
X4326310Y-15441786D01*
X4345357Y-15432262D01*
X4440595Y-15384643D02*
X4440595Y-15584643D01*
X4440595Y-15394167D02*
X4459643Y-15384643D01*
X4497738Y-15384643D01*
X4516786Y-15394167D01*
X4526310Y-15403690D01*
X4535833Y-15422738D01*
X4535833Y-15479881D01*
X4526310Y-15498928D01*
X4516786Y-15508452D01*
X4497738Y-15517976D01*
X4459643Y-15517976D01*
X4440595Y-15508452D01*
X4621548Y-15498928D02*
X4631071Y-15508452D01*
X4621548Y-15517976D01*
X4612024Y-15508452D01*
X4621548Y-15498928D01*
X4621548Y-15517976D01*
X4621548Y-15394167D02*
X4631071Y-15403690D01*
X4621548Y-15413214D01*
X4612024Y-15403690D01*
X4621548Y-15394167D01*
X4621548Y-15413214D01*
D12*
X2952500Y-15827500D02*
X2992500Y-15867500D01*
X2992500Y-15827500D02*
X2952500Y-15867500D01*
D11*
X3288214Y-15737976D02*
X3307262Y-15737976D01*
X3326309Y-15747500D01*
X3335833Y-15757024D01*
X3345357Y-15776071D01*
X3354881Y-15814167D01*
X3354881Y-15861786D01*
X3345357Y-15899881D01*
X3335833Y-15918928D01*
X3326309Y-15928452D01*
X3307262Y-15937976D01*
X3288214Y-15937976D01*
X3269167Y-15928452D01*
X3259643Y-15918928D01*
X3250119Y-15899881D01*
X3240595Y-15861786D01*
X3240595Y-15814167D01*
X3250119Y-15776071D01*
X3259643Y-15757024D01*
X3269167Y-15747500D01*
X3288214Y-15737976D01*
X3440595Y-15918928D02*
X3450119Y-15928452D01*
X3440595Y-15937976D01*
X3431071Y-15928452D01*
X3440595Y-15918928D01*
X3440595Y-15937976D01*
X3621548Y-15804643D02*
X3621548Y-15937976D01*
X3573928Y-15728452D02*
X3526309Y-15871309D01*
X3650119Y-15871309D01*
X3764405Y-15737976D02*
X3783452Y-15737976D01*
X3802500Y-15747500D01*
X3812024Y-15757024D01*
X3821548Y-15776071D01*
X3831071Y-15814167D01*
X3831071Y-15861786D01*
X3821548Y-15899881D01*
X3812024Y-15918928D01*
X3802500Y-15928452D01*
X3783452Y-15937976D01*
X3764405Y-15937976D01*
X3745357Y-15928452D01*
X3735833Y-15918928D01*
X3726309Y-15899881D01*
X3716786Y-15861786D01*
X3716786Y-15814167D01*
X3726309Y-15776071D01*
X3735833Y-15757024D01*
X3745357Y-15747500D01*
X3764405Y-15737976D01*
X3954881Y-15737976D02*
X3973928Y-15737976D01*
X3992976Y-15747500D01*
X4002500Y-15757024D01*
X4012024Y-15776071D01*
X4021548Y-15814167D01*
X4021548Y-15861786D01*
X4012024Y-15899881D01*
X4002500Y-15918928D01*
X3992976Y-15928452D01*
X3973928Y-15937976D01*
X3954881Y-15937976D01*
X3935833Y-15928452D01*
X3926309Y-15918928D01*
X3916786Y-15899881D01*
X3907262Y-15861786D01*
X3907262Y-15814167D01*
X3916786Y-15776071D01*
X3926309Y-15757024D01*
X3935833Y-15747500D01*
X3954881Y-15737976D01*
X4107262Y-15937976D02*
X4107262Y-15804643D01*
X4107262Y-15823690D02*
X4116786Y-15814167D01*
X4135833Y-15804643D01*
X4164405Y-15804643D01*
X4183452Y-15814167D01*
X4192976Y-15833214D01*
X4192976Y-15937976D01*
X4192976Y-15833214D02*
X4202500Y-15814167D01*
X4221548Y-15804643D01*
X4250119Y-15804643D01*
X4269167Y-15814167D01*
X4278690Y-15833214D01*
X4278690Y-15937976D01*
X4373929Y-15937976D02*
X4373929Y-15804643D01*
X4373929Y-15823690D02*
X4383452Y-15814167D01*
X4402500Y-15804643D01*
X4431071Y-15804643D01*
X4450119Y-15814167D01*
X4459643Y-15833214D01*
X4459643Y-15937976D01*
X4459643Y-15833214D02*
X4469167Y-15814167D01*
X4488214Y-15804643D01*
X4516786Y-15804643D01*
X4535833Y-15814167D01*
X4545357Y-15833214D01*
X4545357Y-15937976D01*
X4935833Y-15728452D02*
X4764405Y-15985595D01*
X5192976Y-15737976D02*
X5212024Y-15737976D01*
X5231071Y-15747500D01*
X5240595Y-15757024D01*
X5250119Y-15776071D01*
X5259643Y-15814167D01*
X5259643Y-15861786D01*
X5250119Y-15899881D01*
X5240595Y-15918928D01*
X5231071Y-15928452D01*
X5212024Y-15937976D01*
X5192976Y-15937976D01*
X5173929Y-15928452D01*
X5164405Y-15918928D01*
X5154881Y-15899881D01*
X5145357Y-15861786D01*
X5145357Y-15814167D01*
X5154881Y-15776071D01*
X5164405Y-15757024D01*
X5173929Y-15747500D01*
X5192976Y-15737976D01*
X5345357Y-15918928D02*
X5354881Y-15928452D01*
X5345357Y-15937976D01*
X5335833Y-15928452D01*
X5345357Y-15918928D01*
X5345357Y-15937976D01*
X5478690Y-15737976D02*
X5497738Y-15737976D01*
X5516786Y-15747500D01*
X5526310Y-15757024D01*
X5535833Y-15776071D01*
X5545357Y-15814167D01*
X5545357Y-15861786D01*
X5535833Y-15899881D01*
X5526310Y-15918928D01*
X5516786Y-15928452D01*
X5497738Y-15937976D01*
X5478690Y-15937976D01*
X5459643Y-15928452D01*
X5450119Y-15918928D01*
X5440595Y-15899881D01*
X5431071Y-15861786D01*
X5431071Y-15814167D01*
X5440595Y-15776071D01*
X5450119Y-15757024D01*
X5459643Y-15747500D01*
X5478690Y-15737976D01*
X5735833Y-15937976D02*
X5621548Y-15937976D01*
X5678690Y-15937976D02*
X5678690Y-15737976D01*
X5659643Y-15766548D01*
X5640595Y-15785595D01*
X5621548Y-15795119D01*
X5916786Y-15737976D02*
X5821548Y-15737976D01*
X5812024Y-15833214D01*
X5821548Y-15823690D01*
X5840595Y-15814167D01*
X5888214Y-15814167D01*
X5907262Y-15823690D01*
X5916786Y-15833214D01*
X5926309Y-15852262D01*
X5926309Y-15899881D01*
X5916786Y-15918928D01*
X5907262Y-15928452D01*
X5888214Y-15937976D01*
X5840595Y-15937976D01*
X5821548Y-15928452D01*
X5812024Y-15918928D01*
X5992976Y-15737976D02*
X6126309Y-15737976D01*
X6040595Y-15937976D01*
X6192976Y-15737976D02*
X6192976Y-15776071D01*
X6269167Y-15737976D02*
X6269167Y-15776071D01*
X6564405Y-16014167D02*
X6554881Y-16004643D01*
X6535833Y-15976071D01*
X6526309Y-15957024D01*
X6516786Y-15928452D01*
X6507262Y-15880833D01*
X6507262Y-15842738D01*
X6516786Y-15795119D01*
X6526309Y-15766548D01*
X6535833Y-15747500D01*
X6554881Y-15718928D01*
X6564405Y-15709405D01*
X6631071Y-15757024D02*
X6640595Y-15747500D01*
X6659643Y-15737976D01*
X6707262Y-15737976D01*
X6726309Y-15747500D01*
X6735833Y-15757024D01*
X6745357Y-15776071D01*
X6745357Y-15795119D01*
X6735833Y-15823690D01*
X6621548Y-15937976D01*
X6745357Y-15937976D01*
X6869167Y-15737976D02*
X6888214Y-15737976D01*
X6907262Y-15747500D01*
X6916786Y-15757024D01*
X6926309Y-15776071D01*
X6935833Y-15814167D01*
X6935833Y-15861786D01*
X6926309Y-15899881D01*
X6916786Y-15918928D01*
X6907262Y-15928452D01*
X6888214Y-15937976D01*
X6869167Y-15937976D01*
X6850119Y-15928452D01*
X6840595Y-15918928D01*
X6831071Y-15899881D01*
X6821548Y-15861786D01*
X6821548Y-15814167D01*
X6831071Y-15776071D01*
X6840595Y-15757024D01*
X6850119Y-15747500D01*
X6869167Y-15737976D01*
X7059643Y-15737976D02*
X7078690Y-15737976D01*
X7097738Y-15747500D01*
X7107262Y-15757024D01*
X7116786Y-15776071D01*
X7126309Y-15814167D01*
X7126309Y-15861786D01*
X7116786Y-15899881D01*
X7107262Y-15918928D01*
X7097738Y-15928452D01*
X7078690Y-15937976D01*
X7059643Y-15937976D01*
X7040595Y-15928452D01*
X7031071Y-15918928D01*
X7021548Y-15899881D01*
X7012024Y-15861786D01*
X7012024Y-15814167D01*
X7021548Y-15776071D01*
X7031071Y-15757024D01*
X7040595Y-15747500D01*
X7059643Y-15737976D01*
X7364405Y-15937976D02*
X7364405Y-15737976D01*
X7450119Y-15937976D02*
X7450119Y-15833214D01*
X7440595Y-15814167D01*
X7421548Y-15804643D01*
X7392976Y-15804643D01*
X7373928Y-15814167D01*
X7364405Y-15823690D01*
X7573928Y-15937976D02*
X7554881Y-15928452D01*
X7545357Y-15918928D01*
X7535833Y-15899881D01*
X7535833Y-15842738D01*
X7545357Y-15823690D01*
X7554881Y-15814167D01*
X7573928Y-15804643D01*
X7602500Y-15804643D01*
X7621548Y-15814167D01*
X7631071Y-15823690D01*
X7640595Y-15842738D01*
X7640595Y-15899881D01*
X7631071Y-15918928D01*
X7621548Y-15928452D01*
X7602500Y-15937976D01*
X7573928Y-15937976D01*
X7754881Y-15937976D02*
X7735833Y-15928452D01*
X7726309Y-15909405D01*
X7726309Y-15737976D01*
X7907262Y-15928452D02*
X7888214Y-15937976D01*
X7850119Y-15937976D01*
X7831071Y-15928452D01*
X7821548Y-15909405D01*
X7821548Y-15833214D01*
X7831071Y-15814167D01*
X7850119Y-15804643D01*
X7888214Y-15804643D01*
X7907262Y-15814167D01*
X7916786Y-15833214D01*
X7916786Y-15852262D01*
X7821548Y-15871309D01*
X7992976Y-15928452D02*
X8012024Y-15937976D01*
X8050119Y-15937976D01*
X8069167Y-15928452D01*
X8078690Y-15909405D01*
X8078690Y-15899881D01*
X8069167Y-15880833D01*
X8050119Y-15871309D01*
X8021548Y-15871309D01*
X8002500Y-15861786D01*
X7992976Y-15842738D01*
X7992976Y-15833214D01*
X8002500Y-15814167D01*
X8021548Y-15804643D01*
X8050119Y-15804643D01*
X8069167Y-15814167D01*
X8145357Y-16014167D02*
X8154881Y-16004643D01*
X8173928Y-15976071D01*
X8183452Y-15957024D01*
X8192976Y-15928452D01*
X8202500Y-15880833D01*
X8202500Y-15842738D01*
X8192976Y-15795119D01*
X8183452Y-15766548D01*
X8173928Y-15747500D01*
X8154881Y-15718928D01*
X8145357Y-15709405D01*
D13*
X2992500Y-16111500D02*
G75*
G03*
X2992500Y-16111500I-30000J0D01*
G01*
D11*
X3288214Y-16001976D02*
X3307262Y-16001976D01*
X3326309Y-16011500D01*
X3335833Y-16021024D01*
X3345357Y-16040071D01*
X3354881Y-16078167D01*
X3354881Y-16125786D01*
X3345357Y-16163881D01*
X3335833Y-16182928D01*
X3326309Y-16192452D01*
X3307262Y-16201976D01*
X3288214Y-16201976D01*
X3269167Y-16192452D01*
X3259643Y-16182928D01*
X3250119Y-16163881D01*
X3240595Y-16125786D01*
X3240595Y-16078167D01*
X3250119Y-16040071D01*
X3259643Y-16021024D01*
X3269167Y-16011500D01*
X3288214Y-16001976D01*
X3440595Y-16182928D02*
X3450119Y-16192452D01*
X3440595Y-16201976D01*
X3431071Y-16192452D01*
X3440595Y-16182928D01*
X3440595Y-16201976D01*
X3621548Y-16001976D02*
X3583452Y-16001976D01*
X3564405Y-16011500D01*
X3554881Y-16021024D01*
X3535833Y-16049595D01*
X3526309Y-16087690D01*
X3526309Y-16163881D01*
X3535833Y-16182928D01*
X3545357Y-16192452D01*
X3564405Y-16201976D01*
X3602500Y-16201976D01*
X3621548Y-16192452D01*
X3631071Y-16182928D01*
X3640595Y-16163881D01*
X3640595Y-16116262D01*
X3631071Y-16097214D01*
X3621548Y-16087690D01*
X3602500Y-16078167D01*
X3564405Y-16078167D01*
X3545357Y-16087690D01*
X3535833Y-16097214D01*
X3526309Y-16116262D01*
X3764405Y-16001976D02*
X3783452Y-16001976D01*
X3802500Y-16011500D01*
X3812024Y-16021024D01*
X3821548Y-16040071D01*
X3831071Y-16078167D01*
X3831071Y-16125786D01*
X3821548Y-16163881D01*
X3812024Y-16182928D01*
X3802500Y-16192452D01*
X3783452Y-16201976D01*
X3764405Y-16201976D01*
X3745357Y-16192452D01*
X3735833Y-16182928D01*
X3726309Y-16163881D01*
X3716786Y-16125786D01*
X3716786Y-16078167D01*
X3726309Y-16040071D01*
X3735833Y-16021024D01*
X3745357Y-16011500D01*
X3764405Y-16001976D01*
X3954881Y-16001976D02*
X3973928Y-16001976D01*
X3992976Y-16011500D01*
X4002500Y-16021024D01*
X4012024Y-16040071D01*
X4021548Y-16078167D01*
X4021548Y-16125786D01*
X4012024Y-16163881D01*
X4002500Y-16182928D01*
X3992976Y-16192452D01*
X3973928Y-16201976D01*
X3954881Y-16201976D01*
X3935833Y-16192452D01*
X3926309Y-16182928D01*
X3916786Y-16163881D01*
X3907262Y-16125786D01*
X3907262Y-16078167D01*
X3916786Y-16040071D01*
X3926309Y-16021024D01*
X3935833Y-16011500D01*
X3954881Y-16001976D01*
X4107262Y-16201976D02*
X4107262Y-16068643D01*
X4107262Y-16087690D02*
X4116786Y-16078167D01*
X4135833Y-16068643D01*
X4164405Y-16068643D01*
X4183452Y-16078167D01*
X4192976Y-16097214D01*
X4192976Y-16201976D01*
X4192976Y-16097214D02*
X4202500Y-16078167D01*
X4221548Y-16068643D01*
X4250119Y-16068643D01*
X4269167Y-16078167D01*
X4278690Y-16097214D01*
X4278690Y-16201976D01*
X4373929Y-16201976D02*
X4373929Y-16068643D01*
X4373929Y-16087690D02*
X4383452Y-16078167D01*
X4402500Y-16068643D01*
X4431071Y-16068643D01*
X4450119Y-16078167D01*
X4459643Y-16097214D01*
X4459643Y-16201976D01*
X4459643Y-16097214D02*
X4469167Y-16078167D01*
X4488214Y-16068643D01*
X4516786Y-16068643D01*
X4535833Y-16078167D01*
X4545357Y-16097214D01*
X4545357Y-16201976D01*
X4935833Y-15992452D02*
X4764405Y-16249595D01*
X5192976Y-16001976D02*
X5212024Y-16001976D01*
X5231071Y-16011500D01*
X5240595Y-16021024D01*
X5250119Y-16040071D01*
X5259643Y-16078167D01*
X5259643Y-16125786D01*
X5250119Y-16163881D01*
X5240595Y-16182928D01*
X5231071Y-16192452D01*
X5212024Y-16201976D01*
X5192976Y-16201976D01*
X5173929Y-16192452D01*
X5164405Y-16182928D01*
X5154881Y-16163881D01*
X5145357Y-16125786D01*
X5145357Y-16078167D01*
X5154881Y-16040071D01*
X5164405Y-16021024D01*
X5173929Y-16011500D01*
X5192976Y-16001976D01*
X5345357Y-16182928D02*
X5354881Y-16192452D01*
X5345357Y-16201976D01*
X5335833Y-16192452D01*
X5345357Y-16182928D01*
X5345357Y-16201976D01*
X5478690Y-16001976D02*
X5497738Y-16001976D01*
X5516786Y-16011500D01*
X5526310Y-16021024D01*
X5535833Y-16040071D01*
X5545357Y-16078167D01*
X5545357Y-16125786D01*
X5535833Y-16163881D01*
X5526310Y-16182928D01*
X5516786Y-16192452D01*
X5497738Y-16201976D01*
X5478690Y-16201976D01*
X5459643Y-16192452D01*
X5450119Y-16182928D01*
X5440595Y-16163881D01*
X5431071Y-16125786D01*
X5431071Y-16078167D01*
X5440595Y-16040071D01*
X5450119Y-16021024D01*
X5459643Y-16011500D01*
X5478690Y-16001976D01*
X5621548Y-16021024D02*
X5631071Y-16011500D01*
X5650119Y-16001976D01*
X5697738Y-16001976D01*
X5716786Y-16011500D01*
X5726309Y-16021024D01*
X5735833Y-16040071D01*
X5735833Y-16059119D01*
X5726309Y-16087690D01*
X5612024Y-16201976D01*
X5735833Y-16201976D01*
X5802500Y-16001976D02*
X5926309Y-16001976D01*
X5859643Y-16078167D01*
X5888214Y-16078167D01*
X5907262Y-16087690D01*
X5916786Y-16097214D01*
X5926309Y-16116262D01*
X5926309Y-16163881D01*
X5916786Y-16182928D01*
X5907262Y-16192452D01*
X5888214Y-16201976D01*
X5831071Y-16201976D01*
X5812024Y-16192452D01*
X5802500Y-16182928D01*
X6097738Y-16001976D02*
X6059643Y-16001976D01*
X6040595Y-16011500D01*
X6031071Y-16021024D01*
X6012024Y-16049595D01*
X6002500Y-16087690D01*
X6002500Y-16163881D01*
X6012024Y-16182928D01*
X6021548Y-16192452D01*
X6040595Y-16201976D01*
X6078690Y-16201976D01*
X6097738Y-16192452D01*
X6107262Y-16182928D01*
X6116786Y-16163881D01*
X6116786Y-16116262D01*
X6107262Y-16097214D01*
X6097738Y-16087690D01*
X6078690Y-16078167D01*
X6040595Y-16078167D01*
X6021548Y-16087690D01*
X6012024Y-16097214D01*
X6002500Y-16116262D01*
X6192976Y-16001976D02*
X6192976Y-16040071D01*
X6269167Y-16001976D02*
X6269167Y-16040071D01*
X6564405Y-16278167D02*
X6554881Y-16268643D01*
X6535833Y-16240071D01*
X6526309Y-16221024D01*
X6516786Y-16192452D01*
X6507262Y-16144833D01*
X6507262Y-16106738D01*
X6516786Y-16059119D01*
X6526309Y-16030548D01*
X6535833Y-16011500D01*
X6554881Y-15982928D01*
X6564405Y-15973405D01*
X6735833Y-16001976D02*
X6640595Y-16001976D01*
X6631071Y-16097214D01*
X6640595Y-16087690D01*
X6659643Y-16078167D01*
X6707262Y-16078167D01*
X6726309Y-16087690D01*
X6735833Y-16097214D01*
X6745357Y-16116262D01*
X6745357Y-16163881D01*
X6735833Y-16182928D01*
X6726309Y-16192452D01*
X6707262Y-16201976D01*
X6659643Y-16201976D01*
X6640595Y-16192452D01*
X6631071Y-16182928D01*
X6983452Y-16201976D02*
X6983452Y-16001976D01*
X7069167Y-16201976D02*
X7069167Y-16097214D01*
X7059643Y-16078167D01*
X7040595Y-16068643D01*
X7012024Y-16068643D01*
X6992976Y-16078167D01*
X6983452Y-16087690D01*
X7192976Y-16201976D02*
X7173928Y-16192452D01*
X7164405Y-16182928D01*
X7154881Y-16163881D01*
X7154881Y-16106738D01*
X7164405Y-16087690D01*
X7173928Y-16078167D01*
X7192976Y-16068643D01*
X7221548Y-16068643D01*
X7240595Y-16078167D01*
X7250119Y-16087690D01*
X7259643Y-16106738D01*
X7259643Y-16163881D01*
X7250119Y-16182928D01*
X7240595Y-16192452D01*
X7221548Y-16201976D01*
X7192976Y-16201976D01*
X7373928Y-16201976D02*
X7354881Y-16192452D01*
X7345357Y-16173405D01*
X7345357Y-16001976D01*
X7526309Y-16192452D02*
X7507262Y-16201976D01*
X7469167Y-16201976D01*
X7450119Y-16192452D01*
X7440595Y-16173405D01*
X7440595Y-16097214D01*
X7450119Y-16078167D01*
X7469167Y-16068643D01*
X7507262Y-16068643D01*
X7526309Y-16078167D01*
X7535833Y-16097214D01*
X7535833Y-16116262D01*
X7440595Y-16135309D01*
X7612024Y-16192452D02*
X7631071Y-16201976D01*
X7669167Y-16201976D01*
X7688214Y-16192452D01*
X7697738Y-16173405D01*
X7697738Y-16163881D01*
X7688214Y-16144833D01*
X7669167Y-16135309D01*
X7640595Y-16135309D01*
X7621548Y-16125786D01*
X7612024Y-16106738D01*
X7612024Y-16097214D01*
X7621548Y-16078167D01*
X7640595Y-16068643D01*
X7669167Y-16068643D01*
X7688214Y-16078167D01*
X7764405Y-16278167D02*
X7773928Y-16268643D01*
X7792976Y-16240071D01*
X7802500Y-16221024D01*
X7812024Y-16192452D01*
X7821548Y-16144833D01*
X7821548Y-16106738D01*
X7812024Y-16059119D01*
X7802500Y-16030548D01*
X7792976Y-16011500D01*
X7773928Y-15982928D01*
X7764405Y-15973405D01*
D14*
X2955000Y-16338000D02*
X2955000Y-16413000D01*
X2917500Y-16375500D02*
X2992500Y-16375500D01*
D11*
X3288214Y-16265976D02*
X3307262Y-16265976D01*
X3326309Y-16275500D01*
X3335833Y-16285024D01*
X3345357Y-16304071D01*
X3354881Y-16342167D01*
X3354881Y-16389786D01*
X3345357Y-16427881D01*
X3335833Y-16446928D01*
X3326309Y-16456452D01*
X3307262Y-16465976D01*
X3288214Y-16465976D01*
X3269167Y-16456452D01*
X3259643Y-16446928D01*
X3250119Y-16427881D01*
X3240595Y-16389786D01*
X3240595Y-16342167D01*
X3250119Y-16304071D01*
X3259643Y-16285024D01*
X3269167Y-16275500D01*
X3288214Y-16265976D01*
X3440595Y-16446928D02*
X3450119Y-16456452D01*
X3440595Y-16465976D01*
X3431071Y-16456452D01*
X3440595Y-16446928D01*
X3440595Y-16465976D01*
X3516786Y-16265976D02*
X3650119Y-16265976D01*
X3564405Y-16465976D01*
X3821548Y-16265976D02*
X3726309Y-16265976D01*
X3716786Y-16361214D01*
X3726309Y-16351690D01*
X3745357Y-16342167D01*
X3792976Y-16342167D01*
X3812024Y-16351690D01*
X3821548Y-16361214D01*
X3831071Y-16380262D01*
X3831071Y-16427881D01*
X3821548Y-16446928D01*
X3812024Y-16456452D01*
X3792976Y-16465976D01*
X3745357Y-16465976D01*
X3726309Y-16456452D01*
X3716786Y-16446928D01*
X3954881Y-16265976D02*
X3973928Y-16265976D01*
X3992976Y-16275500D01*
X4002500Y-16285024D01*
X4012024Y-16304071D01*
X4021548Y-16342167D01*
X4021548Y-16389786D01*
X4012024Y-16427881D01*
X4002500Y-16446928D01*
X3992976Y-16456452D01*
X3973928Y-16465976D01*
X3954881Y-16465976D01*
X3935833Y-16456452D01*
X3926309Y-16446928D01*
X3916786Y-16427881D01*
X3907262Y-16389786D01*
X3907262Y-16342167D01*
X3916786Y-16304071D01*
X3926309Y-16285024D01*
X3935833Y-16275500D01*
X3954881Y-16265976D01*
X4107262Y-16465976D02*
X4107262Y-16332643D01*
X4107262Y-16351690D02*
X4116786Y-16342167D01*
X4135833Y-16332643D01*
X4164405Y-16332643D01*
X4183452Y-16342167D01*
X4192976Y-16361214D01*
X4192976Y-16465976D01*
X4192976Y-16361214D02*
X4202500Y-16342167D01*
X4221548Y-16332643D01*
X4250119Y-16332643D01*
X4269167Y-16342167D01*
X4278690Y-16361214D01*
X4278690Y-16465976D01*
X4373929Y-16465976D02*
X4373929Y-16332643D01*
X4373929Y-16351690D02*
X4383452Y-16342167D01*
X4402500Y-16332643D01*
X4431071Y-16332643D01*
X4450119Y-16342167D01*
X4459643Y-16361214D01*
X4459643Y-16465976D01*
X4459643Y-16361214D02*
X4469167Y-16342167D01*
X4488214Y-16332643D01*
X4516786Y-16332643D01*
X4535833Y-16342167D01*
X4545357Y-16361214D01*
X4545357Y-16465976D01*
X4935833Y-16256452D02*
X4764405Y-16513595D01*
X5192976Y-16265976D02*
X5212024Y-16265976D01*
X5231071Y-16275500D01*
X5240595Y-16285024D01*
X5250119Y-16304071D01*
X5259643Y-16342167D01*
X5259643Y-16389786D01*
X5250119Y-16427881D01*
X5240595Y-16446928D01*
X5231071Y-16456452D01*
X5212024Y-16465976D01*
X5192976Y-16465976D01*
X5173929Y-16456452D01*
X5164405Y-16446928D01*
X5154881Y-16427881D01*
X5145357Y-16389786D01*
X5145357Y-16342167D01*
X5154881Y-16304071D01*
X5164405Y-16285024D01*
X5173929Y-16275500D01*
X5192976Y-16265976D01*
X5345357Y-16446928D02*
X5354881Y-16456452D01*
X5345357Y-16465976D01*
X5335833Y-16456452D01*
X5345357Y-16446928D01*
X5345357Y-16465976D01*
X5478690Y-16265976D02*
X5497738Y-16265976D01*
X5516786Y-16275500D01*
X5526310Y-16285024D01*
X5535833Y-16304071D01*
X5545357Y-16342167D01*
X5545357Y-16389786D01*
X5535833Y-16427881D01*
X5526310Y-16446928D01*
X5516786Y-16456452D01*
X5497738Y-16465976D01*
X5478690Y-16465976D01*
X5459643Y-16456452D01*
X5450119Y-16446928D01*
X5440595Y-16427881D01*
X5431071Y-16389786D01*
X5431071Y-16342167D01*
X5440595Y-16304071D01*
X5450119Y-16285024D01*
X5459643Y-16275500D01*
X5478690Y-16265976D01*
X5621548Y-16285024D02*
X5631071Y-16275500D01*
X5650119Y-16265976D01*
X5697738Y-16265976D01*
X5716786Y-16275500D01*
X5726309Y-16285024D01*
X5735833Y-16304071D01*
X5735833Y-16323119D01*
X5726309Y-16351690D01*
X5612024Y-16465976D01*
X5735833Y-16465976D01*
X5831071Y-16465976D02*
X5869167Y-16465976D01*
X5888214Y-16456452D01*
X5897738Y-16446928D01*
X5916786Y-16418357D01*
X5926309Y-16380262D01*
X5926309Y-16304071D01*
X5916786Y-16285024D01*
X5907262Y-16275500D01*
X5888214Y-16265976D01*
X5850119Y-16265976D01*
X5831071Y-16275500D01*
X5821548Y-16285024D01*
X5812024Y-16304071D01*
X5812024Y-16351690D01*
X5821548Y-16370738D01*
X5831071Y-16380262D01*
X5850119Y-16389786D01*
X5888214Y-16389786D01*
X5907262Y-16380262D01*
X5916786Y-16370738D01*
X5926309Y-16351690D01*
X6107262Y-16265976D02*
X6012024Y-16265976D01*
X6002500Y-16361214D01*
X6012024Y-16351690D01*
X6031071Y-16342167D01*
X6078690Y-16342167D01*
X6097738Y-16351690D01*
X6107262Y-16361214D01*
X6116786Y-16380262D01*
X6116786Y-16427881D01*
X6107262Y-16446928D01*
X6097738Y-16456452D01*
X6078690Y-16465976D01*
X6031071Y-16465976D01*
X6012024Y-16456452D01*
X6002500Y-16446928D01*
X6192976Y-16265976D02*
X6192976Y-16304071D01*
X6269167Y-16265976D02*
X6269167Y-16304071D01*
X6564405Y-16542167D02*
X6554881Y-16532643D01*
X6535833Y-16504071D01*
X6526309Y-16485024D01*
X6516786Y-16456452D01*
X6507262Y-16408833D01*
X6507262Y-16370738D01*
X6516786Y-16323119D01*
X6526309Y-16294548D01*
X6535833Y-16275500D01*
X6554881Y-16246928D01*
X6564405Y-16237405D01*
X6621548Y-16265976D02*
X6745357Y-16265976D01*
X6678690Y-16342167D01*
X6707262Y-16342167D01*
X6726309Y-16351690D01*
X6735833Y-16361214D01*
X6745357Y-16380262D01*
X6745357Y-16427881D01*
X6735833Y-16446928D01*
X6726309Y-16456452D01*
X6707262Y-16465976D01*
X6650119Y-16465976D01*
X6631071Y-16456452D01*
X6621548Y-16446928D01*
X6983452Y-16465976D02*
X6983452Y-16265976D01*
X7069167Y-16465976D02*
X7069167Y-16361214D01*
X7059643Y-16342167D01*
X7040595Y-16332643D01*
X7012024Y-16332643D01*
X6992976Y-16342167D01*
X6983452Y-16351690D01*
X7192976Y-16465976D02*
X7173928Y-16456452D01*
X7164405Y-16446928D01*
X7154881Y-16427881D01*
X7154881Y-16370738D01*
X7164405Y-16351690D01*
X7173928Y-16342167D01*
X7192976Y-16332643D01*
X7221548Y-16332643D01*
X7240595Y-16342167D01*
X7250119Y-16351690D01*
X7259643Y-16370738D01*
X7259643Y-16427881D01*
X7250119Y-16446928D01*
X7240595Y-16456452D01*
X7221548Y-16465976D01*
X7192976Y-16465976D01*
X7373928Y-16465976D02*
X7354881Y-16456452D01*
X7345357Y-16437405D01*
X7345357Y-16265976D01*
X7526309Y-16456452D02*
X7507262Y-16465976D01*
X7469167Y-16465976D01*
X7450119Y-16456452D01*
X7440595Y-16437405D01*
X7440595Y-16361214D01*
X7450119Y-16342167D01*
X7469167Y-16332643D01*
X7507262Y-16332643D01*
X7526309Y-16342167D01*
X7535833Y-16361214D01*
X7535833Y-16380262D01*
X7440595Y-16399309D01*
X7612024Y-16456452D02*
X7631071Y-16465976D01*
X7669167Y-16465976D01*
X7688214Y-16456452D01*
X7697738Y-16437405D01*
X7697738Y-16427881D01*
X7688214Y-16408833D01*
X7669167Y-16399309D01*
X7640595Y-16399309D01*
X7621548Y-16389786D01*
X7612024Y-16370738D01*
X7612024Y-16361214D01*
X7621548Y-16342167D01*
X7640595Y-16332643D01*
X7669167Y-16332643D01*
X7688214Y-16342167D01*
X7764405Y-16542167D02*
X7773928Y-16532643D01*
X7792976Y-16504071D01*
X7802500Y-16485024D01*
X7812024Y-16456452D01*
X7821548Y-16408833D01*
X7821548Y-16370738D01*
X7812024Y-16323119D01*
X7802500Y-16294548D01*
X7792976Y-16275500D01*
X7773928Y-16246928D01*
X7764405Y-16237405D01*
D15*
X2980784Y-16667784D02*
X2980784Y-16611215D01*
X2924215Y-16611215D01*
X2924215Y-16667784D01*
X2980784Y-16667784D01*
D11*
X3288214Y-16529976D02*
X3307262Y-16529976D01*
X3326309Y-16539500D01*
X3335833Y-16549024D01*
X3345357Y-16568071D01*
X3354881Y-16606167D01*
X3354881Y-16653786D01*
X3345357Y-16691881D01*
X3335833Y-16710928D01*
X3326309Y-16720452D01*
X3307262Y-16729976D01*
X3288214Y-16729976D01*
X3269167Y-16720452D01*
X3259643Y-16710928D01*
X3250119Y-16691881D01*
X3240595Y-16653786D01*
X3240595Y-16606167D01*
X3250119Y-16568071D01*
X3259643Y-16549024D01*
X3269167Y-16539500D01*
X3288214Y-16529976D01*
X3440595Y-16710928D02*
X3450119Y-16720452D01*
X3440595Y-16729976D01*
X3431071Y-16720452D01*
X3440595Y-16710928D01*
X3440595Y-16729976D01*
X3564405Y-16615690D02*
X3545357Y-16606167D01*
X3535833Y-16596643D01*
X3526309Y-16577595D01*
X3526309Y-16568071D01*
X3535833Y-16549024D01*
X3545357Y-16539500D01*
X3564405Y-16529976D01*
X3602500Y-16529976D01*
X3621548Y-16539500D01*
X3631071Y-16549024D01*
X3640595Y-16568071D01*
X3640595Y-16577595D01*
X3631071Y-16596643D01*
X3621548Y-16606167D01*
X3602500Y-16615690D01*
X3564405Y-16615690D01*
X3545357Y-16625214D01*
X3535833Y-16634738D01*
X3526309Y-16653786D01*
X3526309Y-16691881D01*
X3535833Y-16710928D01*
X3545357Y-16720452D01*
X3564405Y-16729976D01*
X3602500Y-16729976D01*
X3621548Y-16720452D01*
X3631071Y-16710928D01*
X3640595Y-16691881D01*
X3640595Y-16653786D01*
X3631071Y-16634738D01*
X3621548Y-16625214D01*
X3602500Y-16615690D01*
X3764405Y-16529976D02*
X3783452Y-16529976D01*
X3802500Y-16539500D01*
X3812024Y-16549024D01*
X3821548Y-16568071D01*
X3831071Y-16606167D01*
X3831071Y-16653786D01*
X3821548Y-16691881D01*
X3812024Y-16710928D01*
X3802500Y-16720452D01*
X3783452Y-16729976D01*
X3764405Y-16729976D01*
X3745357Y-16720452D01*
X3735833Y-16710928D01*
X3726309Y-16691881D01*
X3716786Y-16653786D01*
X3716786Y-16606167D01*
X3726309Y-16568071D01*
X3735833Y-16549024D01*
X3745357Y-16539500D01*
X3764405Y-16529976D01*
X3954881Y-16529976D02*
X3973928Y-16529976D01*
X3992976Y-16539500D01*
X4002500Y-16549024D01*
X4012024Y-16568071D01*
X4021548Y-16606167D01*
X4021548Y-16653786D01*
X4012024Y-16691881D01*
X4002500Y-16710928D01*
X3992976Y-16720452D01*
X3973928Y-16729976D01*
X3954881Y-16729976D01*
X3935833Y-16720452D01*
X3926309Y-16710928D01*
X3916786Y-16691881D01*
X3907262Y-16653786D01*
X3907262Y-16606167D01*
X3916786Y-16568071D01*
X3926309Y-16549024D01*
X3935833Y-16539500D01*
X3954881Y-16529976D01*
X4107262Y-16729976D02*
X4107262Y-16596643D01*
X4107262Y-16615690D02*
X4116786Y-16606167D01*
X4135833Y-16596643D01*
X4164405Y-16596643D01*
X4183452Y-16606167D01*
X4192976Y-16625214D01*
X4192976Y-16729976D01*
X4192976Y-16625214D02*
X4202500Y-16606167D01*
X4221548Y-16596643D01*
X4250119Y-16596643D01*
X4269167Y-16606167D01*
X4278690Y-16625214D01*
X4278690Y-16729976D01*
X4373929Y-16729976D02*
X4373929Y-16596643D01*
X4373929Y-16615690D02*
X4383452Y-16606167D01*
X4402500Y-16596643D01*
X4431071Y-16596643D01*
X4450119Y-16606167D01*
X4459643Y-16625214D01*
X4459643Y-16729976D01*
X4459643Y-16625214D02*
X4469167Y-16606167D01*
X4488214Y-16596643D01*
X4516786Y-16596643D01*
X4535833Y-16606167D01*
X4545357Y-16625214D01*
X4545357Y-16729976D01*
X4935833Y-16520452D02*
X4764405Y-16777595D01*
X5192976Y-16529976D02*
X5212024Y-16529976D01*
X5231071Y-16539500D01*
X5240595Y-16549024D01*
X5250119Y-16568071D01*
X5259643Y-16606167D01*
X5259643Y-16653786D01*
X5250119Y-16691881D01*
X5240595Y-16710928D01*
X5231071Y-16720452D01*
X5212024Y-16729976D01*
X5192976Y-16729976D01*
X5173929Y-16720452D01*
X5164405Y-16710928D01*
X5154881Y-16691881D01*
X5145357Y-16653786D01*
X5145357Y-16606167D01*
X5154881Y-16568071D01*
X5164405Y-16549024D01*
X5173929Y-16539500D01*
X5192976Y-16529976D01*
X5345357Y-16710928D02*
X5354881Y-16720452D01*
X5345357Y-16729976D01*
X5335833Y-16720452D01*
X5345357Y-16710928D01*
X5345357Y-16729976D01*
X5478690Y-16529976D02*
X5497738Y-16529976D01*
X5516786Y-16539500D01*
X5526310Y-16549024D01*
X5535833Y-16568071D01*
X5545357Y-16606167D01*
X5545357Y-16653786D01*
X5535833Y-16691881D01*
X5526310Y-16710928D01*
X5516786Y-16720452D01*
X5497738Y-16729976D01*
X5478690Y-16729976D01*
X5459643Y-16720452D01*
X5450119Y-16710928D01*
X5440595Y-16691881D01*
X5431071Y-16653786D01*
X5431071Y-16606167D01*
X5440595Y-16568071D01*
X5450119Y-16549024D01*
X5459643Y-16539500D01*
X5478690Y-16529976D01*
X5612024Y-16529976D02*
X5735833Y-16529976D01*
X5669167Y-16606167D01*
X5697738Y-16606167D01*
X5716786Y-16615690D01*
X5726309Y-16625214D01*
X5735833Y-16644262D01*
X5735833Y-16691881D01*
X5726309Y-16710928D01*
X5716786Y-16720452D01*
X5697738Y-16729976D01*
X5640595Y-16729976D01*
X5621548Y-16720452D01*
X5612024Y-16710928D01*
X5926309Y-16729976D02*
X5812024Y-16729976D01*
X5869167Y-16729976D02*
X5869167Y-16529976D01*
X5850119Y-16558548D01*
X5831071Y-16577595D01*
X5812024Y-16587119D01*
X6107262Y-16529976D02*
X6012024Y-16529976D01*
X6002500Y-16625214D01*
X6012024Y-16615690D01*
X6031071Y-16606167D01*
X6078690Y-16606167D01*
X6097738Y-16615690D01*
X6107262Y-16625214D01*
X6116786Y-16644262D01*
X6116786Y-16691881D01*
X6107262Y-16710928D01*
X6097738Y-16720452D01*
X6078690Y-16729976D01*
X6031071Y-16729976D01*
X6012024Y-16720452D01*
X6002500Y-16710928D01*
X6192976Y-16529976D02*
X6192976Y-16568071D01*
X6269167Y-16529976D02*
X6269167Y-16568071D01*
X6564405Y-16806167D02*
X6554881Y-16796643D01*
X6535833Y-16768071D01*
X6526309Y-16749024D01*
X6516786Y-16720452D01*
X6507262Y-16672833D01*
X6507262Y-16634738D01*
X6516786Y-16587119D01*
X6526309Y-16558548D01*
X6535833Y-16539500D01*
X6554881Y-16510928D01*
X6564405Y-16501405D01*
X6631071Y-16549024D02*
X6640595Y-16539500D01*
X6659643Y-16529976D01*
X6707262Y-16529976D01*
X6726309Y-16539500D01*
X6735833Y-16549024D01*
X6745357Y-16568071D01*
X6745357Y-16587119D01*
X6735833Y-16615690D01*
X6621548Y-16729976D01*
X6745357Y-16729976D01*
X6983452Y-16729976D02*
X6983452Y-16529976D01*
X7069167Y-16729976D02*
X7069167Y-16625214D01*
X7059643Y-16606167D01*
X7040595Y-16596643D01*
X7012024Y-16596643D01*
X6992976Y-16606167D01*
X6983452Y-16615690D01*
X7192976Y-16729976D02*
X7173928Y-16720452D01*
X7164405Y-16710928D01*
X7154881Y-16691881D01*
X7154881Y-16634738D01*
X7164405Y-16615690D01*
X7173928Y-16606167D01*
X7192976Y-16596643D01*
X7221548Y-16596643D01*
X7240595Y-16606167D01*
X7250119Y-16615690D01*
X7259643Y-16634738D01*
X7259643Y-16691881D01*
X7250119Y-16710928D01*
X7240595Y-16720452D01*
X7221548Y-16729976D01*
X7192976Y-16729976D01*
X7373928Y-16729976D02*
X7354881Y-16720452D01*
X7345357Y-16701405D01*
X7345357Y-16529976D01*
X7526309Y-16720452D02*
X7507262Y-16729976D01*
X7469167Y-16729976D01*
X7450119Y-16720452D01*
X7440595Y-16701405D01*
X7440595Y-16625214D01*
X7450119Y-16606167D01*
X7469167Y-16596643D01*
X7507262Y-16596643D01*
X7526309Y-16606167D01*
X7535833Y-16625214D01*
X7535833Y-16644262D01*
X7440595Y-16663309D01*
X7612024Y-16720452D02*
X7631071Y-16729976D01*
X7669167Y-16729976D01*
X7688214Y-16720452D01*
X7697738Y-16701405D01*
X7697738Y-16691881D01*
X7688214Y-16672833D01*
X7669167Y-16663309D01*
X7640595Y-16663309D01*
X7621548Y-16653786D01*
X7612024Y-16634738D01*
X7612024Y-16625214D01*
X7621548Y-16606167D01*
X7640595Y-16596643D01*
X7669167Y-16596643D01*
X7688214Y-16606167D01*
X7764405Y-16806167D02*
X7773928Y-16796643D01*
X7792976Y-16768071D01*
X7802500Y-16749024D01*
X7812024Y-16720452D01*
X7821548Y-16672833D01*
X7821548Y-16634738D01*
X7812024Y-16587119D01*
X7802500Y-16558548D01*
X7792976Y-16539500D01*
X7773928Y-16510928D01*
X7764405Y-16501405D01*
D16*
X2942500Y-16953500D02*
X2992500Y-16903500D01*
X2942500Y-16853500D01*
X2892500Y-16903500D01*
X2942500Y-16953500D01*
D11*
X3354881Y-16993976D02*
X3240595Y-16993976D01*
X3297738Y-16993976D02*
X3297738Y-16793976D01*
X3278690Y-16822548D01*
X3259643Y-16841595D01*
X3240595Y-16851119D01*
X3440595Y-16974929D02*
X3450119Y-16984452D01*
X3440595Y-16993976D01*
X3431071Y-16984452D01*
X3440595Y-16974929D01*
X3440595Y-16993976D01*
X3573928Y-16793976D02*
X3592976Y-16793976D01*
X3612024Y-16803500D01*
X3621548Y-16813024D01*
X3631071Y-16832071D01*
X3640595Y-16870167D01*
X3640595Y-16917786D01*
X3631071Y-16955881D01*
X3621548Y-16974929D01*
X3612024Y-16984452D01*
X3592976Y-16993976D01*
X3573928Y-16993976D01*
X3554881Y-16984452D01*
X3545357Y-16974929D01*
X3535833Y-16955881D01*
X3526309Y-16917786D01*
X3526309Y-16870167D01*
X3535833Y-16832071D01*
X3545357Y-16813024D01*
X3554881Y-16803500D01*
X3573928Y-16793976D01*
X3764405Y-16793976D02*
X3783452Y-16793976D01*
X3802500Y-16803500D01*
X3812024Y-16813024D01*
X3821548Y-16832071D01*
X3831071Y-16870167D01*
X3831071Y-16917786D01*
X3821548Y-16955881D01*
X3812024Y-16974929D01*
X3802500Y-16984452D01*
X3783452Y-16993976D01*
X3764405Y-16993976D01*
X3745357Y-16984452D01*
X3735833Y-16974929D01*
X3726309Y-16955881D01*
X3716786Y-16917786D01*
X3716786Y-16870167D01*
X3726309Y-16832071D01*
X3735833Y-16813024D01*
X3745357Y-16803500D01*
X3764405Y-16793976D01*
X3954881Y-16793976D02*
X3973928Y-16793976D01*
X3992976Y-16803500D01*
X4002500Y-16813024D01*
X4012024Y-16832071D01*
X4021548Y-16870167D01*
X4021548Y-16917786D01*
X4012024Y-16955881D01*
X4002500Y-16974929D01*
X3992976Y-16984452D01*
X3973928Y-16993976D01*
X3954881Y-16993976D01*
X3935833Y-16984452D01*
X3926309Y-16974929D01*
X3916786Y-16955881D01*
X3907262Y-16917786D01*
X3907262Y-16870167D01*
X3916786Y-16832071D01*
X3926309Y-16813024D01*
X3935833Y-16803500D01*
X3954881Y-16793976D01*
X4107262Y-16993976D02*
X4107262Y-16860643D01*
X4107262Y-16879690D02*
X4116786Y-16870167D01*
X4135833Y-16860643D01*
X4164405Y-16860643D01*
X4183452Y-16870167D01*
X4192976Y-16889214D01*
X4192976Y-16993976D01*
X4192976Y-16889214D02*
X4202500Y-16870167D01*
X4221548Y-16860643D01*
X4250119Y-16860643D01*
X4269167Y-16870167D01*
X4278690Y-16889214D01*
X4278690Y-16993976D01*
X4373929Y-16993976D02*
X4373929Y-16860643D01*
X4373929Y-16879690D02*
X4383452Y-16870167D01*
X4402500Y-16860643D01*
X4431071Y-16860643D01*
X4450119Y-16870167D01*
X4459643Y-16889214D01*
X4459643Y-16993976D01*
X4459643Y-16889214D02*
X4469167Y-16870167D01*
X4488214Y-16860643D01*
X4516786Y-16860643D01*
X4535833Y-16870167D01*
X4545357Y-16889214D01*
X4545357Y-16993976D01*
X4935833Y-16784452D02*
X4764405Y-17041595D01*
X5192976Y-16793976D02*
X5212024Y-16793976D01*
X5231071Y-16803500D01*
X5240595Y-16813024D01*
X5250119Y-16832071D01*
X5259643Y-16870167D01*
X5259643Y-16917786D01*
X5250119Y-16955881D01*
X5240595Y-16974929D01*
X5231071Y-16984452D01*
X5212024Y-16993976D01*
X5192976Y-16993976D01*
X5173929Y-16984452D01*
X5164405Y-16974929D01*
X5154881Y-16955881D01*
X5145357Y-16917786D01*
X5145357Y-16870167D01*
X5154881Y-16832071D01*
X5164405Y-16813024D01*
X5173929Y-16803500D01*
X5192976Y-16793976D01*
X5345357Y-16974929D02*
X5354881Y-16984452D01*
X5345357Y-16993976D01*
X5335833Y-16984452D01*
X5345357Y-16974929D01*
X5345357Y-16993976D01*
X5478690Y-16793976D02*
X5497738Y-16793976D01*
X5516786Y-16803500D01*
X5526310Y-16813024D01*
X5535833Y-16832071D01*
X5545357Y-16870167D01*
X5545357Y-16917786D01*
X5535833Y-16955881D01*
X5526310Y-16974929D01*
X5516786Y-16984452D01*
X5497738Y-16993976D01*
X5478690Y-16993976D01*
X5459643Y-16984452D01*
X5450119Y-16974929D01*
X5440595Y-16955881D01*
X5431071Y-16917786D01*
X5431071Y-16870167D01*
X5440595Y-16832071D01*
X5450119Y-16813024D01*
X5459643Y-16803500D01*
X5478690Y-16793976D01*
X5612024Y-16793976D02*
X5735833Y-16793976D01*
X5669167Y-16870167D01*
X5697738Y-16870167D01*
X5716786Y-16879690D01*
X5726309Y-16889214D01*
X5735833Y-16908262D01*
X5735833Y-16955881D01*
X5726309Y-16974929D01*
X5716786Y-16984452D01*
X5697738Y-16993976D01*
X5640595Y-16993976D01*
X5621548Y-16984452D01*
X5612024Y-16974929D01*
X5831071Y-16993976D02*
X5869167Y-16993976D01*
X5888214Y-16984452D01*
X5897738Y-16974929D01*
X5916786Y-16946357D01*
X5926309Y-16908262D01*
X5926309Y-16832071D01*
X5916786Y-16813024D01*
X5907262Y-16803500D01*
X5888214Y-16793976D01*
X5850119Y-16793976D01*
X5831071Y-16803500D01*
X5821548Y-16813024D01*
X5812024Y-16832071D01*
X5812024Y-16879690D01*
X5821548Y-16898738D01*
X5831071Y-16908262D01*
X5850119Y-16917786D01*
X5888214Y-16917786D01*
X5907262Y-16908262D01*
X5916786Y-16898738D01*
X5926309Y-16879690D01*
X6097738Y-16860643D02*
X6097738Y-16993976D01*
X6050119Y-16784452D02*
X6002500Y-16927310D01*
X6126309Y-16927310D01*
X6192976Y-16793976D02*
X6192976Y-16832071D01*
X6269167Y-16793976D02*
X6269167Y-16832071D01*
X6564405Y-17070167D02*
X6554881Y-17060643D01*
X6535833Y-17032071D01*
X6526309Y-17013024D01*
X6516786Y-16984452D01*
X6507262Y-16936833D01*
X6507262Y-16898738D01*
X6516786Y-16851119D01*
X6526309Y-16822548D01*
X6535833Y-16803500D01*
X6554881Y-16774928D01*
X6564405Y-16765405D01*
X6621548Y-16793976D02*
X6745357Y-16793976D01*
X6678690Y-16870167D01*
X6707262Y-16870167D01*
X6726309Y-16879690D01*
X6735833Y-16889214D01*
X6745357Y-16908262D01*
X6745357Y-16955881D01*
X6735833Y-16974929D01*
X6726309Y-16984452D01*
X6707262Y-16993976D01*
X6650119Y-16993976D01*
X6631071Y-16984452D01*
X6621548Y-16974929D01*
X6812024Y-16793976D02*
X6935833Y-16793976D01*
X6869167Y-16870167D01*
X6897738Y-16870167D01*
X6916786Y-16879690D01*
X6926309Y-16889214D01*
X6935833Y-16908262D01*
X6935833Y-16955881D01*
X6926309Y-16974929D01*
X6916786Y-16984452D01*
X6897738Y-16993976D01*
X6840595Y-16993976D01*
X6821548Y-16984452D01*
X6812024Y-16974929D01*
X7173928Y-16993976D02*
X7173928Y-16793976D01*
X7259643Y-16993976D02*
X7259643Y-16889214D01*
X7250119Y-16870167D01*
X7231071Y-16860643D01*
X7202500Y-16860643D01*
X7183452Y-16870167D01*
X7173928Y-16879690D01*
X7383452Y-16993976D02*
X7364405Y-16984452D01*
X7354881Y-16974929D01*
X7345357Y-16955881D01*
X7345357Y-16898738D01*
X7354881Y-16879690D01*
X7364405Y-16870167D01*
X7383452Y-16860643D01*
X7412024Y-16860643D01*
X7431071Y-16870167D01*
X7440595Y-16879690D01*
X7450119Y-16898738D01*
X7450119Y-16955881D01*
X7440595Y-16974929D01*
X7431071Y-16984452D01*
X7412024Y-16993976D01*
X7383452Y-16993976D01*
X7564405Y-16993976D02*
X7545357Y-16984452D01*
X7535833Y-16965405D01*
X7535833Y-16793976D01*
X7716786Y-16984452D02*
X7697738Y-16993976D01*
X7659643Y-16993976D01*
X7640595Y-16984452D01*
X7631071Y-16965405D01*
X7631071Y-16889214D01*
X7640595Y-16870167D01*
X7659643Y-16860643D01*
X7697738Y-16860643D01*
X7716786Y-16870167D01*
X7726309Y-16889214D01*
X7726309Y-16908262D01*
X7631071Y-16927310D01*
X7802500Y-16984452D02*
X7821548Y-16993976D01*
X7859643Y-16993976D01*
X7878690Y-16984452D01*
X7888214Y-16965405D01*
X7888214Y-16955881D01*
X7878690Y-16936833D01*
X7859643Y-16927310D01*
X7831071Y-16927310D01*
X7812024Y-16917786D01*
X7802500Y-16898738D01*
X7802500Y-16889214D01*
X7812024Y-16870167D01*
X7831071Y-16860643D01*
X7859643Y-16860643D01*
X7878690Y-16870167D01*
X7954881Y-17070167D02*
X7964405Y-17060643D01*
X7983452Y-17032071D01*
X7992976Y-17013024D01*
X8002500Y-16984452D01*
X8012024Y-16936833D01*
X8012024Y-16898738D01*
X8002500Y-16851119D01*
X7992976Y-16822548D01*
X7983452Y-16803500D01*
X7964405Y-16774928D01*
X7954881Y-16765405D01*
D17*
X2882500Y-17112500D02*
X2992500Y-17222500D01*
X2992500Y-17112500D02*
X2882500Y-17222500D01*
X2992500Y-17167500D02*
G75*
G03*
X2992500Y-17167500I-55000J0D01*
G01*
D11*
X3354881Y-17257976D02*
X3240595Y-17257976D01*
X3297738Y-17257976D02*
X3297738Y-17057976D01*
X3278690Y-17086548D01*
X3259643Y-17105595D01*
X3240595Y-17115119D01*
X3440595Y-17238929D02*
X3450119Y-17248452D01*
X3440595Y-17257976D01*
X3431071Y-17248452D01*
X3440595Y-17238929D01*
X3440595Y-17257976D01*
X3640595Y-17257976D02*
X3526309Y-17257976D01*
X3583452Y-17257976D02*
X3583452Y-17057976D01*
X3564405Y-17086548D01*
X3545357Y-17105595D01*
X3526309Y-17115119D01*
X3764405Y-17057976D02*
X3783452Y-17057976D01*
X3802500Y-17067500D01*
X3812024Y-17077024D01*
X3821548Y-17096071D01*
X3831071Y-17134167D01*
X3831071Y-17181786D01*
X3821548Y-17219881D01*
X3812024Y-17238929D01*
X3802500Y-17248452D01*
X3783452Y-17257976D01*
X3764405Y-17257976D01*
X3745357Y-17248452D01*
X3735833Y-17238929D01*
X3726309Y-17219881D01*
X3716786Y-17181786D01*
X3716786Y-17134167D01*
X3726309Y-17096071D01*
X3735833Y-17077024D01*
X3745357Y-17067500D01*
X3764405Y-17057976D01*
X3954881Y-17057976D02*
X3973928Y-17057976D01*
X3992976Y-17067500D01*
X4002500Y-17077024D01*
X4012024Y-17096071D01*
X4021548Y-17134167D01*
X4021548Y-17181786D01*
X4012024Y-17219881D01*
X4002500Y-17238929D01*
X3992976Y-17248452D01*
X3973928Y-17257976D01*
X3954881Y-17257976D01*
X3935833Y-17248452D01*
X3926309Y-17238929D01*
X3916786Y-17219881D01*
X3907262Y-17181786D01*
X3907262Y-17134167D01*
X3916786Y-17096071D01*
X3926309Y-17077024D01*
X3935833Y-17067500D01*
X3954881Y-17057976D01*
X4107262Y-17257976D02*
X4107262Y-17124643D01*
X4107262Y-17143690D02*
X4116786Y-17134167D01*
X4135833Y-17124643D01*
X4164405Y-17124643D01*
X4183452Y-17134167D01*
X4192976Y-17153214D01*
X4192976Y-17257976D01*
X4192976Y-17153214D02*
X4202500Y-17134167D01*
X4221548Y-17124643D01*
X4250119Y-17124643D01*
X4269167Y-17134167D01*
X4278690Y-17153214D01*
X4278690Y-17257976D01*
X4373929Y-17257976D02*
X4373929Y-17124643D01*
X4373929Y-17143690D02*
X4383452Y-17134167D01*
X4402500Y-17124643D01*
X4431071Y-17124643D01*
X4450119Y-17134167D01*
X4459643Y-17153214D01*
X4459643Y-17257976D01*
X4459643Y-17153214D02*
X4469167Y-17134167D01*
X4488214Y-17124643D01*
X4516786Y-17124643D01*
X4535833Y-17134167D01*
X4545357Y-17153214D01*
X4545357Y-17257976D01*
X4935833Y-17048452D02*
X4764405Y-17305595D01*
X5192976Y-17057976D02*
X5212024Y-17057976D01*
X5231071Y-17067500D01*
X5240595Y-17077024D01*
X5250119Y-17096071D01*
X5259643Y-17134167D01*
X5259643Y-17181786D01*
X5250119Y-17219881D01*
X5240595Y-17238929D01*
X5231071Y-17248452D01*
X5212024Y-17257976D01*
X5192976Y-17257976D01*
X5173929Y-17248452D01*
X5164405Y-17238929D01*
X5154881Y-17219881D01*
X5145357Y-17181786D01*
X5145357Y-17134167D01*
X5154881Y-17096071D01*
X5164405Y-17077024D01*
X5173929Y-17067500D01*
X5192976Y-17057976D01*
X5345357Y-17238929D02*
X5354881Y-17248452D01*
X5345357Y-17257976D01*
X5335833Y-17248452D01*
X5345357Y-17238929D01*
X5345357Y-17257976D01*
X5478690Y-17057976D02*
X5497738Y-17057976D01*
X5516786Y-17067500D01*
X5526310Y-17077024D01*
X5535833Y-17096071D01*
X5545357Y-17134167D01*
X5545357Y-17181786D01*
X5535833Y-17219881D01*
X5526310Y-17238929D01*
X5516786Y-17248452D01*
X5497738Y-17257976D01*
X5478690Y-17257976D01*
X5459643Y-17248452D01*
X5450119Y-17238929D01*
X5440595Y-17219881D01*
X5431071Y-17181786D01*
X5431071Y-17134167D01*
X5440595Y-17096071D01*
X5450119Y-17077024D01*
X5459643Y-17067500D01*
X5478690Y-17057976D01*
X5716786Y-17124643D02*
X5716786Y-17257976D01*
X5669167Y-17048452D02*
X5621548Y-17191310D01*
X5745357Y-17191310D01*
X5802500Y-17057976D02*
X5926309Y-17057976D01*
X5859643Y-17134167D01*
X5888214Y-17134167D01*
X5907262Y-17143690D01*
X5916786Y-17153214D01*
X5926309Y-17172262D01*
X5926309Y-17219881D01*
X5916786Y-17238929D01*
X5907262Y-17248452D01*
X5888214Y-17257976D01*
X5831071Y-17257976D01*
X5812024Y-17248452D01*
X5802500Y-17238929D01*
X5992976Y-17057976D02*
X6116786Y-17057976D01*
X6050119Y-17134167D01*
X6078690Y-17134167D01*
X6097738Y-17143690D01*
X6107262Y-17153214D01*
X6116786Y-17172262D01*
X6116786Y-17219881D01*
X6107262Y-17238929D01*
X6097738Y-17248452D01*
X6078690Y-17257976D01*
X6021548Y-17257976D01*
X6002500Y-17248452D01*
X5992976Y-17238929D01*
X6192976Y-17057976D02*
X6192976Y-17096071D01*
X6269167Y-17057976D02*
X6269167Y-17096071D01*
X6564405Y-17334167D02*
X6554881Y-17324643D01*
X6535833Y-17296071D01*
X6526309Y-17277024D01*
X6516786Y-17248452D01*
X6507262Y-17200833D01*
X6507262Y-17162738D01*
X6516786Y-17115119D01*
X6526309Y-17086548D01*
X6535833Y-17067500D01*
X6554881Y-17038929D01*
X6564405Y-17029405D01*
X6735833Y-17057976D02*
X6640595Y-17057976D01*
X6631071Y-17153214D01*
X6640595Y-17143690D01*
X6659643Y-17134167D01*
X6707262Y-17134167D01*
X6726309Y-17143690D01*
X6735833Y-17153214D01*
X6745357Y-17172262D01*
X6745357Y-17219881D01*
X6735833Y-17238929D01*
X6726309Y-17248452D01*
X6707262Y-17257976D01*
X6659643Y-17257976D01*
X6640595Y-17248452D01*
X6631071Y-17238929D01*
X6983452Y-17257976D02*
X6983452Y-17057976D01*
X7069167Y-17257976D02*
X7069167Y-17153214D01*
X7059643Y-17134167D01*
X7040595Y-17124643D01*
X7012024Y-17124643D01*
X6992976Y-17134167D01*
X6983452Y-17143690D01*
X7192976Y-17257976D02*
X7173928Y-17248452D01*
X7164405Y-17238929D01*
X7154881Y-17219881D01*
X7154881Y-17162738D01*
X7164405Y-17143690D01*
X7173928Y-17134167D01*
X7192976Y-17124643D01*
X7221548Y-17124643D01*
X7240595Y-17134167D01*
X7250119Y-17143690D01*
X7259643Y-17162738D01*
X7259643Y-17219881D01*
X7250119Y-17238929D01*
X7240595Y-17248452D01*
X7221548Y-17257976D01*
X7192976Y-17257976D01*
X7373928Y-17257976D02*
X7354881Y-17248452D01*
X7345357Y-17229405D01*
X7345357Y-17057976D01*
X7526309Y-17248452D02*
X7507262Y-17257976D01*
X7469167Y-17257976D01*
X7450119Y-17248452D01*
X7440595Y-17229405D01*
X7440595Y-17153214D01*
X7450119Y-17134167D01*
X7469167Y-17124643D01*
X7507262Y-17124643D01*
X7526309Y-17134167D01*
X7535833Y-17153214D01*
X7535833Y-17172262D01*
X7440595Y-17191310D01*
X7612024Y-17248452D02*
X7631071Y-17257976D01*
X7669167Y-17257976D01*
X7688214Y-17248452D01*
X7697738Y-17229405D01*
X7697738Y-17219881D01*
X7688214Y-17200833D01*
X7669167Y-17191310D01*
X7640595Y-17191310D01*
X7621548Y-17181786D01*
X7612024Y-17162738D01*
X7612024Y-17153214D01*
X7621548Y-17134167D01*
X7640595Y-17124643D01*
X7669167Y-17124643D01*
X7688214Y-17134167D01*
X7764405Y-17334167D02*
X7773928Y-17324643D01*
X7792976Y-17296071D01*
X7802500Y-17277024D01*
X7812024Y-17248452D01*
X7821548Y-17200833D01*
X7821548Y-17162738D01*
X7812024Y-17115119D01*
X7802500Y-17086548D01*
X7792976Y-17067500D01*
X7773928Y-17038929D01*
X7764405Y-17029405D01*
D18*
X2865500Y-17368000D02*
X2992500Y-17495000D01*
X2992500Y-17368000D02*
X2865500Y-17495000D01*
X2929000Y-17368000D02*
X2929000Y-17495000D01*
X2865500Y-17431500D02*
X2992500Y-17431500D01*
D11*
X3354881Y-17521976D02*
X3240595Y-17521976D01*
X3297738Y-17521976D02*
X3297738Y-17321976D01*
X3278690Y-17350548D01*
X3259643Y-17369595D01*
X3240595Y-17379119D01*
X3440595Y-17502929D02*
X3450119Y-17512452D01*
X3440595Y-17521976D01*
X3431071Y-17512452D01*
X3440595Y-17502929D01*
X3440595Y-17521976D01*
X3526309Y-17341024D02*
X3535833Y-17331500D01*
X3554881Y-17321976D01*
X3602500Y-17321976D01*
X3621548Y-17331500D01*
X3631071Y-17341024D01*
X3640595Y-17360071D01*
X3640595Y-17379119D01*
X3631071Y-17407690D01*
X3516786Y-17521976D01*
X3640595Y-17521976D01*
X3707262Y-17321976D02*
X3840595Y-17321976D01*
X3754881Y-17521976D01*
X3954881Y-17321976D02*
X3973928Y-17321976D01*
X3992976Y-17331500D01*
X4002500Y-17341024D01*
X4012024Y-17360071D01*
X4021548Y-17398167D01*
X4021548Y-17445786D01*
X4012024Y-17483881D01*
X4002500Y-17502929D01*
X3992976Y-17512452D01*
X3973928Y-17521976D01*
X3954881Y-17521976D01*
X3935833Y-17512452D01*
X3926309Y-17502929D01*
X3916786Y-17483881D01*
X3907262Y-17445786D01*
X3907262Y-17398167D01*
X3916786Y-17360071D01*
X3926309Y-17341024D01*
X3935833Y-17331500D01*
X3954881Y-17321976D01*
X4107262Y-17521976D02*
X4107262Y-17388643D01*
X4107262Y-17407690D02*
X4116786Y-17398167D01*
X4135833Y-17388643D01*
X4164405Y-17388643D01*
X4183452Y-17398167D01*
X4192976Y-17417214D01*
X4192976Y-17521976D01*
X4192976Y-17417214D02*
X4202500Y-17398167D01*
X4221548Y-17388643D01*
X4250119Y-17388643D01*
X4269167Y-17398167D01*
X4278690Y-17417214D01*
X4278690Y-17521976D01*
X4373929Y-17521976D02*
X4373929Y-17388643D01*
X4373929Y-17407690D02*
X4383452Y-17398167D01*
X4402500Y-17388643D01*
X4431071Y-17388643D01*
X4450119Y-17398167D01*
X4459643Y-17417214D01*
X4459643Y-17521976D01*
X4459643Y-17417214D02*
X4469167Y-17398167D01*
X4488214Y-17388643D01*
X4516786Y-17388643D01*
X4535833Y-17398167D01*
X4545357Y-17417214D01*
X4545357Y-17521976D01*
X4935833Y-17312452D02*
X4764405Y-17569595D01*
X5192976Y-17321976D02*
X5212024Y-17321976D01*
X5231071Y-17331500D01*
X5240595Y-17341024D01*
X5250119Y-17360071D01*
X5259643Y-17398167D01*
X5259643Y-17445786D01*
X5250119Y-17483881D01*
X5240595Y-17502929D01*
X5231071Y-17512452D01*
X5212024Y-17521976D01*
X5192976Y-17521976D01*
X5173929Y-17512452D01*
X5164405Y-17502929D01*
X5154881Y-17483881D01*
X5145357Y-17445786D01*
X5145357Y-17398167D01*
X5154881Y-17360071D01*
X5164405Y-17341024D01*
X5173929Y-17331500D01*
X5192976Y-17321976D01*
X5345357Y-17502929D02*
X5354881Y-17512452D01*
X5345357Y-17521976D01*
X5335833Y-17512452D01*
X5345357Y-17502929D01*
X5345357Y-17521976D01*
X5478690Y-17321976D02*
X5497738Y-17321976D01*
X5516786Y-17331500D01*
X5526310Y-17341024D01*
X5535833Y-17360071D01*
X5545357Y-17398167D01*
X5545357Y-17445786D01*
X5535833Y-17483881D01*
X5526310Y-17502929D01*
X5516786Y-17512452D01*
X5497738Y-17521976D01*
X5478690Y-17521976D01*
X5459643Y-17512452D01*
X5450119Y-17502929D01*
X5440595Y-17483881D01*
X5431071Y-17445786D01*
X5431071Y-17398167D01*
X5440595Y-17360071D01*
X5450119Y-17341024D01*
X5459643Y-17331500D01*
X5478690Y-17321976D01*
X5726309Y-17321976D02*
X5631071Y-17321976D01*
X5621548Y-17417214D01*
X5631071Y-17407690D01*
X5650119Y-17398167D01*
X5697738Y-17398167D01*
X5716786Y-17407690D01*
X5726309Y-17417214D01*
X5735833Y-17436262D01*
X5735833Y-17483881D01*
X5726309Y-17502929D01*
X5716786Y-17512452D01*
X5697738Y-17521976D01*
X5650119Y-17521976D01*
X5631071Y-17512452D01*
X5621548Y-17502929D01*
X5859643Y-17321976D02*
X5878690Y-17321976D01*
X5897738Y-17331500D01*
X5907262Y-17341024D01*
X5916786Y-17360071D01*
X5926309Y-17398167D01*
X5926309Y-17445786D01*
X5916786Y-17483881D01*
X5907262Y-17502929D01*
X5897738Y-17512452D01*
X5878690Y-17521976D01*
X5859643Y-17521976D01*
X5840595Y-17512452D01*
X5831071Y-17502929D01*
X5821548Y-17483881D01*
X5812024Y-17445786D01*
X5812024Y-17398167D01*
X5821548Y-17360071D01*
X5831071Y-17341024D01*
X5840595Y-17331500D01*
X5859643Y-17321976D01*
X6050119Y-17321976D02*
X6069167Y-17321976D01*
X6088214Y-17331500D01*
X6097738Y-17341024D01*
X6107262Y-17360071D01*
X6116786Y-17398167D01*
X6116786Y-17445786D01*
X6107262Y-17483881D01*
X6097738Y-17502929D01*
X6088214Y-17512452D01*
X6069167Y-17521976D01*
X6050119Y-17521976D01*
X6031071Y-17512452D01*
X6021548Y-17502929D01*
X6012024Y-17483881D01*
X6002500Y-17445786D01*
X6002500Y-17398167D01*
X6012024Y-17360071D01*
X6021548Y-17341024D01*
X6031071Y-17331500D01*
X6050119Y-17321976D01*
X6192976Y-17321976D02*
X6192976Y-17360071D01*
X6269167Y-17321976D02*
X6269167Y-17360071D01*
X6564405Y-17598167D02*
X6554881Y-17588643D01*
X6535833Y-17560071D01*
X6526309Y-17541024D01*
X6516786Y-17512452D01*
X6507262Y-17464833D01*
X6507262Y-17426738D01*
X6516786Y-17379119D01*
X6526309Y-17350548D01*
X6535833Y-17331500D01*
X6554881Y-17302929D01*
X6564405Y-17293405D01*
X6678690Y-17321976D02*
X6697738Y-17321976D01*
X6716786Y-17331500D01*
X6726309Y-17341024D01*
X6735833Y-17360071D01*
X6745357Y-17398167D01*
X6745357Y-17445786D01*
X6735833Y-17483881D01*
X6726309Y-17502929D01*
X6716786Y-17512452D01*
X6697738Y-17521976D01*
X6678690Y-17521976D01*
X6659643Y-17512452D01*
X6650119Y-17502929D01*
X6640595Y-17483881D01*
X6631071Y-17445786D01*
X6631071Y-17398167D01*
X6640595Y-17360071D01*
X6650119Y-17341024D01*
X6659643Y-17331500D01*
X6678690Y-17321976D01*
X6983452Y-17521976D02*
X6983452Y-17321976D01*
X7069167Y-17521976D02*
X7069167Y-17417214D01*
X7059643Y-17398167D01*
X7040595Y-17388643D01*
X7012024Y-17388643D01*
X6992976Y-17398167D01*
X6983452Y-17407690D01*
X7192976Y-17521976D02*
X7173928Y-17512452D01*
X7164405Y-17502929D01*
X7154881Y-17483881D01*
X7154881Y-17426738D01*
X7164405Y-17407690D01*
X7173928Y-17398167D01*
X7192976Y-17388643D01*
X7221548Y-17388643D01*
X7240595Y-17398167D01*
X7250119Y-17407690D01*
X7259643Y-17426738D01*
X7259643Y-17483881D01*
X7250119Y-17502929D01*
X7240595Y-17512452D01*
X7221548Y-17521976D01*
X7192976Y-17521976D01*
X7373928Y-17521976D02*
X7354881Y-17512452D01*
X7345357Y-17493405D01*
X7345357Y-17321976D01*
X7526309Y-17512452D02*
X7507262Y-17521976D01*
X7469167Y-17521976D01*
X7450119Y-17512452D01*
X7440595Y-17493405D01*
X7440595Y-17417214D01*
X7450119Y-17398167D01*
X7469167Y-17388643D01*
X7507262Y-17388643D01*
X7526309Y-17398167D01*
X7535833Y-17417214D01*
X7535833Y-17436262D01*
X7440595Y-17455310D01*
X7612024Y-17512452D02*
X7631071Y-17521976D01*
X7669167Y-17521976D01*
X7688214Y-17512452D01*
X7697738Y-17493405D01*
X7697738Y-17483881D01*
X7688214Y-17464833D01*
X7669167Y-17455310D01*
X7640595Y-17455310D01*
X7621548Y-17445786D01*
X7612024Y-17426738D01*
X7612024Y-17417214D01*
X7621548Y-17398167D01*
X7640595Y-17388643D01*
X7669167Y-17388643D01*
X7688214Y-17398167D01*
X7935833Y-17445786D02*
X8088214Y-17445786D01*
X8012024Y-17521976D02*
X8012024Y-17369595D01*
X8364405Y-17407690D02*
X8345357Y-17398167D01*
X8335833Y-17388643D01*
X8326309Y-17369595D01*
X8326309Y-17360071D01*
X8335833Y-17341024D01*
X8345357Y-17331500D01*
X8364405Y-17321976D01*
X8402500Y-17321976D01*
X8421548Y-17331500D01*
X8431071Y-17341024D01*
X8440595Y-17360071D01*
X8440595Y-17369595D01*
X8431071Y-17388643D01*
X8421548Y-17398167D01*
X8402500Y-17407690D01*
X8364405Y-17407690D01*
X8345357Y-17417214D01*
X8335833Y-17426738D01*
X8326309Y-17445786D01*
X8326309Y-17483881D01*
X8335833Y-17502929D01*
X8345357Y-17512452D01*
X8364405Y-17521976D01*
X8402500Y-17521976D01*
X8421548Y-17512452D01*
X8431071Y-17502929D01*
X8440595Y-17483881D01*
X8440595Y-17445786D01*
X8431071Y-17426738D01*
X8421548Y-17417214D01*
X8402500Y-17407690D01*
X8669167Y-17512452D02*
X8688214Y-17521976D01*
X8726310Y-17521976D01*
X8745357Y-17512452D01*
X8754881Y-17493405D01*
X8754881Y-17483881D01*
X8745357Y-17464833D01*
X8726310Y-17455310D01*
X8697738Y-17455310D01*
X8678690Y-17445786D01*
X8669167Y-17426738D01*
X8669167Y-17417214D01*
X8678690Y-17398167D01*
X8697738Y-17388643D01*
X8726310Y-17388643D01*
X8745357Y-17398167D01*
X8869167Y-17521976D02*
X8850119Y-17512452D01*
X8840595Y-17493405D01*
X8840595Y-17321976D01*
X8973929Y-17521976D02*
X8954881Y-17512452D01*
X8945357Y-17502929D01*
X8935833Y-17483881D01*
X8935833Y-17426738D01*
X8945357Y-17407690D01*
X8954881Y-17398167D01*
X8973929Y-17388643D01*
X9002500Y-17388643D01*
X9021548Y-17398167D01*
X9031071Y-17407690D01*
X9040595Y-17426738D01*
X9040595Y-17483881D01*
X9031071Y-17502929D01*
X9021548Y-17512452D01*
X9002500Y-17521976D01*
X8973929Y-17521976D01*
X9097738Y-17388643D02*
X9173929Y-17388643D01*
X9126310Y-17321976D02*
X9126310Y-17493405D01*
X9135833Y-17512452D01*
X9154881Y-17521976D01*
X9173929Y-17521976D01*
X9231071Y-17512452D02*
X9250119Y-17521976D01*
X9288214Y-17521976D01*
X9307262Y-17512452D01*
X9316786Y-17493405D01*
X9316786Y-17483881D01*
X9307262Y-17464833D01*
X9288214Y-17455310D01*
X9259643Y-17455310D01*
X9240595Y-17445786D01*
X9231071Y-17426738D01*
X9231071Y-17417214D01*
X9240595Y-17398167D01*
X9259643Y-17388643D01*
X9288214Y-17388643D01*
X9307262Y-17398167D01*
X9383452Y-17598167D02*
X9392976Y-17588643D01*
X9412024Y-17560071D01*
X9421548Y-17541024D01*
X9431071Y-17512452D01*
X9440595Y-17464833D01*
X9440595Y-17426738D01*
X9431071Y-17379119D01*
X9421548Y-17350548D01*
X9412024Y-17331500D01*
X9392976Y-17302929D01*
X9383452Y-17293405D01*
D19*
X2832500Y-17615500D02*
X2992500Y-17775500D01*
X2992500Y-17615500D02*
X2832500Y-17775500D01*
X2969069Y-17752069D02*
X2969069Y-17638931D01*
X2855931Y-17638931D01*
X2855931Y-17752069D01*
X2969069Y-17752069D01*
D11*
X3354881Y-17785976D02*
X3240595Y-17785976D01*
X3297738Y-17785976D02*
X3297738Y-17585976D01*
X3278690Y-17614548D01*
X3259643Y-17633595D01*
X3240595Y-17643119D01*
X3440595Y-17766929D02*
X3450119Y-17776452D01*
X3440595Y-17785976D01*
X3431071Y-17776452D01*
X3440595Y-17766929D01*
X3440595Y-17785976D01*
X3621548Y-17585976D02*
X3583452Y-17585976D01*
X3564405Y-17595500D01*
X3554881Y-17605024D01*
X3535833Y-17633595D01*
X3526309Y-17671690D01*
X3526309Y-17747881D01*
X3535833Y-17766929D01*
X3545357Y-17776452D01*
X3564405Y-17785976D01*
X3602500Y-17785976D01*
X3621548Y-17776452D01*
X3631071Y-17766929D01*
X3640595Y-17747881D01*
X3640595Y-17700262D01*
X3631071Y-17681214D01*
X3621548Y-17671690D01*
X3602500Y-17662167D01*
X3564405Y-17662167D01*
X3545357Y-17671690D01*
X3535833Y-17681214D01*
X3526309Y-17700262D01*
X3764405Y-17585976D02*
X3783452Y-17585976D01*
X3802500Y-17595500D01*
X3812024Y-17605024D01*
X3821548Y-17624071D01*
X3831071Y-17662167D01*
X3831071Y-17709786D01*
X3821548Y-17747881D01*
X3812024Y-17766929D01*
X3802500Y-17776452D01*
X3783452Y-17785976D01*
X3764405Y-17785976D01*
X3745357Y-17776452D01*
X3735833Y-17766929D01*
X3726309Y-17747881D01*
X3716786Y-17709786D01*
X3716786Y-17662167D01*
X3726309Y-17624071D01*
X3735833Y-17605024D01*
X3745357Y-17595500D01*
X3764405Y-17585976D01*
X3954881Y-17585976D02*
X3973928Y-17585976D01*
X3992976Y-17595500D01*
X4002500Y-17605024D01*
X4012024Y-17624071D01*
X4021548Y-17662167D01*
X4021548Y-17709786D01*
X4012024Y-17747881D01*
X4002500Y-17766929D01*
X3992976Y-17776452D01*
X3973928Y-17785976D01*
X3954881Y-17785976D01*
X3935833Y-17776452D01*
X3926309Y-17766929D01*
X3916786Y-17747881D01*
X3907262Y-17709786D01*
X3907262Y-17662167D01*
X3916786Y-17624071D01*
X3926309Y-17605024D01*
X3935833Y-17595500D01*
X3954881Y-17585976D01*
X4107262Y-17785976D02*
X4107262Y-17652643D01*
X4107262Y-17671690D02*
X4116786Y-17662167D01*
X4135833Y-17652643D01*
X4164405Y-17652643D01*
X4183452Y-17662167D01*
X4192976Y-17681214D01*
X4192976Y-17785976D01*
X4192976Y-17681214D02*
X4202500Y-17662167D01*
X4221548Y-17652643D01*
X4250119Y-17652643D01*
X4269167Y-17662167D01*
X4278690Y-17681214D01*
X4278690Y-17785976D01*
X4373929Y-17785976D02*
X4373929Y-17652643D01*
X4373929Y-17671690D02*
X4383452Y-17662167D01*
X4402500Y-17652643D01*
X4431071Y-17652643D01*
X4450119Y-17662167D01*
X4459643Y-17681214D01*
X4459643Y-17785976D01*
X4459643Y-17681214D02*
X4469167Y-17662167D01*
X4488214Y-17652643D01*
X4516786Y-17652643D01*
X4535833Y-17662167D01*
X4545357Y-17681214D01*
X4545357Y-17785976D01*
X4935833Y-17576452D02*
X4764405Y-17833595D01*
X5192976Y-17585976D02*
X5212024Y-17585976D01*
X5231071Y-17595500D01*
X5240595Y-17605024D01*
X5250119Y-17624071D01*
X5259643Y-17662167D01*
X5259643Y-17709786D01*
X5250119Y-17747881D01*
X5240595Y-17766929D01*
X5231071Y-17776452D01*
X5212024Y-17785976D01*
X5192976Y-17785976D01*
X5173929Y-17776452D01*
X5164405Y-17766929D01*
X5154881Y-17747881D01*
X5145357Y-17709786D01*
X5145357Y-17662167D01*
X5154881Y-17624071D01*
X5164405Y-17605024D01*
X5173929Y-17595500D01*
X5192976Y-17585976D01*
X5345357Y-17766929D02*
X5354881Y-17776452D01*
X5345357Y-17785976D01*
X5335833Y-17776452D01*
X5345357Y-17766929D01*
X5345357Y-17785976D01*
X5478690Y-17585976D02*
X5497738Y-17585976D01*
X5516786Y-17595500D01*
X5526310Y-17605024D01*
X5535833Y-17624071D01*
X5545357Y-17662167D01*
X5545357Y-17709786D01*
X5535833Y-17747881D01*
X5526310Y-17766929D01*
X5516786Y-17776452D01*
X5497738Y-17785976D01*
X5478690Y-17785976D01*
X5459643Y-17776452D01*
X5450119Y-17766929D01*
X5440595Y-17747881D01*
X5431071Y-17709786D01*
X5431071Y-17662167D01*
X5440595Y-17624071D01*
X5450119Y-17605024D01*
X5459643Y-17595500D01*
X5478690Y-17585976D01*
X5716786Y-17585976D02*
X5678690Y-17585976D01*
X5659643Y-17595500D01*
X5650119Y-17605024D01*
X5631071Y-17633595D01*
X5621548Y-17671690D01*
X5621548Y-17747881D01*
X5631071Y-17766929D01*
X5640595Y-17776452D01*
X5659643Y-17785976D01*
X5697738Y-17785976D01*
X5716786Y-17776452D01*
X5726309Y-17766929D01*
X5735833Y-17747881D01*
X5735833Y-17700262D01*
X5726309Y-17681214D01*
X5716786Y-17671690D01*
X5697738Y-17662167D01*
X5659643Y-17662167D01*
X5640595Y-17671690D01*
X5631071Y-17681214D01*
X5621548Y-17700262D01*
X5802500Y-17585976D02*
X5926309Y-17585976D01*
X5859643Y-17662167D01*
X5888214Y-17662167D01*
X5907262Y-17671690D01*
X5916786Y-17681214D01*
X5926309Y-17700262D01*
X5926309Y-17747881D01*
X5916786Y-17766929D01*
X5907262Y-17776452D01*
X5888214Y-17785976D01*
X5831071Y-17785976D01*
X5812024Y-17776452D01*
X5802500Y-17766929D01*
X6050119Y-17585976D02*
X6069167Y-17585976D01*
X6088214Y-17595500D01*
X6097738Y-17605024D01*
X6107262Y-17624071D01*
X6116786Y-17662167D01*
X6116786Y-17709786D01*
X6107262Y-17747881D01*
X6097738Y-17766929D01*
X6088214Y-17776452D01*
X6069167Y-17785976D01*
X6050119Y-17785976D01*
X6031071Y-17776452D01*
X6021548Y-17766929D01*
X6012024Y-17747881D01*
X6002500Y-17709786D01*
X6002500Y-17662167D01*
X6012024Y-17624071D01*
X6021548Y-17605024D01*
X6031071Y-17595500D01*
X6050119Y-17585976D01*
X6192976Y-17585976D02*
X6192976Y-17624071D01*
X6269167Y-17585976D02*
X6269167Y-17624071D01*
X6564405Y-17862167D02*
X6554881Y-17852643D01*
X6535833Y-17824071D01*
X6526309Y-17805024D01*
X6516786Y-17776452D01*
X6507262Y-17728833D01*
X6507262Y-17690738D01*
X6516786Y-17643119D01*
X6526309Y-17614548D01*
X6535833Y-17595500D01*
X6554881Y-17566929D01*
X6564405Y-17557405D01*
X6745357Y-17785976D02*
X6631071Y-17785976D01*
X6688214Y-17785976D02*
X6688214Y-17585976D01*
X6669167Y-17614548D01*
X6650119Y-17633595D01*
X6631071Y-17643119D01*
X6916786Y-17652643D02*
X6916786Y-17785976D01*
X6869167Y-17576452D02*
X6821548Y-17719310D01*
X6945357Y-17719310D01*
X7173928Y-17785976D02*
X7173928Y-17585976D01*
X7259643Y-17785976D02*
X7259643Y-17681214D01*
X7250119Y-17662167D01*
X7231071Y-17652643D01*
X7202500Y-17652643D01*
X7183452Y-17662167D01*
X7173928Y-17671690D01*
X7383452Y-17785976D02*
X7364405Y-17776452D01*
X7354881Y-17766929D01*
X7345357Y-17747881D01*
X7345357Y-17690738D01*
X7354881Y-17671690D01*
X7364405Y-17662167D01*
X7383452Y-17652643D01*
X7412024Y-17652643D01*
X7431071Y-17662167D01*
X7440595Y-17671690D01*
X7450119Y-17690738D01*
X7450119Y-17747881D01*
X7440595Y-17766929D01*
X7431071Y-17776452D01*
X7412024Y-17785976D01*
X7383452Y-17785976D01*
X7564405Y-17785976D02*
X7545357Y-17776452D01*
X7535833Y-17757405D01*
X7535833Y-17585976D01*
X7716786Y-17776452D02*
X7697738Y-17785976D01*
X7659643Y-17785976D01*
X7640595Y-17776452D01*
X7631071Y-17757405D01*
X7631071Y-17681214D01*
X7640595Y-17662167D01*
X7659643Y-17652643D01*
X7697738Y-17652643D01*
X7716786Y-17662167D01*
X7726309Y-17681214D01*
X7726309Y-17700262D01*
X7631071Y-17719310D01*
X7802500Y-17776452D02*
X7821548Y-17785976D01*
X7859643Y-17785976D01*
X7878690Y-17776452D01*
X7888214Y-17757405D01*
X7888214Y-17747881D01*
X7878690Y-17728833D01*
X7859643Y-17719310D01*
X7831071Y-17719310D01*
X7812024Y-17709786D01*
X7802500Y-17690738D01*
X7802500Y-17681214D01*
X7812024Y-17662167D01*
X7831071Y-17652643D01*
X7859643Y-17652643D01*
X7878690Y-17662167D01*
X7954881Y-17862167D02*
X7964405Y-17852643D01*
X7983452Y-17824071D01*
X7992976Y-17805024D01*
X8002500Y-17776452D01*
X8012024Y-17728833D01*
X8012024Y-17690738D01*
X8002500Y-17643119D01*
X7992976Y-17614548D01*
X7983452Y-17595500D01*
X7964405Y-17566929D01*
X7954881Y-17557405D01*
D20*
X2817500Y-17888000D02*
X2992500Y-18063000D01*
X2992500Y-17888000D02*
X2817500Y-18063000D01*
X2905000Y-18063000D02*
X2992500Y-17975500D01*
X2905000Y-17888000D01*
X2817500Y-17975500D01*
X2905000Y-18063000D01*
D11*
X3354881Y-18065976D02*
X3240595Y-18065976D01*
X3297738Y-18065976D02*
X3297738Y-17865976D01*
X3278690Y-17894548D01*
X3259643Y-17913595D01*
X3240595Y-17923119D01*
X3440595Y-18046929D02*
X3450119Y-18056452D01*
X3440595Y-18065976D01*
X3431071Y-18056452D01*
X3440595Y-18046929D01*
X3440595Y-18065976D01*
X3516786Y-17865976D02*
X3650119Y-17865976D01*
X3564405Y-18065976D01*
X3821548Y-17865976D02*
X3726309Y-17865976D01*
X3716786Y-17961214D01*
X3726309Y-17951690D01*
X3745357Y-17942167D01*
X3792976Y-17942167D01*
X3812024Y-17951690D01*
X3821548Y-17961214D01*
X3831071Y-17980262D01*
X3831071Y-18027881D01*
X3821548Y-18046929D01*
X3812024Y-18056452D01*
X3792976Y-18065976D01*
X3745357Y-18065976D01*
X3726309Y-18056452D01*
X3716786Y-18046929D01*
X3954881Y-17865976D02*
X3973928Y-17865976D01*
X3992976Y-17875500D01*
X4002500Y-17885024D01*
X4012024Y-17904071D01*
X4021548Y-17942167D01*
X4021548Y-17989786D01*
X4012024Y-18027881D01*
X4002500Y-18046929D01*
X3992976Y-18056452D01*
X3973928Y-18065976D01*
X3954881Y-18065976D01*
X3935833Y-18056452D01*
X3926309Y-18046929D01*
X3916786Y-18027881D01*
X3907262Y-17989786D01*
X3907262Y-17942167D01*
X3916786Y-17904071D01*
X3926309Y-17885024D01*
X3935833Y-17875500D01*
X3954881Y-17865976D01*
X4107262Y-18065976D02*
X4107262Y-17932643D01*
X4107262Y-17951690D02*
X4116786Y-17942167D01*
X4135833Y-17932643D01*
X4164405Y-17932643D01*
X4183452Y-17942167D01*
X4192976Y-17961214D01*
X4192976Y-18065976D01*
X4192976Y-17961214D02*
X4202500Y-17942167D01*
X4221548Y-17932643D01*
X4250119Y-17932643D01*
X4269167Y-17942167D01*
X4278690Y-17961214D01*
X4278690Y-18065976D01*
X4373929Y-18065976D02*
X4373929Y-17932643D01*
X4373929Y-17951690D02*
X4383452Y-17942167D01*
X4402500Y-17932643D01*
X4431071Y-17932643D01*
X4450119Y-17942167D01*
X4459643Y-17961214D01*
X4459643Y-18065976D01*
X4459643Y-17961214D02*
X4469167Y-17942167D01*
X4488214Y-17932643D01*
X4516786Y-17932643D01*
X4535833Y-17942167D01*
X4545357Y-17961214D01*
X4545357Y-18065976D01*
X4935833Y-17856452D02*
X4764405Y-18113595D01*
X5192976Y-17865976D02*
X5212024Y-17865976D01*
X5231071Y-17875500D01*
X5240595Y-17885024D01*
X5250119Y-17904071D01*
X5259643Y-17942167D01*
X5259643Y-17989786D01*
X5250119Y-18027881D01*
X5240595Y-18046929D01*
X5231071Y-18056452D01*
X5212024Y-18065976D01*
X5192976Y-18065976D01*
X5173929Y-18056452D01*
X5164405Y-18046929D01*
X5154881Y-18027881D01*
X5145357Y-17989786D01*
X5145357Y-17942167D01*
X5154881Y-17904071D01*
X5164405Y-17885024D01*
X5173929Y-17875500D01*
X5192976Y-17865976D01*
X5345357Y-18046929D02*
X5354881Y-18056452D01*
X5345357Y-18065976D01*
X5335833Y-18056452D01*
X5345357Y-18046929D01*
X5345357Y-18065976D01*
X5478690Y-17865976D02*
X5497738Y-17865976D01*
X5516786Y-17875500D01*
X5526310Y-17885024D01*
X5535833Y-17904071D01*
X5545357Y-17942167D01*
X5545357Y-17989786D01*
X5535833Y-18027881D01*
X5526310Y-18046929D01*
X5516786Y-18056452D01*
X5497738Y-18065976D01*
X5478690Y-18065976D01*
X5459643Y-18056452D01*
X5450119Y-18046929D01*
X5440595Y-18027881D01*
X5431071Y-17989786D01*
X5431071Y-17942167D01*
X5440595Y-17904071D01*
X5450119Y-17885024D01*
X5459643Y-17875500D01*
X5478690Y-17865976D01*
X5716786Y-17865976D02*
X5678690Y-17865976D01*
X5659643Y-17875500D01*
X5650119Y-17885024D01*
X5631071Y-17913595D01*
X5621548Y-17951690D01*
X5621548Y-18027881D01*
X5631071Y-18046929D01*
X5640595Y-18056452D01*
X5659643Y-18065976D01*
X5697738Y-18065976D01*
X5716786Y-18056452D01*
X5726309Y-18046929D01*
X5735833Y-18027881D01*
X5735833Y-17980262D01*
X5726309Y-17961214D01*
X5716786Y-17951690D01*
X5697738Y-17942167D01*
X5659643Y-17942167D01*
X5640595Y-17951690D01*
X5631071Y-17961214D01*
X5621548Y-17980262D01*
X5850119Y-17951690D02*
X5831071Y-17942167D01*
X5821548Y-17932643D01*
X5812024Y-17913595D01*
X5812024Y-17904071D01*
X5821548Y-17885024D01*
X5831071Y-17875500D01*
X5850119Y-17865976D01*
X5888214Y-17865976D01*
X5907262Y-17875500D01*
X5916786Y-17885024D01*
X5926309Y-17904071D01*
X5926309Y-17913595D01*
X5916786Y-17932643D01*
X5907262Y-17942167D01*
X5888214Y-17951690D01*
X5850119Y-17951690D01*
X5831071Y-17961214D01*
X5821548Y-17970738D01*
X5812024Y-17989786D01*
X5812024Y-18027881D01*
X5821548Y-18046929D01*
X5831071Y-18056452D01*
X5850119Y-18065976D01*
X5888214Y-18065976D01*
X5907262Y-18056452D01*
X5916786Y-18046929D01*
X5926309Y-18027881D01*
X5926309Y-17989786D01*
X5916786Y-17970738D01*
X5907262Y-17961214D01*
X5888214Y-17951690D01*
X6021548Y-18065976D02*
X6059643Y-18065976D01*
X6078690Y-18056452D01*
X6088214Y-18046929D01*
X6107262Y-18018357D01*
X6116786Y-17980262D01*
X6116786Y-17904071D01*
X6107262Y-17885024D01*
X6097738Y-17875500D01*
X6078690Y-17865976D01*
X6040595Y-17865976D01*
X6021548Y-17875500D01*
X6012024Y-17885024D01*
X6002500Y-17904071D01*
X6002500Y-17951690D01*
X6012024Y-17970738D01*
X6021548Y-17980262D01*
X6040595Y-17989786D01*
X6078690Y-17989786D01*
X6097738Y-17980262D01*
X6107262Y-17970738D01*
X6116786Y-17951690D01*
X6192976Y-17865976D02*
X6192976Y-17904071D01*
X6269167Y-17865976D02*
X6269167Y-17904071D01*
X6564405Y-18142167D02*
X6554881Y-18132643D01*
X6535833Y-18104071D01*
X6526309Y-18085024D01*
X6516786Y-18056452D01*
X6507262Y-18008833D01*
X6507262Y-17970738D01*
X6516786Y-17923119D01*
X6526309Y-17894548D01*
X6535833Y-17875500D01*
X6554881Y-17846929D01*
X6564405Y-17837405D01*
X6631071Y-17885024D02*
X6640595Y-17875500D01*
X6659643Y-17865976D01*
X6707262Y-17865976D01*
X6726309Y-17875500D01*
X6735833Y-17885024D01*
X6745357Y-17904071D01*
X6745357Y-17923119D01*
X6735833Y-17951690D01*
X6621548Y-18065976D01*
X6745357Y-18065976D01*
X6983452Y-18065976D02*
X6983452Y-17865976D01*
X7069167Y-18065976D02*
X7069167Y-17961214D01*
X7059643Y-17942167D01*
X7040595Y-17932643D01*
X7012024Y-17932643D01*
X6992976Y-17942167D01*
X6983452Y-17951690D01*
X7192976Y-18065976D02*
X7173928Y-18056452D01*
X7164405Y-18046929D01*
X7154881Y-18027881D01*
X7154881Y-17970738D01*
X7164405Y-17951690D01*
X7173928Y-17942167D01*
X7192976Y-17932643D01*
X7221548Y-17932643D01*
X7240595Y-17942167D01*
X7250119Y-17951690D01*
X7259643Y-17970738D01*
X7259643Y-18027881D01*
X7250119Y-18046929D01*
X7240595Y-18056452D01*
X7221548Y-18065976D01*
X7192976Y-18065976D01*
X7373928Y-18065976D02*
X7354881Y-18056452D01*
X7345357Y-18037405D01*
X7345357Y-17865976D01*
X7526309Y-18056452D02*
X7507262Y-18065976D01*
X7469167Y-18065976D01*
X7450119Y-18056452D01*
X7440595Y-18037405D01*
X7440595Y-17961214D01*
X7450119Y-17942167D01*
X7469167Y-17932643D01*
X7507262Y-17932643D01*
X7526309Y-17942167D01*
X7535833Y-17961214D01*
X7535833Y-17980262D01*
X7440595Y-17999310D01*
X7612024Y-18056452D02*
X7631071Y-18065976D01*
X7669167Y-18065976D01*
X7688214Y-18056452D01*
X7697738Y-18037405D01*
X7697738Y-18027881D01*
X7688214Y-18008833D01*
X7669167Y-17999310D01*
X7640595Y-17999310D01*
X7621548Y-17989786D01*
X7612024Y-17970738D01*
X7612024Y-17961214D01*
X7621548Y-17942167D01*
X7640595Y-17932643D01*
X7669167Y-17932643D01*
X7688214Y-17942167D01*
X7764405Y-18142167D02*
X7773928Y-18132643D01*
X7792976Y-18104071D01*
X7802500Y-18085024D01*
X7812024Y-18056452D01*
X7821548Y-18008833D01*
X7821548Y-17970738D01*
X7812024Y-17923119D01*
X7802500Y-17894548D01*
X7792976Y-17875500D01*
X7773928Y-17846929D01*
X7764405Y-17837405D01*
X2892500Y-18170500D02*
X2892500Y-18370500D01*
X2792500Y-18270500D02*
X2992500Y-18270500D01*
X2992500Y-18270500D02*
G75*
G03*
X2992500Y-18270500I-100000J0D01*
G01*
X3240595Y-18180024D02*
X3250119Y-18170500D01*
X3269167Y-18160976D01*
X3316786Y-18160976D01*
X3335833Y-18170500D01*
X3345357Y-18180024D01*
X3354881Y-18199071D01*
X3354881Y-18218119D01*
X3345357Y-18246690D01*
X3231071Y-18360976D01*
X3354881Y-18360976D01*
X3440595Y-18341929D02*
X3450119Y-18351452D01*
X3440595Y-18360976D01*
X3431071Y-18351452D01*
X3440595Y-18341929D01*
X3440595Y-18360976D01*
X3573928Y-18160976D02*
X3592976Y-18160976D01*
X3612024Y-18170500D01*
X3621548Y-18180024D01*
X3631071Y-18199071D01*
X3640595Y-18237167D01*
X3640595Y-18284786D01*
X3631071Y-18322881D01*
X3621548Y-18341929D01*
X3612024Y-18351452D01*
X3592976Y-18360976D01*
X3573928Y-18360976D01*
X3554881Y-18351452D01*
X3545357Y-18341929D01*
X3535833Y-18322881D01*
X3526309Y-18284786D01*
X3526309Y-18237167D01*
X3535833Y-18199071D01*
X3545357Y-18180024D01*
X3554881Y-18170500D01*
X3573928Y-18160976D01*
X3764405Y-18160976D02*
X3783452Y-18160976D01*
X3802500Y-18170500D01*
X3812024Y-18180024D01*
X3821548Y-18199071D01*
X3831071Y-18237167D01*
X3831071Y-18284786D01*
X3821548Y-18322881D01*
X3812024Y-18341929D01*
X3802500Y-18351452D01*
X3783452Y-18360976D01*
X3764405Y-18360976D01*
X3745357Y-18351452D01*
X3735833Y-18341929D01*
X3726309Y-18322881D01*
X3716786Y-18284786D01*
X3716786Y-18237167D01*
X3726309Y-18199071D01*
X3735833Y-18180024D01*
X3745357Y-18170500D01*
X3764405Y-18160976D01*
X3954881Y-18160976D02*
X3973928Y-18160976D01*
X3992976Y-18170500D01*
X4002500Y-18180024D01*
X4012024Y-18199071D01*
X4021548Y-18237167D01*
X4021548Y-18284786D01*
X4012024Y-18322881D01*
X4002500Y-18341929D01*
X3992976Y-18351452D01*
X3973928Y-18360976D01*
X3954881Y-18360976D01*
X3935833Y-18351452D01*
X3926309Y-18341929D01*
X3916786Y-18322881D01*
X3907262Y-18284786D01*
X3907262Y-18237167D01*
X3916786Y-18199071D01*
X3926309Y-18180024D01*
X3935833Y-18170500D01*
X3954881Y-18160976D01*
X4107262Y-18360976D02*
X4107262Y-18227643D01*
X4107262Y-18246690D02*
X4116786Y-18237167D01*
X4135833Y-18227643D01*
X4164405Y-18227643D01*
X4183452Y-18237167D01*
X4192976Y-18256214D01*
X4192976Y-18360976D01*
X4192976Y-18256214D02*
X4202500Y-18237167D01*
X4221548Y-18227643D01*
X4250119Y-18227643D01*
X4269167Y-18237167D01*
X4278690Y-18256214D01*
X4278690Y-18360976D01*
X4373929Y-18360976D02*
X4373929Y-18227643D01*
X4373929Y-18246690D02*
X4383452Y-18237167D01*
X4402500Y-18227643D01*
X4431071Y-18227643D01*
X4450119Y-18237167D01*
X4459643Y-18256214D01*
X4459643Y-18360976D01*
X4459643Y-18256214D02*
X4469167Y-18237167D01*
X4488214Y-18227643D01*
X4516786Y-18227643D01*
X4535833Y-18237167D01*
X4545357Y-18256214D01*
X4545357Y-18360976D01*
X4935833Y-18151452D02*
X4764405Y-18408595D01*
X5192976Y-18160976D02*
X5212024Y-18160976D01*
X5231071Y-18170500D01*
X5240595Y-18180024D01*
X5250119Y-18199071D01*
X5259643Y-18237167D01*
X5259643Y-18284786D01*
X5250119Y-18322881D01*
X5240595Y-18341929D01*
X5231071Y-18351452D01*
X5212024Y-18360976D01*
X5192976Y-18360976D01*
X5173929Y-18351452D01*
X5164405Y-18341929D01*
X5154881Y-18322881D01*
X5145357Y-18284786D01*
X5145357Y-18237167D01*
X5154881Y-18199071D01*
X5164405Y-18180024D01*
X5173929Y-18170500D01*
X5192976Y-18160976D01*
X5345357Y-18341929D02*
X5354881Y-18351452D01*
X5345357Y-18360976D01*
X5335833Y-18351452D01*
X5345357Y-18341929D01*
X5345357Y-18360976D01*
X5478690Y-18160976D02*
X5497738Y-18160976D01*
X5516786Y-18170500D01*
X5526310Y-18180024D01*
X5535833Y-18199071D01*
X5545357Y-18237167D01*
X5545357Y-18284786D01*
X5535833Y-18322881D01*
X5526310Y-18341929D01*
X5516786Y-18351452D01*
X5497738Y-18360976D01*
X5478690Y-18360976D01*
X5459643Y-18351452D01*
X5450119Y-18341929D01*
X5440595Y-18322881D01*
X5431071Y-18284786D01*
X5431071Y-18237167D01*
X5440595Y-18199071D01*
X5450119Y-18180024D01*
X5459643Y-18170500D01*
X5478690Y-18160976D01*
X5612024Y-18160976D02*
X5745357Y-18160976D01*
X5659643Y-18360976D01*
X5850119Y-18246690D02*
X5831071Y-18237167D01*
X5821548Y-18227643D01*
X5812024Y-18208595D01*
X5812024Y-18199071D01*
X5821548Y-18180024D01*
X5831071Y-18170500D01*
X5850119Y-18160976D01*
X5888214Y-18160976D01*
X5907262Y-18170500D01*
X5916786Y-18180024D01*
X5926309Y-18199071D01*
X5926309Y-18208595D01*
X5916786Y-18227643D01*
X5907262Y-18237167D01*
X5888214Y-18246690D01*
X5850119Y-18246690D01*
X5831071Y-18256214D01*
X5821548Y-18265738D01*
X5812024Y-18284786D01*
X5812024Y-18322881D01*
X5821548Y-18341929D01*
X5831071Y-18351452D01*
X5850119Y-18360976D01*
X5888214Y-18360976D01*
X5907262Y-18351452D01*
X5916786Y-18341929D01*
X5926309Y-18322881D01*
X5926309Y-18284786D01*
X5916786Y-18265738D01*
X5907262Y-18256214D01*
X5888214Y-18246690D01*
X5992976Y-18160976D02*
X6126309Y-18160976D01*
X6040595Y-18360976D01*
X6192976Y-18160976D02*
X6192976Y-18199071D01*
X6269167Y-18160976D02*
X6269167Y-18199071D01*
X6564405Y-18437167D02*
X6554881Y-18427643D01*
X6535833Y-18399071D01*
X6526309Y-18380024D01*
X6516786Y-18351452D01*
X6507262Y-18303833D01*
X6507262Y-18265738D01*
X6516786Y-18218119D01*
X6526309Y-18189548D01*
X6535833Y-18170500D01*
X6554881Y-18141929D01*
X6564405Y-18132405D01*
X6678690Y-18160976D02*
X6697738Y-18160976D01*
X6716786Y-18170500D01*
X6726309Y-18180024D01*
X6735833Y-18199071D01*
X6745357Y-18237167D01*
X6745357Y-18284786D01*
X6735833Y-18322881D01*
X6726309Y-18341929D01*
X6716786Y-18351452D01*
X6697738Y-18360976D01*
X6678690Y-18360976D01*
X6659643Y-18351452D01*
X6650119Y-18341929D01*
X6640595Y-18322881D01*
X6631071Y-18284786D01*
X6631071Y-18237167D01*
X6640595Y-18199071D01*
X6650119Y-18180024D01*
X6659643Y-18170500D01*
X6678690Y-18160976D01*
X6983452Y-18360976D02*
X6983452Y-18160976D01*
X7069167Y-18360976D02*
X7069167Y-18256214D01*
X7059643Y-18237167D01*
X7040595Y-18227643D01*
X7012024Y-18227643D01*
X6992976Y-18237167D01*
X6983452Y-18246690D01*
X7192976Y-18360976D02*
X7173928Y-18351452D01*
X7164405Y-18341929D01*
X7154881Y-18322881D01*
X7154881Y-18265738D01*
X7164405Y-18246690D01*
X7173928Y-18237167D01*
X7192976Y-18227643D01*
X7221548Y-18227643D01*
X7240595Y-18237167D01*
X7250119Y-18246690D01*
X7259643Y-18265738D01*
X7259643Y-18322881D01*
X7250119Y-18341929D01*
X7240595Y-18351452D01*
X7221548Y-18360976D01*
X7192976Y-18360976D01*
X7373928Y-18360976D02*
X7354881Y-18351452D01*
X7345357Y-18332405D01*
X7345357Y-18160976D01*
X7526309Y-18351452D02*
X7507262Y-18360976D01*
X7469167Y-18360976D01*
X7450119Y-18351452D01*
X7440595Y-18332405D01*
X7440595Y-18256214D01*
X7450119Y-18237167D01*
X7469167Y-18227643D01*
X7507262Y-18227643D01*
X7526309Y-18237167D01*
X7535833Y-18256214D01*
X7535833Y-18275262D01*
X7440595Y-18294310D01*
X7612024Y-18351452D02*
X7631071Y-18360976D01*
X7669167Y-18360976D01*
X7688214Y-18351452D01*
X7697738Y-18332405D01*
X7697738Y-18322881D01*
X7688214Y-18303833D01*
X7669167Y-18294310D01*
X7640595Y-18294310D01*
X7621548Y-18284786D01*
X7612024Y-18265738D01*
X7612024Y-18256214D01*
X7621548Y-18237167D01*
X7640595Y-18227643D01*
X7669167Y-18227643D01*
X7688214Y-18237167D01*
X7935833Y-18284786D02*
X8088214Y-18284786D01*
X8012024Y-18360976D02*
X8012024Y-18208595D01*
X8326309Y-18180024D02*
X8335833Y-18170500D01*
X8354881Y-18160976D01*
X8402500Y-18160976D01*
X8421548Y-18170500D01*
X8431071Y-18180024D01*
X8440595Y-18199071D01*
X8440595Y-18218119D01*
X8431071Y-18246690D01*
X8316786Y-18360976D01*
X8440595Y-18360976D01*
X8669167Y-18351452D02*
X8688214Y-18360976D01*
X8726310Y-18360976D01*
X8745357Y-18351452D01*
X8754881Y-18332405D01*
X8754881Y-18322881D01*
X8745357Y-18303833D01*
X8726310Y-18294310D01*
X8697738Y-18294310D01*
X8678690Y-18284786D01*
X8669167Y-18265738D01*
X8669167Y-18256214D01*
X8678690Y-18237167D01*
X8697738Y-18227643D01*
X8726310Y-18227643D01*
X8745357Y-18237167D01*
X8869167Y-18360976D02*
X8850119Y-18351452D01*
X8840595Y-18332405D01*
X8840595Y-18160976D01*
X8973929Y-18360976D02*
X8954881Y-18351452D01*
X8945357Y-18341929D01*
X8935833Y-18322881D01*
X8935833Y-18265738D01*
X8945357Y-18246690D01*
X8954881Y-18237167D01*
X8973929Y-18227643D01*
X9002500Y-18227643D01*
X9021548Y-18237167D01*
X9031071Y-18246690D01*
X9040595Y-18265738D01*
X9040595Y-18322881D01*
X9031071Y-18341929D01*
X9021548Y-18351452D01*
X9002500Y-18360976D01*
X8973929Y-18360976D01*
X9097738Y-18227643D02*
X9173929Y-18227643D01*
X9126310Y-18160976D02*
X9126310Y-18332405D01*
X9135833Y-18351452D01*
X9154881Y-18360976D01*
X9173929Y-18360976D01*
X9231071Y-18351452D02*
X9250119Y-18360976D01*
X9288214Y-18360976D01*
X9307262Y-18351452D01*
X9316786Y-18332405D01*
X9316786Y-18322881D01*
X9307262Y-18303833D01*
X9288214Y-18294310D01*
X9259643Y-18294310D01*
X9240595Y-18284786D01*
X9231071Y-18265738D01*
X9231071Y-18256214D01*
X9240595Y-18237167D01*
X9259643Y-18227643D01*
X9288214Y-18227643D01*
X9307262Y-18237167D01*
X9383452Y-18437167D02*
X9392976Y-18427643D01*
X9412024Y-18399071D01*
X9421548Y-18380024D01*
X9431071Y-18351452D01*
X9440595Y-18303833D01*
X9440595Y-18265738D01*
X9431071Y-18218119D01*
X9421548Y-18189548D01*
X9412024Y-18170500D01*
X9392976Y-18141929D01*
X9383452Y-18132405D01*
X2963211Y-18661211D02*
X2963211Y-18519789D01*
X2821789Y-18519789D01*
X2821789Y-18661211D01*
X2963211Y-18661211D01*
X2992500Y-18590500D02*
G75*
G03*
X2992500Y-18590500I-100000J0D01*
G01*
X3240595Y-18500024D02*
X3250119Y-18490500D01*
X3269167Y-18480976D01*
X3316786Y-18480976D01*
X3335833Y-18490500D01*
X3345357Y-18500024D01*
X3354881Y-18519071D01*
X3354881Y-18538119D01*
X3345357Y-18566690D01*
X3231071Y-18680976D01*
X3354881Y-18680976D01*
X3440595Y-18661929D02*
X3450119Y-18671452D01*
X3440595Y-18680976D01*
X3431071Y-18671452D01*
X3440595Y-18661929D01*
X3440595Y-18680976D01*
X3621548Y-18480976D02*
X3583452Y-18480976D01*
X3564405Y-18490500D01*
X3554881Y-18500024D01*
X3535833Y-18528595D01*
X3526309Y-18566690D01*
X3526309Y-18642881D01*
X3535833Y-18661929D01*
X3545357Y-18671452D01*
X3564405Y-18680976D01*
X3602500Y-18680976D01*
X3621548Y-18671452D01*
X3631071Y-18661929D01*
X3640595Y-18642881D01*
X3640595Y-18595262D01*
X3631071Y-18576214D01*
X3621548Y-18566690D01*
X3602500Y-18557167D01*
X3564405Y-18557167D01*
X3545357Y-18566690D01*
X3535833Y-18576214D01*
X3526309Y-18595262D01*
X3735833Y-18680976D02*
X3773928Y-18680976D01*
X3792976Y-18671452D01*
X3802500Y-18661929D01*
X3821548Y-18633357D01*
X3831071Y-18595262D01*
X3831071Y-18519071D01*
X3821548Y-18500024D01*
X3812024Y-18490500D01*
X3792976Y-18480976D01*
X3754881Y-18480976D01*
X3735833Y-18490500D01*
X3726309Y-18500024D01*
X3716786Y-18519071D01*
X3716786Y-18566690D01*
X3726309Y-18585738D01*
X3735833Y-18595262D01*
X3754881Y-18604786D01*
X3792976Y-18604786D01*
X3812024Y-18595262D01*
X3821548Y-18585738D01*
X3831071Y-18566690D01*
X3954881Y-18480976D02*
X3973928Y-18480976D01*
X3992976Y-18490500D01*
X4002500Y-18500024D01*
X4012024Y-18519071D01*
X4021548Y-18557167D01*
X4021548Y-18604786D01*
X4012024Y-18642881D01*
X4002500Y-18661929D01*
X3992976Y-18671452D01*
X3973928Y-18680976D01*
X3954881Y-18680976D01*
X3935833Y-18671452D01*
X3926309Y-18661929D01*
X3916786Y-18642881D01*
X3907262Y-18604786D01*
X3907262Y-18557167D01*
X3916786Y-18519071D01*
X3926309Y-18500024D01*
X3935833Y-18490500D01*
X3954881Y-18480976D01*
X4107262Y-18680976D02*
X4107262Y-18547643D01*
X4107262Y-18566690D02*
X4116786Y-18557167D01*
X4135833Y-18547643D01*
X4164405Y-18547643D01*
X4183452Y-18557167D01*
X4192976Y-18576214D01*
X4192976Y-18680976D01*
X4192976Y-18576214D02*
X4202500Y-18557167D01*
X4221548Y-18547643D01*
X4250119Y-18547643D01*
X4269167Y-18557167D01*
X4278690Y-18576214D01*
X4278690Y-18680976D01*
X4373929Y-18680976D02*
X4373929Y-18547643D01*
X4373929Y-18566690D02*
X4383452Y-18557167D01*
X4402500Y-18547643D01*
X4431071Y-18547643D01*
X4450119Y-18557167D01*
X4459643Y-18576214D01*
X4459643Y-18680976D01*
X4459643Y-18576214D02*
X4469167Y-18557167D01*
X4488214Y-18547643D01*
X4516786Y-18547643D01*
X4535833Y-18557167D01*
X4545357Y-18576214D01*
X4545357Y-18680976D01*
X4935833Y-18471452D02*
X4764405Y-18728595D01*
X5192976Y-18480976D02*
X5212024Y-18480976D01*
X5231071Y-18490500D01*
X5240595Y-18500024D01*
X5250119Y-18519071D01*
X5259643Y-18557167D01*
X5259643Y-18604786D01*
X5250119Y-18642881D01*
X5240595Y-18661929D01*
X5231071Y-18671452D01*
X5212024Y-18680976D01*
X5192976Y-18680976D01*
X5173929Y-18671452D01*
X5164405Y-18661929D01*
X5154881Y-18642881D01*
X5145357Y-18604786D01*
X5145357Y-18557167D01*
X5154881Y-18519071D01*
X5164405Y-18500024D01*
X5173929Y-18490500D01*
X5192976Y-18480976D01*
X5345357Y-18661929D02*
X5354881Y-18671452D01*
X5345357Y-18680976D01*
X5335833Y-18671452D01*
X5345357Y-18661929D01*
X5345357Y-18680976D01*
X5545357Y-18680976D02*
X5431071Y-18680976D01*
X5488214Y-18680976D02*
X5488214Y-18480976D01*
X5469167Y-18509548D01*
X5450119Y-18528595D01*
X5431071Y-18538119D01*
X5669167Y-18480976D02*
X5688214Y-18480976D01*
X5707262Y-18490500D01*
X5716786Y-18500024D01*
X5726309Y-18519071D01*
X5735833Y-18557167D01*
X5735833Y-18604786D01*
X5726309Y-18642881D01*
X5716786Y-18661929D01*
X5707262Y-18671452D01*
X5688214Y-18680976D01*
X5669167Y-18680976D01*
X5650119Y-18671452D01*
X5640595Y-18661929D01*
X5631071Y-18642881D01*
X5621548Y-18604786D01*
X5621548Y-18557167D01*
X5631071Y-18519071D01*
X5640595Y-18500024D01*
X5650119Y-18490500D01*
X5669167Y-18480976D01*
X5916786Y-18480976D02*
X5821548Y-18480976D01*
X5812024Y-18576214D01*
X5821548Y-18566690D01*
X5840595Y-18557167D01*
X5888214Y-18557167D01*
X5907262Y-18566690D01*
X5916786Y-18576214D01*
X5926309Y-18595262D01*
X5926309Y-18642881D01*
X5916786Y-18661929D01*
X5907262Y-18671452D01*
X5888214Y-18680976D01*
X5840595Y-18680976D01*
X5821548Y-18671452D01*
X5812024Y-18661929D01*
X6021548Y-18680976D02*
X6059643Y-18680976D01*
X6078690Y-18671452D01*
X6088214Y-18661929D01*
X6107262Y-18633357D01*
X6116786Y-18595262D01*
X6116786Y-18519071D01*
X6107262Y-18500024D01*
X6097738Y-18490500D01*
X6078690Y-18480976D01*
X6040595Y-18480976D01*
X6021548Y-18490500D01*
X6012024Y-18500024D01*
X6002500Y-18519071D01*
X6002500Y-18566690D01*
X6012024Y-18585738D01*
X6021548Y-18595262D01*
X6040595Y-18604786D01*
X6078690Y-18604786D01*
X6097738Y-18595262D01*
X6107262Y-18585738D01*
X6116786Y-18566690D01*
X6192976Y-18480976D02*
X6192976Y-18519071D01*
X6269167Y-18480976D02*
X6269167Y-18519071D01*
X6564405Y-18757167D02*
X6554881Y-18747643D01*
X6535833Y-18719071D01*
X6526309Y-18700024D01*
X6516786Y-18671452D01*
X6507262Y-18623833D01*
X6507262Y-18585738D01*
X6516786Y-18538119D01*
X6526309Y-18509548D01*
X6535833Y-18490500D01*
X6554881Y-18461929D01*
X6564405Y-18452405D01*
X6631071Y-18500024D02*
X6640595Y-18490500D01*
X6659643Y-18480976D01*
X6707262Y-18480976D01*
X6726309Y-18490500D01*
X6735833Y-18500024D01*
X6745357Y-18519071D01*
X6745357Y-18538119D01*
X6735833Y-18566690D01*
X6621548Y-18680976D01*
X6745357Y-18680976D01*
X6983452Y-18680976D02*
X6983452Y-18480976D01*
X7069167Y-18680976D02*
X7069167Y-18576214D01*
X7059643Y-18557167D01*
X7040595Y-18547643D01*
X7012024Y-18547643D01*
X6992976Y-18557167D01*
X6983452Y-18566690D01*
X7192976Y-18680976D02*
X7173928Y-18671452D01*
X7164405Y-18661929D01*
X7154881Y-18642881D01*
X7154881Y-18585738D01*
X7164405Y-18566690D01*
X7173928Y-18557167D01*
X7192976Y-18547643D01*
X7221548Y-18547643D01*
X7240595Y-18557167D01*
X7250119Y-18566690D01*
X7259643Y-18585738D01*
X7259643Y-18642881D01*
X7250119Y-18661929D01*
X7240595Y-18671452D01*
X7221548Y-18680976D01*
X7192976Y-18680976D01*
X7373928Y-18680976D02*
X7354881Y-18671452D01*
X7345357Y-18652405D01*
X7345357Y-18480976D01*
X7526309Y-18671452D02*
X7507262Y-18680976D01*
X7469167Y-18680976D01*
X7450119Y-18671452D01*
X7440595Y-18652405D01*
X7440595Y-18576214D01*
X7450119Y-18557167D01*
X7469167Y-18547643D01*
X7507262Y-18547643D01*
X7526309Y-18557167D01*
X7535833Y-18576214D01*
X7535833Y-18595262D01*
X7440595Y-18614310D01*
X7612024Y-18671452D02*
X7631071Y-18680976D01*
X7669167Y-18680976D01*
X7688214Y-18671452D01*
X7697738Y-18652405D01*
X7697738Y-18642881D01*
X7688214Y-18623833D01*
X7669167Y-18614310D01*
X7640595Y-18614310D01*
X7621548Y-18604786D01*
X7612024Y-18585738D01*
X7612024Y-18576214D01*
X7621548Y-18557167D01*
X7640595Y-18547643D01*
X7669167Y-18547643D01*
X7688214Y-18557167D01*
X7764405Y-18757167D02*
X7773928Y-18747643D01*
X7792976Y-18719071D01*
X7802500Y-18700024D01*
X7812024Y-18671452D01*
X7821548Y-18623833D01*
X7821548Y-18585738D01*
X7812024Y-18538119D01*
X7802500Y-18509548D01*
X7792976Y-18490500D01*
X7773928Y-18461929D01*
X7764405Y-18452405D01*
M02*
