G04 #@! TF.FileFunction,Other,Fab,Top*
%FSLAX46Y46*%
G04 Gerber Fmt 4.6, Leading zero omitted, Abs format (unit mm)*
G04 Created by KiCad (PCBNEW 4.0.7-e2-6376~61~ubuntu18.04.1) date Tue Jul 31 18:43:04 2018*
%MOMM*%
%LPD*%
G01*
G04 APERTURE LIST*
%ADD10C,0.100000*%
%ADD11C,0.300000*%
G04 APERTURE END LIST*
D10*
D11*
X123028572Y-82235714D02*
X122957143Y-82307143D01*
X122742857Y-82378571D01*
X122600000Y-82378571D01*
X122385715Y-82307143D01*
X122242857Y-82164286D01*
X122171429Y-82021429D01*
X122100000Y-81735714D01*
X122100000Y-81521429D01*
X122171429Y-81235714D01*
X122242857Y-81092857D01*
X122385715Y-80950000D01*
X122600000Y-80878571D01*
X122742857Y-80878571D01*
X122957143Y-80950000D01*
X123028572Y-81021429D01*
X123671429Y-82378571D02*
X123671429Y-80878571D01*
X124242857Y-80878571D01*
X124385715Y-80950000D01*
X124457143Y-81021429D01*
X124528572Y-81164286D01*
X124528572Y-81378571D01*
X124457143Y-81521429D01*
X124385715Y-81592857D01*
X124242857Y-81664286D01*
X123671429Y-81664286D01*
X125171429Y-80878571D02*
X125171429Y-82092857D01*
X125242857Y-82235714D01*
X125314286Y-82307143D01*
X125457143Y-82378571D01*
X125742857Y-82378571D01*
X125885715Y-82307143D01*
X125957143Y-82235714D01*
X126028572Y-82092857D01*
X126028572Y-80878571D01*
X55092857Y-82978571D02*
X55950000Y-82978571D01*
X55521429Y-84478571D02*
X55521429Y-82978571D01*
X56450000Y-84478571D02*
X56450000Y-82978571D01*
X57164286Y-84478571D02*
X57164286Y-82978571D01*
X58021429Y-84478571D01*
X58021429Y-82978571D01*
X59021429Y-83764286D02*
X59021429Y-84478571D01*
X58521429Y-82978571D02*
X59021429Y-83764286D01*
X59521429Y-82978571D01*
X61164286Y-84478571D02*
X61164286Y-82978571D01*
X61521429Y-82978571D01*
X61735714Y-83050000D01*
X61878572Y-83192857D01*
X61950000Y-83335714D01*
X62021429Y-83621429D01*
X62021429Y-83835714D01*
X61950000Y-84121429D01*
X61878572Y-84264286D01*
X61735714Y-84407143D01*
X61521429Y-84478571D01*
X61164286Y-84478571D01*
X62664286Y-84478571D02*
X62664286Y-82978571D01*
X63664286Y-82978571D02*
X63950000Y-82978571D01*
X64092858Y-83050000D01*
X64235715Y-83192857D01*
X64307143Y-83478571D01*
X64307143Y-83978571D01*
X64235715Y-84264286D01*
X64092858Y-84407143D01*
X63950000Y-84478571D01*
X63664286Y-84478571D01*
X63521429Y-84407143D01*
X63378572Y-84264286D01*
X63307143Y-83978571D01*
X63307143Y-83478571D01*
X63378572Y-83192857D01*
X63521429Y-83050000D01*
X63664286Y-82978571D01*
X64950001Y-84478571D02*
X64950001Y-82978571D01*
X65307144Y-82978571D01*
X65521429Y-83050000D01*
X65664287Y-83192857D01*
X65735715Y-83335714D01*
X65807144Y-83621429D01*
X65807144Y-83835714D01*
X65735715Y-84121429D01*
X65664287Y-84264286D01*
X65521429Y-84407143D01*
X65307144Y-84478571D01*
X64950001Y-84478571D01*
X66450001Y-83692857D02*
X66950001Y-83692857D01*
X67164287Y-84478571D02*
X66450001Y-84478571D01*
X66450001Y-82978571D01*
X67164287Y-82978571D01*
X104207143Y-75492857D02*
X104421429Y-75564286D01*
X104492857Y-75635714D01*
X104564286Y-75778571D01*
X104564286Y-75992857D01*
X104492857Y-76135714D01*
X104421429Y-76207143D01*
X104278571Y-76278571D01*
X103707143Y-76278571D01*
X103707143Y-74778571D01*
X104207143Y-74778571D01*
X104350000Y-74850000D01*
X104421429Y-74921429D01*
X104492857Y-75064286D01*
X104492857Y-75207143D01*
X104421429Y-75350000D01*
X104350000Y-75421429D01*
X104207143Y-75492857D01*
X103707143Y-75492857D01*
X105207143Y-74778571D02*
X105207143Y-75992857D01*
X105278571Y-76135714D01*
X105350000Y-76207143D01*
X105492857Y-76278571D01*
X105778571Y-76278571D01*
X105921429Y-76207143D01*
X105992857Y-76135714D01*
X106064286Y-75992857D01*
X106064286Y-74778571D01*
X106564286Y-74778571D02*
X107421429Y-74778571D01*
X106992858Y-76278571D02*
X106992858Y-74778571D01*
X107707143Y-74778571D02*
X108564286Y-74778571D01*
X108135715Y-76278571D02*
X108135715Y-74778571D01*
X109350000Y-74778571D02*
X109635714Y-74778571D01*
X109778572Y-74850000D01*
X109921429Y-74992857D01*
X109992857Y-75278571D01*
X109992857Y-75778571D01*
X109921429Y-76064286D01*
X109778572Y-76207143D01*
X109635714Y-76278571D01*
X109350000Y-76278571D01*
X109207143Y-76207143D01*
X109064286Y-76064286D01*
X108992857Y-75778571D01*
X108992857Y-75278571D01*
X109064286Y-74992857D01*
X109207143Y-74850000D01*
X109350000Y-74778571D01*
X110635715Y-76278571D02*
X110635715Y-74778571D01*
X111492858Y-76278571D01*
X111492858Y-74778571D01*
X81907143Y-78192857D02*
X82121429Y-78264286D01*
X82192857Y-78335714D01*
X82264286Y-78478571D01*
X82264286Y-78692857D01*
X82192857Y-78835714D01*
X82121429Y-78907143D01*
X81978571Y-78978571D01*
X81407143Y-78978571D01*
X81407143Y-77478571D01*
X81907143Y-77478571D01*
X82050000Y-77550000D01*
X82121429Y-77621429D01*
X82192857Y-77764286D01*
X82192857Y-77907143D01*
X82121429Y-78050000D01*
X82050000Y-78121429D01*
X81907143Y-78192857D01*
X81407143Y-78192857D01*
X82907143Y-78978571D02*
X82907143Y-77478571D01*
X84407143Y-77550000D02*
X84264286Y-77478571D01*
X84050000Y-77478571D01*
X83835715Y-77550000D01*
X83692857Y-77692857D01*
X83621429Y-77835714D01*
X83550000Y-78121429D01*
X83550000Y-78335714D01*
X83621429Y-78621429D01*
X83692857Y-78764286D01*
X83835715Y-78907143D01*
X84050000Y-78978571D01*
X84192857Y-78978571D01*
X84407143Y-78907143D01*
X84478572Y-78835714D01*
X84478572Y-78335714D01*
X84192857Y-78335714D01*
X86264286Y-78978571D02*
X86264286Y-77478571D01*
X86621429Y-77478571D01*
X86835714Y-77550000D01*
X86978572Y-77692857D01*
X87050000Y-77835714D01*
X87121429Y-78121429D01*
X87121429Y-78335714D01*
X87050000Y-78621429D01*
X86978572Y-78764286D01*
X86835714Y-78907143D01*
X86621429Y-78978571D01*
X86264286Y-78978571D01*
X87764286Y-78978571D02*
X87764286Y-77478571D01*
X88764286Y-77478571D02*
X89050000Y-77478571D01*
X89192858Y-77550000D01*
X89335715Y-77692857D01*
X89407143Y-77978571D01*
X89407143Y-78478571D01*
X89335715Y-78764286D01*
X89192858Y-78907143D01*
X89050000Y-78978571D01*
X88764286Y-78978571D01*
X88621429Y-78907143D01*
X88478572Y-78764286D01*
X88407143Y-78478571D01*
X88407143Y-77978571D01*
X88478572Y-77692857D01*
X88621429Y-77550000D01*
X88764286Y-77478571D01*
X90050001Y-78978571D02*
X90050001Y-77478571D01*
X90407144Y-77478571D01*
X90621429Y-77550000D01*
X90764287Y-77692857D01*
X90835715Y-77835714D01*
X90907144Y-78121429D01*
X90907144Y-78335714D01*
X90835715Y-78621429D01*
X90764287Y-78764286D01*
X90621429Y-78907143D01*
X90407144Y-78978571D01*
X90050001Y-78978571D01*
X91550001Y-78192857D02*
X92050001Y-78192857D01*
X92264287Y-78978571D02*
X91550001Y-78978571D01*
X91550001Y-77478571D01*
X92264287Y-77478571D01*
X67707143Y-71878571D02*
X67707143Y-70378571D01*
X68207143Y-71450000D01*
X68707143Y-70378571D01*
X68707143Y-71878571D01*
X69707143Y-70378571D02*
X69992857Y-70378571D01*
X70135715Y-70450000D01*
X70278572Y-70592857D01*
X70350000Y-70878571D01*
X70350000Y-71378571D01*
X70278572Y-71664286D01*
X70135715Y-71807143D01*
X69992857Y-71878571D01*
X69707143Y-71878571D01*
X69564286Y-71807143D01*
X69421429Y-71664286D01*
X69350000Y-71378571D01*
X69350000Y-70878571D01*
X69421429Y-70592857D01*
X69564286Y-70450000D01*
X69707143Y-70378571D01*
X70921429Y-71807143D02*
X71135715Y-71878571D01*
X71492858Y-71878571D01*
X71635715Y-71807143D01*
X71707144Y-71735714D01*
X71778572Y-71592857D01*
X71778572Y-71450000D01*
X71707144Y-71307143D01*
X71635715Y-71235714D01*
X71492858Y-71164286D01*
X71207144Y-71092857D01*
X71064286Y-71021429D01*
X70992858Y-70950000D01*
X70921429Y-70807143D01*
X70921429Y-70664286D01*
X70992858Y-70521429D01*
X71064286Y-70450000D01*
X71207144Y-70378571D01*
X71564286Y-70378571D01*
X71778572Y-70450000D01*
X72921429Y-71092857D02*
X72421429Y-71092857D01*
X72421429Y-71878571D02*
X72421429Y-70378571D01*
X73135715Y-70378571D01*
X73707143Y-71092857D02*
X74207143Y-71092857D01*
X74421429Y-71878571D02*
X73707143Y-71878571D01*
X73707143Y-70378571D01*
X74421429Y-70378571D01*
X74850000Y-70378571D02*
X75707143Y-70378571D01*
X75278572Y-71878571D02*
X75278572Y-70378571D01*
X91207143Y-62478571D02*
X91207143Y-60978571D01*
X91707143Y-62050000D01*
X92207143Y-60978571D01*
X92207143Y-62478571D01*
X93207143Y-60978571D02*
X93492857Y-60978571D01*
X93635715Y-61050000D01*
X93778572Y-61192857D01*
X93850000Y-61478571D01*
X93850000Y-61978571D01*
X93778572Y-62264286D01*
X93635715Y-62407143D01*
X93492857Y-62478571D01*
X93207143Y-62478571D01*
X93064286Y-62407143D01*
X92921429Y-62264286D01*
X92850000Y-61978571D01*
X92850000Y-61478571D01*
X92921429Y-61192857D01*
X93064286Y-61050000D01*
X93207143Y-60978571D01*
X94421429Y-62407143D02*
X94635715Y-62478571D01*
X94992858Y-62478571D01*
X95135715Y-62407143D01*
X95207144Y-62335714D01*
X95278572Y-62192857D01*
X95278572Y-62050000D01*
X95207144Y-61907143D01*
X95135715Y-61835714D01*
X94992858Y-61764286D01*
X94707144Y-61692857D01*
X94564286Y-61621429D01*
X94492858Y-61550000D01*
X94421429Y-61407143D01*
X94421429Y-61264286D01*
X94492858Y-61121429D01*
X94564286Y-61050000D01*
X94707144Y-60978571D01*
X95064286Y-60978571D01*
X95278572Y-61050000D01*
X96421429Y-61692857D02*
X95921429Y-61692857D01*
X95921429Y-62478571D02*
X95921429Y-60978571D01*
X96635715Y-60978571D01*
X97207143Y-61692857D02*
X97707143Y-61692857D01*
X97921429Y-62478571D02*
X97207143Y-62478571D01*
X97207143Y-60978571D01*
X97921429Y-60978571D01*
X98350000Y-60978571D02*
X99207143Y-60978571D01*
X98778572Y-62478571D02*
X98778572Y-60978571D01*
X104135715Y-46792857D02*
X103635715Y-46792857D01*
X103635715Y-47578571D02*
X103635715Y-46078571D01*
X104350001Y-46078571D01*
X104921429Y-46078571D02*
X104921429Y-47292857D01*
X104992857Y-47435714D01*
X105064286Y-47507143D01*
X105207143Y-47578571D01*
X105492857Y-47578571D01*
X105635715Y-47507143D01*
X105707143Y-47435714D01*
X105778572Y-47292857D01*
X105778572Y-46078571D01*
X106421429Y-47507143D02*
X106635715Y-47578571D01*
X106992858Y-47578571D01*
X107135715Y-47507143D01*
X107207144Y-47435714D01*
X107278572Y-47292857D01*
X107278572Y-47150000D01*
X107207144Y-47007143D01*
X107135715Y-46935714D01*
X106992858Y-46864286D01*
X106707144Y-46792857D01*
X106564286Y-46721429D01*
X106492858Y-46650000D01*
X106421429Y-46507143D01*
X106421429Y-46364286D01*
X106492858Y-46221429D01*
X106564286Y-46150000D01*
X106707144Y-46078571D01*
X107064286Y-46078571D01*
X107278572Y-46150000D01*
X107921429Y-46792857D02*
X108421429Y-46792857D01*
X108635715Y-47578571D02*
X107921429Y-47578571D01*
X107921429Y-46078571D01*
X108635715Y-46078571D01*
X119078571Y-61107143D02*
X117578571Y-61107143D01*
X117578571Y-60535715D01*
X117650000Y-60392857D01*
X117721429Y-60321429D01*
X117864286Y-60250000D01*
X118078571Y-60250000D01*
X118221429Y-60321429D01*
X118292857Y-60392857D01*
X118364286Y-60535715D01*
X118364286Y-61107143D01*
X117578571Y-59321429D02*
X117578571Y-59035715D01*
X117650000Y-58892857D01*
X117792857Y-58750000D01*
X118078571Y-58678572D01*
X118578571Y-58678572D01*
X118864286Y-58750000D01*
X119007143Y-58892857D01*
X119078571Y-59035715D01*
X119078571Y-59321429D01*
X119007143Y-59464286D01*
X118864286Y-59607143D01*
X118578571Y-59678572D01*
X118078571Y-59678572D01*
X117792857Y-59607143D01*
X117650000Y-59464286D01*
X117578571Y-59321429D01*
X117578571Y-58178571D02*
X119078571Y-57821428D01*
X118007143Y-57535714D01*
X119078571Y-57250000D01*
X117578571Y-56892857D01*
X118292857Y-56321428D02*
X118292857Y-55821428D01*
X119078571Y-55607142D02*
X119078571Y-56321428D01*
X117578571Y-56321428D01*
X117578571Y-55607142D01*
X119078571Y-54107142D02*
X118364286Y-54607142D01*
X119078571Y-54964285D02*
X117578571Y-54964285D01*
X117578571Y-54392857D01*
X117650000Y-54249999D01*
X117721429Y-54178571D01*
X117864286Y-54107142D01*
X118078571Y-54107142D01*
X118221429Y-54178571D01*
X118292857Y-54249999D01*
X118364286Y-54392857D01*
X118364286Y-54964285D01*
X119221429Y-53821428D02*
X119221429Y-52678571D01*
X119007143Y-52392857D02*
X119078571Y-52178571D01*
X119078571Y-51821428D01*
X119007143Y-51678571D01*
X118935714Y-51607142D01*
X118792857Y-51535714D01*
X118650000Y-51535714D01*
X118507143Y-51607142D01*
X118435714Y-51678571D01*
X118364286Y-51821428D01*
X118292857Y-52107142D01*
X118221429Y-52250000D01*
X118150000Y-52321428D01*
X118007143Y-52392857D01*
X117864286Y-52392857D01*
X117721429Y-52321428D01*
X117650000Y-52250000D01*
X117578571Y-52107142D01*
X117578571Y-51750000D01*
X117650000Y-51535714D01*
X117578571Y-51035714D02*
X119078571Y-50678571D01*
X118007143Y-50392857D01*
X119078571Y-50107143D01*
X117578571Y-49750000D01*
X84107143Y-90392857D02*
X84321429Y-90464286D01*
X84392857Y-90535714D01*
X84464286Y-90678571D01*
X84464286Y-90892857D01*
X84392857Y-91035714D01*
X84321429Y-91107143D01*
X84178571Y-91178571D01*
X83607143Y-91178571D01*
X83607143Y-89678571D01*
X84107143Y-89678571D01*
X84250000Y-89750000D01*
X84321429Y-89821429D01*
X84392857Y-89964286D01*
X84392857Y-90107143D01*
X84321429Y-90250000D01*
X84250000Y-90321429D01*
X84107143Y-90392857D01*
X83607143Y-90392857D01*
X85107143Y-89678571D02*
X85107143Y-90892857D01*
X85178571Y-91035714D01*
X85250000Y-91107143D01*
X85392857Y-91178571D01*
X85678571Y-91178571D01*
X85821429Y-91107143D01*
X85892857Y-91035714D01*
X85964286Y-90892857D01*
X85964286Y-89678571D01*
X86464286Y-89678571D02*
X87321429Y-89678571D01*
X86892858Y-91178571D02*
X86892858Y-89678571D01*
X87607143Y-89678571D02*
X88464286Y-89678571D01*
X88035715Y-91178571D02*
X88035715Y-89678571D01*
X89250000Y-89678571D02*
X89535714Y-89678571D01*
X89678572Y-89750000D01*
X89821429Y-89892857D01*
X89892857Y-90178571D01*
X89892857Y-90678571D01*
X89821429Y-90964286D01*
X89678572Y-91107143D01*
X89535714Y-91178571D01*
X89250000Y-91178571D01*
X89107143Y-91107143D01*
X88964286Y-90964286D01*
X88892857Y-90678571D01*
X88892857Y-90178571D01*
X88964286Y-89892857D01*
X89107143Y-89750000D01*
X89250000Y-89678571D01*
X90535715Y-91178571D02*
X90535715Y-89678571D01*
X91392858Y-91178571D01*
X91392858Y-89678571D01*
X47007143Y-73092857D02*
X47221429Y-73164286D01*
X47292857Y-73235714D01*
X47364286Y-73378571D01*
X47364286Y-73592857D01*
X47292857Y-73735714D01*
X47221429Y-73807143D01*
X47078571Y-73878571D01*
X46507143Y-73878571D01*
X46507143Y-72378571D01*
X47007143Y-72378571D01*
X47150000Y-72450000D01*
X47221429Y-72521429D01*
X47292857Y-72664286D01*
X47292857Y-72807143D01*
X47221429Y-72950000D01*
X47150000Y-73021429D01*
X47007143Y-73092857D01*
X46507143Y-73092857D01*
X48007143Y-72378571D02*
X48007143Y-73592857D01*
X48078571Y-73735714D01*
X48150000Y-73807143D01*
X48292857Y-73878571D01*
X48578571Y-73878571D01*
X48721429Y-73807143D01*
X48792857Y-73735714D01*
X48864286Y-73592857D01*
X48864286Y-72378571D01*
X49364286Y-72378571D02*
X50221429Y-72378571D01*
X49792858Y-73878571D02*
X49792858Y-72378571D01*
X50507143Y-72378571D02*
X51364286Y-72378571D01*
X50935715Y-73878571D02*
X50935715Y-72378571D01*
X52150000Y-72378571D02*
X52435714Y-72378571D01*
X52578572Y-72450000D01*
X52721429Y-72592857D01*
X52792857Y-72878571D01*
X52792857Y-73378571D01*
X52721429Y-73664286D01*
X52578572Y-73807143D01*
X52435714Y-73878571D01*
X52150000Y-73878571D01*
X52007143Y-73807143D01*
X51864286Y-73664286D01*
X51792857Y-73378571D01*
X51792857Y-72878571D01*
X51864286Y-72592857D01*
X52007143Y-72450000D01*
X52150000Y-72378571D01*
X53435715Y-73878571D02*
X53435715Y-72378571D01*
X54292858Y-73878571D01*
X54292858Y-72378571D01*
X58907143Y-77992857D02*
X59121429Y-78064286D01*
X59192857Y-78135714D01*
X59264286Y-78278571D01*
X59264286Y-78492857D01*
X59192857Y-78635714D01*
X59121429Y-78707143D01*
X58978571Y-78778571D01*
X58407143Y-78778571D01*
X58407143Y-77278571D01*
X58907143Y-77278571D01*
X59050000Y-77350000D01*
X59121429Y-77421429D01*
X59192857Y-77564286D01*
X59192857Y-77707143D01*
X59121429Y-77850000D01*
X59050000Y-77921429D01*
X58907143Y-77992857D01*
X58407143Y-77992857D01*
X59907143Y-78778571D02*
X59907143Y-77278571D01*
X61407143Y-77350000D02*
X61264286Y-77278571D01*
X61050000Y-77278571D01*
X60835715Y-77350000D01*
X60692857Y-77492857D01*
X60621429Y-77635714D01*
X60550000Y-77921429D01*
X60550000Y-78135714D01*
X60621429Y-78421429D01*
X60692857Y-78564286D01*
X60835715Y-78707143D01*
X61050000Y-78778571D01*
X61192857Y-78778571D01*
X61407143Y-78707143D01*
X61478572Y-78635714D01*
X61478572Y-78135714D01*
X61192857Y-78135714D01*
X63264286Y-78778571D02*
X63264286Y-77278571D01*
X63621429Y-77278571D01*
X63835714Y-77350000D01*
X63978572Y-77492857D01*
X64050000Y-77635714D01*
X64121429Y-77921429D01*
X64121429Y-78135714D01*
X64050000Y-78421429D01*
X63978572Y-78564286D01*
X63835714Y-78707143D01*
X63621429Y-78778571D01*
X63264286Y-78778571D01*
X64764286Y-78778571D02*
X64764286Y-77278571D01*
X65764286Y-77278571D02*
X66050000Y-77278571D01*
X66192858Y-77350000D01*
X66335715Y-77492857D01*
X66407143Y-77778571D01*
X66407143Y-78278571D01*
X66335715Y-78564286D01*
X66192858Y-78707143D01*
X66050000Y-78778571D01*
X65764286Y-78778571D01*
X65621429Y-78707143D01*
X65478572Y-78564286D01*
X65407143Y-78278571D01*
X65407143Y-77778571D01*
X65478572Y-77492857D01*
X65621429Y-77350000D01*
X65764286Y-77278571D01*
X67050001Y-78778571D02*
X67050001Y-77278571D01*
X67407144Y-77278571D01*
X67621429Y-77350000D01*
X67764287Y-77492857D01*
X67835715Y-77635714D01*
X67907144Y-77921429D01*
X67907144Y-78135714D01*
X67835715Y-78421429D01*
X67764287Y-78564286D01*
X67621429Y-78707143D01*
X67407144Y-78778571D01*
X67050001Y-78778571D01*
X68550001Y-77992857D02*
X69050001Y-77992857D01*
X69264287Y-78778571D02*
X68550001Y-78778571D01*
X68550001Y-77278571D01*
X69264287Y-77278571D01*
X121335715Y-66978571D02*
X120621429Y-66978571D01*
X120621429Y-65478571D01*
X121835715Y-66192857D02*
X122335715Y-66192857D01*
X122550001Y-66978571D02*
X121835715Y-66978571D01*
X121835715Y-65478571D01*
X122550001Y-65478571D01*
X123192858Y-66978571D02*
X123192858Y-65478571D01*
X123550001Y-65478571D01*
X123764286Y-65550000D01*
X123907144Y-65692857D01*
X123978572Y-65835714D01*
X124050001Y-66121429D01*
X124050001Y-66335714D01*
X123978572Y-66621429D01*
X123907144Y-66764286D01*
X123764286Y-66907143D01*
X123550001Y-66978571D01*
X123192858Y-66978571D01*
X86235715Y-85478571D02*
X85521429Y-85478571D01*
X85521429Y-83978571D01*
X86735715Y-84692857D02*
X87235715Y-84692857D01*
X87450001Y-85478571D02*
X86735715Y-85478571D01*
X86735715Y-83978571D01*
X87450001Y-83978571D01*
X88092858Y-85478571D02*
X88092858Y-83978571D01*
X88450001Y-83978571D01*
X88664286Y-84050000D01*
X88807144Y-84192857D01*
X88878572Y-84335714D01*
X88950001Y-84621429D01*
X88950001Y-84835714D01*
X88878572Y-85121429D01*
X88807144Y-85264286D01*
X88664286Y-85407143D01*
X88450001Y-85478571D01*
X88092858Y-85478571D01*
X52935715Y-61478571D02*
X52221429Y-61478571D01*
X52221429Y-59978571D01*
X53435715Y-60692857D02*
X53935715Y-60692857D01*
X54150001Y-61478571D02*
X53435715Y-61478571D01*
X53435715Y-59978571D01*
X54150001Y-59978571D01*
X54792858Y-61478571D02*
X54792858Y-59978571D01*
X55150001Y-59978571D01*
X55364286Y-60050000D01*
X55507144Y-60192857D01*
X55578572Y-60335714D01*
X55650001Y-60621429D01*
X55650001Y-60835714D01*
X55578572Y-61121429D01*
X55507144Y-61264286D01*
X55364286Y-61407143D01*
X55150001Y-61478571D01*
X54792858Y-61478571D01*
X133200000Y-96878571D02*
X134057143Y-96878571D01*
X133628572Y-98378571D02*
X133628572Y-96878571D01*
X134557143Y-97592857D02*
X135057143Y-97592857D01*
X135271429Y-98378571D02*
X134557143Y-98378571D01*
X134557143Y-96878571D01*
X135271429Y-96878571D01*
X135914286Y-98378571D02*
X135914286Y-96878571D01*
X136414286Y-97950000D01*
X136914286Y-96878571D01*
X136914286Y-98378571D01*
X137628572Y-98378571D02*
X137628572Y-96878571D01*
X138200000Y-96878571D01*
X138342858Y-96950000D01*
X138414286Y-97021429D01*
X138485715Y-97164286D01*
X138485715Y-97378571D01*
X138414286Y-97521429D01*
X138342858Y-97592857D01*
X138200000Y-97664286D01*
X137628572Y-97664286D01*
X140271429Y-98378571D02*
X140271429Y-96878571D01*
X140842857Y-96878571D01*
X140985715Y-96950000D01*
X141057143Y-97021429D01*
X141128572Y-97164286D01*
X141128572Y-97378571D01*
X141057143Y-97521429D01*
X140985715Y-97592857D01*
X140842857Y-97664286D01*
X140271429Y-97664286D01*
X142628572Y-98378571D02*
X142128572Y-97664286D01*
X141771429Y-98378571D02*
X141771429Y-96878571D01*
X142342857Y-96878571D01*
X142485715Y-96950000D01*
X142557143Y-97021429D01*
X142628572Y-97164286D01*
X142628572Y-97378571D01*
X142557143Y-97521429D01*
X142485715Y-97592857D01*
X142342857Y-97664286D01*
X141771429Y-97664286D01*
X143557143Y-96878571D02*
X143842857Y-96878571D01*
X143985715Y-96950000D01*
X144128572Y-97092857D01*
X144200000Y-97378571D01*
X144200000Y-97878571D01*
X144128572Y-98164286D01*
X143985715Y-98307143D01*
X143842857Y-98378571D01*
X143557143Y-98378571D01*
X143414286Y-98307143D01*
X143271429Y-98164286D01*
X143200000Y-97878571D01*
X143200000Y-97378571D01*
X143271429Y-97092857D01*
X143414286Y-96950000D01*
X143557143Y-96878571D01*
X145342858Y-97592857D02*
X145557144Y-97664286D01*
X145628572Y-97735714D01*
X145700001Y-97878571D01*
X145700001Y-98092857D01*
X145628572Y-98235714D01*
X145557144Y-98307143D01*
X145414286Y-98378571D01*
X144842858Y-98378571D01*
X144842858Y-96878571D01*
X145342858Y-96878571D01*
X145485715Y-96950000D01*
X145557144Y-97021429D01*
X145628572Y-97164286D01*
X145628572Y-97307143D01*
X145557144Y-97450000D01*
X145485715Y-97521429D01*
X145342858Y-97592857D01*
X144842858Y-97592857D01*
X146342858Y-97592857D02*
X146842858Y-97592857D01*
X147057144Y-98378571D02*
X146342858Y-98378571D01*
X146342858Y-96878571D01*
X147057144Y-96878571D01*
M02*
