G04 #@! TF.FileFunction,Soldermask,Top*
%FSLAX46Y46*%
G04 Gerber Fmt 4.6, Leading zero omitted, Abs format (unit mm)*
G04 Created by KiCad (PCBNEW 4.0.7-e2-6376~61~ubuntu18.04.1) date Tue Jul 31 18:43:04 2018*
%MOMM*%
%LPD*%
G01*
G04 APERTURE LIST*
%ADD10C,0.100000*%
%ADD11R,1.750000X0.850000*%
%ADD12C,1.808000*%
%ADD13C,2.200000*%
%ADD14R,1.950000X1.900000*%
%ADD15R,2.051000X1.398220*%
%ADD16O,6.330000X2.370000*%
%ADD17C,2.300000*%
%ADD18R,1.670000X0.958800*%
%ADD19R,0.958800X1.670000*%
%ADD20C,2.100000*%
%ADD21O,3.700000X3.900000*%
%ADD22R,1.650000X1.400000*%
%ADD23R,1.150000X1.200000*%
%ADD24R,2.650000X3.600000*%
%ADD25C,3.800000*%
%ADD26C,4.900000*%
%ADD27R,0.900000X1.300000*%
%ADD28R,1.300000X0.900000*%
%ADD29R,1.102360X1.201420*%
%ADD30O,3.430000X2.160000*%
%ADD31R,1.460000X1.050000*%
%ADD32C,2.279600*%
%ADD33R,0.850000X0.700000*%
%ADD34R,1.150000X0.700000*%
%ADD35R,1.400000X1.350000*%
%ADD36R,2.127200X2.432000*%
%ADD37O,2.127200X2.432000*%
%ADD38R,1.620000X1.310000*%
G04 APERTURE END LIST*
D10*
D11*
X50175000Y-85200000D03*
X50175000Y-85850000D03*
X50175000Y-86500000D03*
X50175000Y-87150000D03*
X50175000Y-87800000D03*
D12*
X50200000Y-84000000D03*
X50200000Y-89000000D03*
D13*
X47500000Y-83000000D03*
X47500000Y-90000000D03*
D14*
X47500000Y-85500000D03*
X47500000Y-87500000D03*
X47500000Y-83450000D03*
X47500000Y-89550000D03*
D15*
X51500000Y-59204680D03*
X51500000Y-62400000D03*
X56651120Y-62400000D03*
X56651120Y-59204680D03*
D16*
X62910000Y-68000000D03*
X70810000Y-68000000D03*
D17*
X59470000Y-49760000D03*
X74250000Y-49760000D03*
D18*
X119607400Y-78700920D03*
X119607400Y-79501020D03*
X119607400Y-80301120D03*
X119607400Y-81101220D03*
X119607400Y-81898780D03*
X119607400Y-82698880D03*
X119607400Y-83498980D03*
X119607400Y-84299080D03*
D19*
X121100920Y-85792600D03*
X121901020Y-85792600D03*
X122701120Y-85792600D03*
X123501220Y-85792600D03*
X124298780Y-85792600D03*
X125098880Y-85792600D03*
X125898980Y-85792600D03*
X126699080Y-85792600D03*
D18*
X128192600Y-84299080D03*
X128192600Y-83498980D03*
X128192600Y-82698880D03*
X128192600Y-81898780D03*
X128192600Y-81101220D03*
X128192600Y-80301120D03*
X128192600Y-79501020D03*
X128192600Y-78700920D03*
D19*
X126699080Y-77207400D03*
X125898980Y-77207400D03*
X125098880Y-77207400D03*
X124298780Y-77207400D03*
X123501220Y-77207400D03*
X122701120Y-77207400D03*
X121901020Y-77207400D03*
X121100920Y-77207400D03*
D20*
X70500000Y-97400000D03*
X66750000Y-97400000D03*
X74250000Y-97400000D03*
D21*
X76800000Y-87400000D03*
X64200000Y-87400000D03*
D16*
X131590000Y-68000000D03*
X139490000Y-68000000D03*
D17*
X128150000Y-49760000D03*
X142930000Y-49760000D03*
D22*
X141200000Y-80300000D03*
X141200000Y-78300000D03*
D23*
X138600000Y-80100000D03*
X138600000Y-78600000D03*
X136600000Y-80100000D03*
X136600000Y-78600000D03*
D24*
X60500000Y-75100000D03*
X67400000Y-75100000D03*
X83150000Y-74700000D03*
X90050000Y-74700000D03*
D25*
X108030000Y-50000000D03*
X103970000Y-50000000D03*
X113110000Y-50000000D03*
X98890000Y-50000000D03*
D26*
X153000000Y-52000000D03*
X53000000Y-52000000D03*
X53000000Y-97000000D03*
X153000000Y-97250000D03*
D16*
X83040000Y-68000000D03*
X90940000Y-68000000D03*
D17*
X79600000Y-49760000D03*
X94380000Y-49760000D03*
D20*
X152200000Y-62900000D03*
X147200000Y-66400000D03*
X152200000Y-69900000D03*
X147200000Y-73400000D03*
X152200000Y-76900000D03*
X152200000Y-83900000D03*
X147200000Y-80400000D03*
X147200000Y-87400000D03*
D27*
X78250000Y-73800000D03*
X76750000Y-73800000D03*
X78300000Y-71100000D03*
X76800000Y-71100000D03*
D28*
X93900000Y-71350000D03*
X93900000Y-72850000D03*
X132400000Y-84050000D03*
X132400000Y-85550000D03*
X134500000Y-85600000D03*
X134500000Y-84100000D03*
X96100000Y-69000000D03*
X96100000Y-67500000D03*
D20*
X107600000Y-71500000D03*
X103850000Y-71500000D03*
X111350000Y-71500000D03*
D21*
X113900000Y-61500000D03*
X101300000Y-61500000D03*
D29*
X48500000Y-76600000D03*
X52599560Y-76600000D03*
X52599560Y-75004880D03*
X48500000Y-75004880D03*
D13*
X84900000Y-92900000D03*
X89900000Y-92900000D03*
X84900000Y-97900000D03*
X89900000Y-97900000D03*
X105100000Y-77200000D03*
X110100000Y-77200000D03*
X105100000Y-82200000D03*
X110100000Y-82200000D03*
D30*
X121100000Y-55300000D03*
X121100000Y-60000000D03*
X121100000Y-50600000D03*
D31*
X131400000Y-75850000D03*
X131400000Y-76800000D03*
X131400000Y-77750000D03*
X133600000Y-77750000D03*
X133600000Y-75850000D03*
D15*
X119924440Y-64802340D03*
X119924440Y-67997660D03*
X125075560Y-67997660D03*
X125075560Y-64802340D03*
X84624440Y-83102340D03*
X84624440Y-86297660D03*
X89775560Y-86297660D03*
X89775560Y-83102340D03*
D32*
X144300000Y-100200000D03*
X141760000Y-100200000D03*
X139220000Y-100200000D03*
D33*
X96125000Y-63250000D03*
X96125000Y-63900000D03*
X96125000Y-64550000D03*
X98075000Y-64550000D03*
X98075000Y-63900000D03*
X98075000Y-63250000D03*
D34*
X97195000Y-64550000D03*
D35*
X97100000Y-63575000D03*
X97100000Y-63575000D03*
D33*
X71375000Y-72625000D03*
X71375000Y-73275000D03*
X71375000Y-73925000D03*
X73325000Y-73925000D03*
X73325000Y-73275000D03*
X73325000Y-72625000D03*
D34*
X72445000Y-73925000D03*
D35*
X72350000Y-72950000D03*
X72350000Y-72950000D03*
D36*
X112100000Y-101800000D03*
D37*
X109560000Y-101800000D03*
X107020000Y-101800000D03*
X104480000Y-101800000D03*
D38*
X60300000Y-82000000D03*
X60300000Y-85270000D03*
M02*
