G04 #@! TF.FileFunction,Legend,Bot*
%FSLAX46Y46*%
G04 Gerber Fmt 4.6, Leading zero omitted, Abs format (unit mm)*
G04 Created by KiCad (PCBNEW 4.0.7-e2-6376~61~ubuntu18.04.1) date Tue Jul 31 18:43:04 2018*
%MOMM*%
%LPD*%
G01*
G04 APERTURE LIST*
%ADD10C,0.100000*%
%ADD11C,0.300000*%
G04 APERTURE END LIST*
D10*
D11*
X145878571Y-65842857D02*
X147378571Y-66342857D01*
X145878571Y-66842857D01*
X147235714Y-67342857D02*
X147307143Y-67414285D01*
X147378571Y-67342857D01*
X147307143Y-67271428D01*
X147235714Y-67342857D01*
X147378571Y-67342857D01*
X146450000Y-67342857D02*
X146521429Y-67414285D01*
X146592857Y-67342857D01*
X146521429Y-67271428D01*
X146450000Y-67342857D01*
X146592857Y-67342857D01*
X145878571Y-68985714D02*
X147378571Y-69485714D01*
X145878571Y-69985714D01*
X147235714Y-71342857D02*
X147307143Y-71271428D01*
X147378571Y-71057142D01*
X147378571Y-70914285D01*
X147307143Y-70700000D01*
X147164286Y-70557142D01*
X147021429Y-70485714D01*
X146735714Y-70414285D01*
X146521429Y-70414285D01*
X146235714Y-70485714D01*
X146092857Y-70557142D01*
X145950000Y-70700000D01*
X145878571Y-70914285D01*
X145878571Y-71057142D01*
X145950000Y-71271428D01*
X146021429Y-71342857D01*
X147235714Y-72842857D02*
X147307143Y-72771428D01*
X147378571Y-72557142D01*
X147378571Y-72414285D01*
X147307143Y-72200000D01*
X147164286Y-72057142D01*
X147021429Y-71985714D01*
X146735714Y-71914285D01*
X146521429Y-71914285D01*
X146235714Y-71985714D01*
X146092857Y-72057142D01*
X145950000Y-72200000D01*
X145878571Y-72414285D01*
X145878571Y-72557142D01*
X145950000Y-72771428D01*
X146021429Y-72842857D01*
X148428571Y-65842857D02*
X148428571Y-66700000D01*
X149928571Y-66271429D02*
X148428571Y-66271429D01*
X149785714Y-67200000D02*
X149857143Y-67271428D01*
X149928571Y-67200000D01*
X149857143Y-67128571D01*
X149785714Y-67200000D01*
X149928571Y-67200000D01*
X149000000Y-67200000D02*
X149071429Y-67271428D01*
X149142857Y-67200000D01*
X149071429Y-67128571D01*
X149000000Y-67200000D01*
X149142857Y-67200000D01*
X149142857Y-69057143D02*
X149142857Y-69557143D01*
X149928571Y-69771429D02*
X149928571Y-69057143D01*
X148428571Y-69057143D01*
X148428571Y-69771429D01*
X148428571Y-70271429D02*
X149928571Y-71271429D01*
X148428571Y-71271429D02*
X149928571Y-70271429D01*
X148428571Y-71628571D02*
X148428571Y-72485714D01*
X149928571Y-72057143D02*
X148428571Y-72057143D01*
X149142857Y-72985714D02*
X149142857Y-73485714D01*
X149928571Y-73700000D02*
X149928571Y-72985714D01*
X148428571Y-72985714D01*
X148428571Y-73700000D01*
X149928571Y-75200000D02*
X149214286Y-74700000D01*
X149928571Y-74342857D02*
X148428571Y-74342857D01*
X148428571Y-74914285D01*
X148500000Y-75057143D01*
X148571429Y-75128571D01*
X148714286Y-75200000D01*
X148928571Y-75200000D01*
X149071429Y-75128571D01*
X149142857Y-75057143D01*
X149214286Y-74914285D01*
X149214286Y-74342857D01*
X149928571Y-75842857D02*
X148428571Y-75842857D01*
X149928571Y-76700000D01*
X148428571Y-76700000D01*
X149500000Y-77342857D02*
X149500000Y-78057143D01*
X149928571Y-77200000D02*
X148428571Y-77700000D01*
X149928571Y-78200000D01*
X149928571Y-79414286D02*
X149928571Y-78700000D01*
X148428571Y-78700000D01*
X148428571Y-80842857D02*
X148428571Y-81700000D01*
X149928571Y-81271429D02*
X148428571Y-81271429D01*
X149142857Y-82200000D02*
X149142857Y-82700000D01*
X149928571Y-82914286D02*
X149928571Y-82200000D01*
X148428571Y-82200000D01*
X148428571Y-82914286D01*
X149928571Y-83557143D02*
X148428571Y-83557143D01*
X149500000Y-84057143D01*
X148428571Y-84557143D01*
X149928571Y-84557143D01*
X149928571Y-85271429D02*
X148428571Y-85271429D01*
X148428571Y-85842857D01*
X148500000Y-85985715D01*
X148571429Y-86057143D01*
X148714286Y-86128572D01*
X148928571Y-86128572D01*
X149071429Y-86057143D01*
X149142857Y-85985715D01*
X149214286Y-85842857D01*
X149214286Y-85271429D01*
X151050000Y-66842857D02*
X150978571Y-66700000D01*
X150978571Y-66485714D01*
X151050000Y-66271429D01*
X151192857Y-66128571D01*
X151335714Y-66057143D01*
X151621429Y-65985714D01*
X151835714Y-65985714D01*
X152121429Y-66057143D01*
X152264286Y-66128571D01*
X152407143Y-66271429D01*
X152478571Y-66485714D01*
X152478571Y-66628571D01*
X152407143Y-66842857D01*
X152335714Y-66914286D01*
X151835714Y-66914286D01*
X151835714Y-66628571D01*
X152335714Y-67557143D02*
X152407143Y-67628571D01*
X152478571Y-67557143D01*
X152407143Y-67485714D01*
X152335714Y-67557143D01*
X152478571Y-67557143D01*
X151550000Y-67557143D02*
X151621429Y-67628571D01*
X151692857Y-67557143D01*
X151621429Y-67485714D01*
X151550000Y-67557143D01*
X151692857Y-67557143D01*
X151050000Y-70200000D02*
X150978571Y-70057143D01*
X150978571Y-69842857D01*
X151050000Y-69628572D01*
X151192857Y-69485714D01*
X151335714Y-69414286D01*
X151621429Y-69342857D01*
X151835714Y-69342857D01*
X152121429Y-69414286D01*
X152264286Y-69485714D01*
X152407143Y-69628572D01*
X152478571Y-69842857D01*
X152478571Y-69985714D01*
X152407143Y-70200000D01*
X152335714Y-70271429D01*
X151835714Y-70271429D01*
X151835714Y-69985714D01*
X152478571Y-71771429D02*
X151764286Y-71271429D01*
X152478571Y-70914286D02*
X150978571Y-70914286D01*
X150978571Y-71485714D01*
X151050000Y-71628572D01*
X151121429Y-71700000D01*
X151264286Y-71771429D01*
X151478571Y-71771429D01*
X151621429Y-71700000D01*
X151692857Y-71628572D01*
X151764286Y-71485714D01*
X151764286Y-70914286D01*
X150978571Y-72700000D02*
X150978571Y-72985714D01*
X151050000Y-73128572D01*
X151192857Y-73271429D01*
X151478571Y-73342857D01*
X151978571Y-73342857D01*
X152264286Y-73271429D01*
X152407143Y-73128572D01*
X152478571Y-72985714D01*
X152478571Y-72700000D01*
X152407143Y-72557143D01*
X152264286Y-72414286D01*
X151978571Y-72342857D01*
X151478571Y-72342857D01*
X151192857Y-72414286D01*
X151050000Y-72557143D01*
X150978571Y-72700000D01*
X150978571Y-73985715D02*
X152192857Y-73985715D01*
X152335714Y-74057143D01*
X152407143Y-74128572D01*
X152478571Y-74271429D01*
X152478571Y-74557143D01*
X152407143Y-74700001D01*
X152335714Y-74771429D01*
X152192857Y-74842858D01*
X150978571Y-74842858D01*
X152478571Y-75557144D02*
X150978571Y-75557144D01*
X152478571Y-76414287D01*
X150978571Y-76414287D01*
X152478571Y-77128573D02*
X150978571Y-77128573D01*
X150978571Y-77485716D01*
X151050000Y-77700001D01*
X151192857Y-77842859D01*
X151335714Y-77914287D01*
X151621429Y-77985716D01*
X151835714Y-77985716D01*
X152121429Y-77914287D01*
X152264286Y-77842859D01*
X152407143Y-77700001D01*
X152478571Y-77485716D01*
X152478571Y-77128573D01*
X154242857Y-66557143D02*
X154242857Y-66057143D01*
X155028571Y-66057143D02*
X153528571Y-66057143D01*
X153528571Y-66771429D01*
X154885714Y-67342857D02*
X154957143Y-67414285D01*
X155028571Y-67342857D01*
X154957143Y-67271428D01*
X154885714Y-67342857D01*
X155028571Y-67342857D01*
X154100000Y-67342857D02*
X154171429Y-67414285D01*
X154242857Y-67342857D01*
X154171429Y-67271428D01*
X154100000Y-67342857D01*
X154242857Y-67342857D01*
X154242857Y-69700000D02*
X154242857Y-69200000D01*
X155028571Y-69200000D02*
X153528571Y-69200000D01*
X153528571Y-69914286D01*
X154600000Y-70414285D02*
X154600000Y-71128571D01*
X155028571Y-70271428D02*
X153528571Y-70771428D01*
X155028571Y-71271428D01*
X155028571Y-71771428D02*
X153528571Y-71771428D01*
X155028571Y-72628571D01*
X153528571Y-72628571D01*
X156078571Y-65914286D02*
X157578571Y-66271429D01*
X156507143Y-66557143D01*
X157578571Y-66842857D01*
X156078571Y-67200000D01*
X157435714Y-67771429D02*
X157507143Y-67842857D01*
X157578571Y-67771429D01*
X157507143Y-67700000D01*
X157435714Y-67771429D01*
X157578571Y-67771429D01*
X156650000Y-67771429D02*
X156721429Y-67842857D01*
X156792857Y-67771429D01*
X156721429Y-67700000D01*
X156650000Y-67771429D01*
X156792857Y-67771429D01*
X156078571Y-69485715D02*
X157578571Y-69842858D01*
X156507143Y-70128572D01*
X157578571Y-70414286D01*
X156078571Y-70771429D01*
X157150000Y-71271429D02*
X157150000Y-71985715D01*
X157578571Y-71128572D02*
X156078571Y-71628572D01*
X157578571Y-72128572D01*
X156078571Y-72414286D02*
X156078571Y-73271429D01*
X157578571Y-72842858D02*
X156078571Y-72842858D01*
X156792857Y-73771429D02*
X156792857Y-74271429D01*
X157578571Y-74485715D02*
X157578571Y-73771429D01*
X156078571Y-73771429D01*
X156078571Y-74485715D01*
X157578571Y-75985715D02*
X156864286Y-75485715D01*
X157578571Y-75128572D02*
X156078571Y-75128572D01*
X156078571Y-75700000D01*
X156150000Y-75842858D01*
X156221429Y-75914286D01*
X156364286Y-75985715D01*
X156578571Y-75985715D01*
X156721429Y-75914286D01*
X156792857Y-75842858D01*
X156864286Y-75700000D01*
X156864286Y-75128572D01*
X157507143Y-77700000D02*
X157578571Y-77914286D01*
X157578571Y-78271429D01*
X157507143Y-78414286D01*
X157435714Y-78485715D01*
X157292857Y-78557143D01*
X157150000Y-78557143D01*
X157007143Y-78485715D01*
X156935714Y-78414286D01*
X156864286Y-78271429D01*
X156792857Y-77985715D01*
X156721429Y-77842857D01*
X156650000Y-77771429D01*
X156507143Y-77700000D01*
X156364286Y-77700000D01*
X156221429Y-77771429D01*
X156150000Y-77842857D01*
X156078571Y-77985715D01*
X156078571Y-78342857D01*
X156150000Y-78557143D01*
X156078571Y-79057143D02*
X157578571Y-79414286D01*
X156507143Y-79700000D01*
X157578571Y-79985714D01*
X156078571Y-80342857D01*
X157578571Y-80914286D02*
X156078571Y-80914286D01*
X156078571Y-81414286D02*
X156078571Y-82271429D01*
X157578571Y-81842858D02*
X156078571Y-81842858D01*
X157435714Y-83628572D02*
X157507143Y-83557143D01*
X157578571Y-83342857D01*
X157578571Y-83200000D01*
X157507143Y-82985715D01*
X157364286Y-82842857D01*
X157221429Y-82771429D01*
X156935714Y-82700000D01*
X156721429Y-82700000D01*
X156435714Y-82771429D01*
X156292857Y-82842857D01*
X156150000Y-82985715D01*
X156078571Y-83200000D01*
X156078571Y-83342857D01*
X156150000Y-83557143D01*
X156221429Y-83628572D01*
X157578571Y-84271429D02*
X156078571Y-84271429D01*
X156792857Y-84271429D02*
X156792857Y-85128572D01*
X157578571Y-85128572D02*
X156078571Y-85128572D01*
X65785715Y-46107143D02*
X65285715Y-46107143D01*
X65285715Y-45321429D02*
X65285715Y-46821429D01*
X66000001Y-46821429D01*
X66500000Y-45750000D02*
X67214286Y-45750000D01*
X66357143Y-45321429D02*
X66857143Y-46821429D01*
X67357143Y-45321429D01*
X67857143Y-45321429D02*
X67857143Y-46821429D01*
X68714286Y-45321429D01*
X68714286Y-46821429D01*
X84214286Y-45321429D02*
X84214286Y-46821429D01*
X84785714Y-46821429D01*
X84928572Y-46750000D01*
X85000000Y-46678571D01*
X85071429Y-46535714D01*
X85071429Y-46321429D01*
X85000000Y-46178571D01*
X84928572Y-46107143D01*
X84785714Y-46035714D01*
X84214286Y-46035714D01*
X85714286Y-46821429D02*
X85714286Y-45607143D01*
X85785714Y-45464286D01*
X85857143Y-45392857D01*
X86000000Y-45321429D01*
X86285714Y-45321429D01*
X86428572Y-45392857D01*
X86500000Y-45464286D01*
X86571429Y-45607143D01*
X86571429Y-46821429D01*
X87285715Y-45321429D02*
X87285715Y-46821429D01*
X87785715Y-45750000D01*
X88285715Y-46821429D01*
X88285715Y-45321429D01*
X89000001Y-45321429D02*
X89000001Y-46821429D01*
X89571429Y-46821429D01*
X89714287Y-46750000D01*
X89785715Y-46678571D01*
X89857144Y-46535714D01*
X89857144Y-46321429D01*
X89785715Y-46178571D01*
X89714287Y-46107143D01*
X89571429Y-46035714D01*
X89000001Y-46035714D01*
X134714286Y-46321429D02*
X134714286Y-47821429D01*
X135428572Y-46321429D02*
X135428572Y-47821429D01*
X136285715Y-46321429D01*
X136285715Y-47821429D01*
X103825000Y-97042857D02*
X103753571Y-96900000D01*
X103753571Y-96685714D01*
X103825000Y-96471429D01*
X103967857Y-96328571D01*
X104110714Y-96257143D01*
X104396429Y-96185714D01*
X104610714Y-96185714D01*
X104896429Y-96257143D01*
X105039286Y-96328571D01*
X105182143Y-96471429D01*
X105253571Y-96685714D01*
X105253571Y-96828571D01*
X105182143Y-97042857D01*
X105110714Y-97114286D01*
X104610714Y-97114286D01*
X104610714Y-96828571D01*
X105253571Y-97757143D02*
X103753571Y-97757143D01*
X105253571Y-98614286D01*
X103753571Y-98614286D01*
X105253571Y-99328572D02*
X103753571Y-99328572D01*
X103753571Y-99685715D01*
X103825000Y-99900000D01*
X103967857Y-100042858D01*
X104110714Y-100114286D01*
X104396429Y-100185715D01*
X104610714Y-100185715D01*
X104896429Y-100114286D01*
X105039286Y-100042858D01*
X105182143Y-99900000D01*
X105253571Y-99685715D01*
X105253571Y-99328572D01*
X107660714Y-97114286D02*
X107732143Y-97042857D01*
X107803571Y-96828571D01*
X107803571Y-96685714D01*
X107732143Y-96471429D01*
X107589286Y-96328571D01*
X107446429Y-96257143D01*
X107160714Y-96185714D01*
X106946429Y-96185714D01*
X106660714Y-96257143D01*
X106517857Y-96328571D01*
X106375000Y-96471429D01*
X106303571Y-96685714D01*
X106303571Y-96828571D01*
X106375000Y-97042857D01*
X106446429Y-97114286D01*
X107803571Y-98471429D02*
X107803571Y-97757143D01*
X106303571Y-97757143D01*
X107803571Y-98971429D02*
X106303571Y-98971429D01*
X107803571Y-99828572D02*
X106946429Y-99185715D01*
X106303571Y-99828572D02*
X107160714Y-98971429D01*
X110353571Y-96257143D02*
X108853571Y-96257143D01*
X108853571Y-97257143D02*
X108853571Y-97542857D01*
X108925000Y-97685715D01*
X109067857Y-97828572D01*
X109353571Y-97900000D01*
X109853571Y-97900000D01*
X110139286Y-97828572D01*
X110282143Y-97685715D01*
X110353571Y-97542857D01*
X110353571Y-97257143D01*
X110282143Y-97114286D01*
X110139286Y-96971429D01*
X109853571Y-96900000D01*
X109353571Y-96900000D01*
X109067857Y-96971429D01*
X108925000Y-97114286D01*
X108853571Y-97257143D01*
X111403571Y-96042857D02*
X112903571Y-96542857D01*
X111403571Y-97042857D01*
X112760714Y-98400000D02*
X112832143Y-98328571D01*
X112903571Y-98114285D01*
X112903571Y-97971428D01*
X112832143Y-97757143D01*
X112689286Y-97614285D01*
X112546429Y-97542857D01*
X112260714Y-97471428D01*
X112046429Y-97471428D01*
X111760714Y-97542857D01*
X111617857Y-97614285D01*
X111475000Y-97757143D01*
X111403571Y-97971428D01*
X111403571Y-98114285D01*
X111475000Y-98328571D01*
X111546429Y-98400000D01*
X112760714Y-99900000D02*
X112832143Y-99828571D01*
X112903571Y-99614285D01*
X112903571Y-99471428D01*
X112832143Y-99257143D01*
X112689286Y-99114285D01*
X112546429Y-99042857D01*
X112260714Y-98971428D01*
X112046429Y-98971428D01*
X111760714Y-99042857D01*
X111617857Y-99114285D01*
X111475000Y-99257143D01*
X111403571Y-99471428D01*
X111403571Y-99614285D01*
X111475000Y-99828571D01*
X111546429Y-99900000D01*
M02*
