G04 #@! TF.FileFunction,Soldermask,Bot*
%FSLAX46Y46*%
G04 Gerber Fmt 4.6, Leading zero omitted, Abs format (unit mm)*
G04 Created by KiCad (PCBNEW 4.0.7-e2-6376~61~ubuntu18.04.1) date Tue Jul 31 18:43:04 2018*
%MOMM*%
%LPD*%
G01*
G04 APERTURE LIST*
%ADD10C,0.100000*%
%ADD11C,1.808000*%
%ADD12C,2.200000*%
%ADD13O,6.330000X2.370000*%
%ADD14C,2.300000*%
%ADD15C,2.100000*%
%ADD16O,3.700000X3.900000*%
%ADD17C,3.800000*%
%ADD18C,4.900000*%
%ADD19O,3.430000X2.160000*%
%ADD20C,2.279600*%
%ADD21R,2.127200X2.432000*%
%ADD22O,2.127200X2.432000*%
G04 APERTURE END LIST*
D10*
D11*
X50200000Y-84000000D03*
X50200000Y-89000000D03*
D12*
X47500000Y-83000000D03*
X47500000Y-90000000D03*
D13*
X62910000Y-68000000D03*
X70810000Y-68000000D03*
D14*
X59470000Y-49760000D03*
X74250000Y-49760000D03*
D15*
X70500000Y-97400000D03*
X66750000Y-97400000D03*
X74250000Y-97400000D03*
D16*
X76800000Y-87400000D03*
X64200000Y-87400000D03*
D13*
X131590000Y-68000000D03*
X139490000Y-68000000D03*
D14*
X128150000Y-49760000D03*
X142930000Y-49760000D03*
D17*
X108030000Y-50000000D03*
X103970000Y-50000000D03*
X113110000Y-50000000D03*
X98890000Y-50000000D03*
D18*
X153000000Y-52000000D03*
X53000000Y-52000000D03*
X53000000Y-97000000D03*
X153000000Y-97250000D03*
D13*
X83040000Y-68000000D03*
X90940000Y-68000000D03*
D14*
X79600000Y-49760000D03*
X94380000Y-49760000D03*
D15*
X152200000Y-62900000D03*
X147200000Y-66400000D03*
X152200000Y-69900000D03*
X147200000Y-73400000D03*
X152200000Y-76900000D03*
X152200000Y-83900000D03*
X147200000Y-80400000D03*
X147200000Y-87400000D03*
X107600000Y-71500000D03*
X103850000Y-71500000D03*
X111350000Y-71500000D03*
D16*
X113900000Y-61500000D03*
X101300000Y-61500000D03*
D12*
X84900000Y-92900000D03*
X89900000Y-92900000D03*
X84900000Y-97900000D03*
X89900000Y-97900000D03*
X105100000Y-77200000D03*
X110100000Y-77200000D03*
X105100000Y-82200000D03*
X110100000Y-82200000D03*
D19*
X121100000Y-55300000D03*
X121100000Y-60000000D03*
X121100000Y-50600000D03*
D20*
X144300000Y-100200000D03*
X141760000Y-100200000D03*
X139220000Y-100200000D03*
D21*
X112100000Y-101800000D03*
D22*
X109560000Y-101800000D03*
X107020000Y-101800000D03*
X104480000Y-101800000D03*
M02*
