M48
;DRILL file {KiCad 4.0.7-e2-6376~61~ubuntu18.04.1} date Tue Jul 31 18:43:07 2018
;FORMAT={-:-/ absolute / inch / decimal}
FMAT,2
INCH,TZ
T1C0.012
T2C0.016
T3C0.024
T4C0.032
T5C0.035
T6C0.039
T7C0.040
T8C0.042
T9C0.043
T10C0.047
T11C0.050
T12C0.098
T13C0.100
%
G90
G05
M72
T1
X2.8484Y-2.872
X3.8228Y-2.503
T2
X1.9094Y-2.4882
X1.9094Y-3.0157
X1.9291Y-3.4331
X1.9331Y-3.5787
X2.0197Y-3.4055
X2.0276Y-3.6142
X2.0433Y-3.3819
X2.0522Y-3.5512
X2.0708Y-3.0157
X2.0906Y-3.5236
X2.1378Y-3.2677
X2.1457Y-2.3309
X2.2283Y-3.3189
X2.2304Y-2.3309
X2.3819Y-3.4055
X2.4606Y-4.0748
X2.626Y-3.2677
X2.7756Y-3.2244
X2.7795Y-2.9488
X2.9213Y-3.5787
X3.0197Y-2.9488
X3.0807Y-2.9055
X3.1181Y-3.4606
X3.3858Y-3.4016
X3.6457Y-1.8583
X3.6969Y-2.8681
X3.6969Y-3.4331
X4.0079Y-2.1496
X4.0866Y-2.9528
X4.1752Y-2.6634
X4.2362Y-3.2964
X4.3346Y-3.4606
X4.4409Y-3.252
X4.5039Y-2.6772
X4.563Y-2.1535
X4.563Y-2.5827
X4.5906Y-1.7992
X4.5945Y-3.8346
X4.5984Y-3.0039
X4.6181Y-2.5
X4.622Y-3.8661
X4.626Y-3.0315
X4.7678Y-3.3777
X4.7993Y-3.3777
X4.8031Y-3.6457
X4.8307Y-2.9803
X4.8307Y-3.6732
X4.8308Y-3.0397
X4.8439Y-3.1242
X4.8583Y-3.5512
X4.8724Y-3.1377
X4.8937Y-3.0397
X4.8937Y-3.3777
X4.8937Y-3.6211
X4.9252Y-3.3777
X4.9252Y-3.5709
X4.9528Y-3.5197
X4.9567Y-3.0397
X4.9882Y-3.3777
X4.9882Y-3.4843
X4.9921Y-3.1929
X5.0039Y-2.1063
X5.047Y-3.3189
X5.0472Y-3.4606
X5.0945Y-3.1929
X5.1142Y-2.9843
X5.2126Y-3.1575
X5.2126Y-3.1929
X5.2126Y-3.3681
X5.315Y-3.
X5.3153Y-3.1532
X5.3386Y-3.436
X5.3898Y-3.6457
X5.3937Y-3.311
X5.5787Y-3.4961
X5.5787Y-3.8268
X5.6181Y-3.0827
X5.6181Y-3.3071
X5.6416Y-2.7491
X5.6772Y-3.436
X5.7087Y-3.4606
X5.7362Y-3.626
X5.7913Y-3.3071
X5.9134Y-2.9843
T3
X5.1378Y-3.3198
X5.2885Y-3.4281
T4
X5.4811Y-3.9449
X5.5811Y-3.9449
X5.6811Y-3.9449
T5
X1.9764Y-3.3071
X1.9764Y-3.5039
T6
X2.628Y-3.8346
X2.7756Y-3.8346
X2.9232Y-3.8346
X4.0886Y-2.815
X4.2362Y-2.815
X4.3839Y-2.815
X5.7953Y-2.6142
X5.7953Y-2.8898
X5.7953Y-3.1654
X5.7953Y-3.4409
X5.9921Y-2.4764
X5.9921Y-2.752
X5.9921Y-3.0276
X5.9921Y-3.3031
T7
X4.1134Y-4.0079
X4.2134Y-4.0079
X4.3134Y-4.0079
X4.4134Y-4.0079
T9
X3.3425Y-3.6575
X3.3425Y-3.8543
X3.5394Y-3.6575
X3.5394Y-3.8543
X4.1378Y-3.0394
X4.1378Y-3.2362
X4.3346Y-3.0394
X4.3346Y-3.2362
T10
X1.8701Y-3.2677
X1.8701Y-3.5433
X2.3413Y-1.9591
X2.9232Y-1.9591
X3.1339Y-1.9591
X3.7157Y-1.9591
X5.0453Y-1.9591
X5.6272Y-1.9591
T13
X3.8933Y-1.9685
X4.0933Y-1.9685
X4.2531Y-1.9685
X4.4531Y-1.9685
T8
X4.7927Y-1.9921G85X4.7427Y-1.9921
G05
X4.7927Y-2.1772G85X4.7427Y-2.1772
G05
X4.7927Y-2.3622G85X4.7427Y-2.3622
G05
T11
X2.3988Y-2.6772G85X2.5547Y-2.6772
G05
X2.7098Y-2.6772G85X2.8657Y-2.6772
G05
X3.1913Y-2.6772G85X3.3472Y-2.6772
G05
X3.5024Y-2.6772G85X3.6583Y-2.6772
G05
X5.1028Y-2.6772G85X5.2587Y-2.6772
G05
X5.4138Y-2.6772G85X5.5697Y-2.6772
G05
T12
X2.5276Y-3.437G85X2.5276Y-3.4449
G05
X3.0236Y-3.437G85X3.0236Y-3.4449
G05
X3.9882Y-2.4173G85X3.9882Y-2.4252
G05
X4.4843Y-2.4173G85X4.4843Y-2.4252
G05
T0
M30
